<svg width="16" height="16" viewBox="0 0 16 16" fill="none" xmlns="http://www.w3.org/2000/svg">
<path d="M3.43458 0.443961C3.31828 0.563025 3.25317 0.722858 3.25317 0.889294C3.25317 1.05573 3.31828 1.21556 3.43458 1.33463L9.93191 7.99996L3.43458 14.664C3.31828 14.783 3.25317 14.9429 3.25317 15.1093C3.25317 15.2757 3.31828 15.4356 3.43458 15.5546C3.49111 15.6127 3.55869 15.6588 3.63335 15.6903C3.708 15.7218 3.78821 15.7381 3.86924 15.7381C3.95028 15.7381 4.03049 15.7218 4.10514 15.6903C4.1798 15.6588 4.24738 15.6127 4.30391 15.5546L11.2132 8.46529C11.3346 8.3408 11.4025 8.17382 11.4025 7.99996C11.4025 7.8261 11.3346 7.65912 11.2132 7.53463L4.30391 0.445294C4.24738 0.387236 4.1798 0.341091 4.10514 0.309583C4.03049 0.278074 3.95028 0.261841 3.86924 0.261841C3.78821 0.261841 3.708 0.278074 3.63335 0.309583C3.55869 0.341091 3.49111 0.387236 3.43458 0.445294V0.443961Z" fill="#6A6A6A"/>
</svg>
