<svg width="36" height="36" viewBox="0 0 36 36" fill="none" xmlns="http://www.w3.org/2000/svg">
<path fill-rule="evenodd" clip-rule="evenodd" d="M20.2467 11.9758C19.8688 11.598 19.8694 10.9849 20.2478 10.6064L22.2579 8.59637C23.462 7.39223 25.5075 7.22942 26.8313 8.42056L26.8331 8.42226C28.1963 9.65539 28.2658 11.801 26.9555 13.1113L21.9231 18.1437L24.9929 25.9373C25.3685 26.6621 25.0068 27.3739 24.6611 27.7197L23.1535 29.2272C22.5322 29.8485 21.3685 29.9465 20.7335 29.077L20.1485 28.3116C19.824 27.8871 19.9055 27.2793 20.3306 26.9541C20.7557 26.6289 21.3633 26.7094 21.6878 27.134L22.0441 27.6002L23.1354 26.5088L19.8884 18.2654C19.7472 17.9067 19.8324 17.4981 20.1053 17.2251L25.5873 11.7431C26.1041 11.2264 26.0852 10.3602 25.5337 9.86028C25.0328 9.41056 24.1576 9.43306 23.6261 9.96458L21.616 11.9746C21.2376 12.3531 20.6245 12.3536 20.2467 11.9758Z" fill="#6A6A6A" stroke="white" stroke-width="0.3" stroke-linecap="round" stroke-linejoin="round"/>
<path fill-rule="evenodd" clip-rule="evenodd" d="M6.18233 14.8266C5.30105 14.1916 5.39764 13.0193 6.02243 12.3946L7.53319 10.8838C7.74491 10.6721 8.01563 10.511 8.33819 10.4463C8.65359 10.383 8.95347 10.4246 9.21276 10.5109C9.22736 10.5158 9.24184 10.521 9.25619 10.5265L17.7628 13.8141C18.2625 14.0072 18.5104 14.5691 18.3165 15.069C18.1227 15.569 17.5605 15.8177 17.0608 15.6246L8.74793 12.4119L7.65882 13.501L13.8665 18.057C14.0945 18.2243 14.2379 18.483 14.2592 18.7652C14.2805 19.0474 14.1775 19.325 13.9772 19.5253L11.4593 22.0433C11.2403 22.2623 10.9301 22.3638 10.6243 22.3167L7.54632 21.842L6.93971 22.4486L10.4471 24.5514C10.5836 24.6332 10.6979 24.7475 10.7797 24.884L12.8825 28.3914L13.4891 27.7848L13.0144 24.7068C12.9673 24.401 13.0688 24.0908 13.2878 23.8718L15.8058 21.3539C16.0063 21.1534 16.2843 21.0504 16.5668 21.0719C16.8493 21.0935 17.1081 21.2375 17.2752 21.4661L19.5146 24.5296C19.8307 24.9619 19.736 25.5692 19.3032 25.8859C18.8703 26.2026 18.2632 26.1088 17.9471 25.6764L16.3757 23.5268L15.0077 24.8948L15.4335 27.6559C15.4411 27.7051 15.4449 27.7547 15.4448 27.8045C15.4446 28.0766 15.3881 28.6286 14.9767 29.04L13.9695 30.0472C13.3012 30.7155 11.9877 30.7968 11.4294 29.7447L9.23935 26.0917L5.56049 23.8862C5.53835 23.8729 5.51676 23.8587 5.49575 23.8437C4.70118 23.2765 4.57348 22.072 5.28392 21.3616L6.2911 20.3544C6.58283 20.0627 7.06945 19.786 7.6917 19.9001L10.4363 20.3234L11.8059 18.9538L6.18233 14.8266Z" fill="#6A6A6A" stroke="white" stroke-width="0.3" stroke-linecap="round" stroke-linejoin="round"/>
</svg>
