<svg width="16" height="9" viewBox="0 0 16 9" fill="none" xmlns="http://www.w3.org/2000/svg">
<path d="M0.518546 8.63134C0.637609 8.74764 0.797443 8.81274 0.963879 8.81274C1.13032 8.81274 1.29015 8.74764 1.40921 8.63134L8.07454 2.13401L14.7385 8.63134C14.8576 8.74764 15.0174 8.81274 15.1839 8.81274C15.3503 8.81274 15.5101 8.74764 15.6292 8.63134C15.6873 8.57481 15.7334 8.50723 15.7649 8.43257C15.7964 8.35792 15.8127 8.2777 15.8127 8.19667C15.8127 8.11564 15.7964 8.03543 15.7649 7.96078C15.7334 7.88612 15.6873 7.81853 15.6292 7.76201L8.53988 0.852674C8.41538 0.731322 8.2484 0.663405 8.07454 0.663405C7.90069 0.663405 7.73371 0.731322 7.60921 0.852674L0.519879 7.76201C0.461821 7.81853 0.415676 7.88612 0.384168 7.96078C0.352659 8.03543 0.336426 8.11564 0.336426 8.19667C0.336426 8.27771 0.352659 8.35792 0.384168 8.43257C0.415676 8.50723 0.461821 8.57481 0.519879 8.63134L0.518546 8.63134Z" fill="#6A6A6A"/>
</svg>
