<svg width="25" height="26" viewBox="0 0 25 26" fill="none" xmlns="http://www.w3.org/2000/svg">
<path d="M0.638424 25.9868C0.161286 25.8242 0 25.4827 0 24.9915C0.00896034 20.4462 0.0107931 15.9011 0.00549839 11.3562C0.00549839 10.7746 0.142958 10.5705 0.672025 10.3585C3.15648 9.36269 5.64196 8.36626 8.12845 7.36922C8.27291 7.30589 8.42892 7.27319 8.58665 7.27319C8.74438 7.27319 8.90039 7.30589 9.04485 7.36922C10.5178 7.96915 11.9969 8.55442 13.4723 9.14825C13.9274 9.33153 14.1382 9.69809 14.0294 10.0982C13.8956 10.587 13.4185 10.8057 12.9023 10.5998C11.8087 10.1661 10.717 9.7268 9.62462 9.28999C9.5507 9.26005 9.47617 9.23378 9.38025 9.19835C9.37597 9.2961 9.36925 9.3743 9.36925 9.45188C9.36925 13.4026 9.36925 17.3533 9.36925 21.304C9.36925 21.4445 9.36253 21.5563 9.53909 21.6259C11.524 22.4098 13.5047 23.2046 15.4865 23.9963C15.5158 24.0079 15.5476 24.0171 15.6142 24.0416V23.7465C15.6142 21.1687 15.6142 18.5914 15.6142 16.0145C15.6094 15.9088 15.6141 15.8029 15.6283 15.6981C15.6615 15.5142 15.7598 15.3484 15.9052 15.231C16.0506 15.1137 16.2334 15.0526 16.4201 15.059C16.6069 15.0654 16.7851 15.1388 16.9222 15.2658C17.0592 15.3928 17.146 15.5649 17.1666 15.7506C17.1748 15.8477 17.1773 15.9452 17.1739 16.0426C17.1739 18.6045 17.1739 21.1657 17.1739 23.7263V24.0379C17.2619 24.0079 17.3303 23.9884 17.3957 23.9621C19.3323 23.1883 21.2694 22.4155 23.2069 21.6436C23.3694 21.5795 23.4219 21.5001 23.4213 21.3266C23.416 18.513 23.416 15.6999 23.4213 12.8872C23.4165 12.7495 23.4313 12.6119 23.4653 12.4784C23.5618 12.1589 23.7946 11.9775 24.1214 11.9427C24.4483 11.9078 24.7043 12.0514 24.8765 12.3343C24.9132 12.3954 24.9456 12.4564 24.9804 12.5175V22.2295C24.8698 22.5869 24.6041 22.7684 24.2699 22.9016C22.545 23.5825 20.8228 24.27 19.1032 24.9641C18.2638 25.3007 17.4281 25.6452 16.5905 25.9868H16.2001C16.1843 25.9696 16.1662 25.9548 16.1463 25.9428C13.6928 24.9624 11.2381 23.9849 8.78215 23.0103C8.65788 22.966 8.52214 22.966 8.39787 23.0103C6.69337 23.6823 4.99172 24.3609 3.29292 25.0459C2.52009 25.3538 1.75093 25.6721 0.977491 25.9868H0.638424ZM7.80954 9.19224C7.70935 9.22889 7.63421 9.25333 7.56151 9.28327C5.64012 10.0518 3.72058 10.8234 1.79614 11.584C1.61286 11.6561 1.56093 11.7441 1.56093 11.9359C1.56704 15.8789 1.56867 19.822 1.56582 23.7654V24.0446C1.67518 24.0024 1.7491 23.975 1.82363 23.945C3.73768 23.1801 5.6499 22.411 7.56639 21.6546C7.75823 21.5783 7.81077 21.4854 7.81077 21.2881C7.80466 17.3529 7.80323 13.4179 7.80649 9.48304L7.80954 9.19224Z" fill="#6A6A6A"/>
<path d="M24.6495 5.73395C24.1946 8.14051 22.7676 10.0101 21.375 11.8967C20.9225 12.5102 20.4254 13.0897 19.9378 13.6746C19.5806 14.0998 19.0793 14.1101 18.725 13.6947C17.3706 12.1057 16.0971 10.4541 15.0766 8.61429C14.6539 7.85321 14.2812 7.06722 14.0973 6.2047C13.8776 5.17635 14.0431 4.18566 14.4622 3.24661C15.2088 1.57927 16.4769 0.540595 18.2261 0.121482C18.4327 0.0716744 18.6429 0.0406965 18.8524 0H19.805C19.8735 0.0164001 19.9408 0.0376594 20.0098 0.0485928C22.099 0.391172 23.5457 1.56712 24.3149 3.57643C24.4774 4.01498 24.537 4.49484 24.6495 4.95647V5.73395ZM17.0455 5.45394C17.0574 6.73375 18.1047 7.79125 19.3424 7.77303C19.943 7.76274 20.5158 7.51327 20.9386 7.07791C21.3613 6.64255 21.6004 6.0558 21.6048 5.443C21.6048 4.16744 20.5635 3.1063 19.3198 3.11176C18.0761 3.11723 17.0354 4.18506 17.0455 5.45394Z" fill="#0F5DE4"/>
</svg>
