<svg width="244" height="27" viewBox="0 0 244 27" fill="none" xmlns="http://www.w3.org/2000/svg">
<path d="M150.765 16.5086C147.74 16.5086 145.472 14.1943 145.472 11.1086C145.472 8.17714 147.892 5.86286 150.765 5.86286C153.789 5.86286 156.208 8.17714 156.208 11.1086C156.208 14.04 153.789 16.5086 150.765 16.5086ZM150.765 0C144.716 0 139.575 5.09143 139.575 11.1086C139.575 17.28 144.716 22.2171 150.765 22.2171C156.964 22.2171 162.106 17.28 162.106 11.1086C162.106 4.93714 156.964 0.154285 150.765 0.154285V0ZM91.8402 15.7371L96.2254 15.12C96.3529 15.1322 96.4809 15.1029 96.5909 15.0361C96.701 14.9694 96.7875 14.8687 96.8379 14.7487C96.8884 14.6286 96.9002 14.4953 96.8716 14.3679C96.8431 14.2406 96.7756 14.1258 96.679 14.04C96.0965 13.1772 95.7805 12.1562 95.7718 11.1086C95.7718 8.17714 98.1912 5.86286 101.215 5.86286C104.24 5.86286 106.508 8.17714 106.508 11.1086C106.508 13.8857 104.542 16.0457 101.971 16.5086L93.5036 17.7429C92.8987 17.7429 92.7475 18.5143 93.2011 18.8229L101.215 27L109.23 18.9771C110.208 17.9587 110.979 16.7526 111.498 15.4286C112.017 14.1046 112.274 12.6887 112.254 11.2629C112.254 5.09143 107.415 0 101.215 0C95.0157 0 90.0257 5.09143 90.0257 11.1086C90.0257 12.6514 90.1769 13.8857 90.6305 15.12C90.7299 15.3507 90.9053 15.5387 91.1262 15.6514C91.3471 15.7641 91.5997 15.7944 91.8402 15.7371ZM169.037 21.9086H172.969C173.422 21.9086 173.876 21.4457 173.876 20.9829V14.8114L175.69 13.7314L179.773 21.4457C179.773 21.7543 180.227 21.9086 180.529 21.9086H185.519C186.124 21.9086 186.275 21.2914 185.973 20.9829L179.924 10.1829L185.973 1.38857C186.124 1.08 185.973 0.462857 185.519 0.462857H180.832C180.655 0.45634 180.479 0.495304 180.32 0.576175C180.162 0.657045 180.026 0.777232 179.924 0.925713C179.924 1.23428 175.69 7.09714 175.69 7.09714L173.876 8.17714V1.54286C173.879 1.28125 173.788 1.02757 173.621 0.828933C173.454 0.630298 173.222 0.500218 172.969 0.462857H169.037C168.432 0.462857 168.13 0.925714 168.13 1.54286V20.9829C168.13 21.6 168.583 21.9086 169.037 21.9086ZM242.942 0.462857H239.01C238.756 0.500218 238.524 0.630298 238.357 0.828933C238.191 1.02757 238.1 1.28125 238.103 1.54286V12.96C238.103 14.5029 237.8 15.5829 237.195 16.3543C236.591 16.9714 235.683 17.4343 234.625 17.4343C233.566 17.4343 232.659 16.9714 232.205 16.3543C231.601 15.5829 231.298 14.5029 231.298 12.96V1.54286C231.298 1.25642 231.187 0.981721 230.988 0.779181C230.79 0.576642 230.52 0.462857 230.24 0.462857H226.459C226.179 0.462857 225.909 0.576642 225.711 0.779181C225.512 0.981721 225.401 1.25642 225.401 1.54286V13.4229C225.401 16.3543 226.157 18.5143 227.82 19.9029C229.332 21.4457 231.752 22.2171 234.625 22.2171C237.649 22.2171 239.917 21.4457 241.581 19.9029C243.093 18.36 244 16.3543 244 13.4229V1.54286C244 1.25642 243.888 0.981721 243.69 0.779181C243.491 0.576642 243.222 0.462857 242.942 0.462857ZM197.08 19.44C197.08 17.8971 195.87 16.6629 194.358 16.6629C192.846 16.6629 191.334 17.8971 191.334 19.44C191.334 20.9829 192.846 22.3714 194.358 22.3714C195.87 22.3714 197.08 20.9829 197.08 19.44ZM211.362 9.87429H208.489V4.78286H211.665C213.631 4.78286 214.689 5.86286 214.689 7.25143C214.689 8.94857 213.479 9.87429 211.362 9.87429ZM220.738 20.9829L215.445 13.4229C219.074 12.6514 220.435 10.1829 220.435 6.94286C220.435 2.77714 217.713 0.462857 211.816 0.462857H203.802C203.561 0.462857 203.33 0.560387 203.16 0.733992C202.99 0.907597 202.894 1.14306 202.894 1.38857V21.1371C202.894 21.6 203.197 22.0629 203.802 22.0629H207.431C208.036 22.0629 208.489 21.6 208.489 21.1371V14.3486H210.001L215.143 21.6C215.294 21.9086 215.596 22.0629 216.05 22.0629H220.133C220.738 22.0629 220.889 21.4457 220.738 21.1371V20.9829ZM73.1141 4.78286H76.1384C78.2554 4.78286 79.3138 5.86286 79.3138 7.25143C79.3138 8.94857 77.9529 9.87429 75.9872 9.87429H72.9629V4.78286H73.1141ZM73.1141 14.04H74.6263L79.7675 21.4457C79.9187 21.7543 80.0699 21.9086 80.5235 21.9086H84.7575C85.3623 21.9086 85.5136 21.2914 85.2111 20.9829L80.0699 13.4229C83.699 12.6514 85.0599 10.1829 85.0599 6.94286C85.0599 2.77714 82.1869 0.462857 76.2896 0.462857H68.4265C68.2954 0.440223 68.1609 0.447292 68.0328 0.483564C67.9046 0.519837 67.7858 0.584425 67.6848 0.672753C67.5838 0.761081 67.5031 0.870989 67.4483 0.99469C67.3936 1.11839 67.3662 1.25286 67.368 1.38857V21.1371C67.368 21.6 67.8217 22.0629 68.4265 22.0629H72.0556C72.6605 22.0629 73.1141 21.6 73.1141 21.1371V14.3486V14.04ZM11.1897 16.5086C8.16548 16.5086 5.74608 14.1943 5.74608 11.1086C5.74608 8.17714 8.16548 5.86286 11.1897 5.86286C14.214 5.86286 16.6334 8.17714 16.6334 11.1086C16.6334 14.04 14.214 16.5086 11.1897 16.5086ZM11.1897 0C5.14123 0 0 5.09143 0 11.1086C0 17.28 4.99002 22.2171 11.1897 22.2171C17.3894 22.2171 22.3795 17.28 22.3795 11.1086C22.3795 4.93714 17.3894 0.154285 11.1897 0.154285V0ZM26.8916 21.1371L29.4622 21.9086C30.5207 22.2171 31.7304 22.2171 33.0913 22.2171C34.9059 22.2171 36.418 21.9086 37.6277 21.4457C38.9886 20.8286 39.8959 19.9029 40.6519 18.9771C41.353 17.933 41.7226 16.6942 41.7104 15.4286C41.7104 13.8857 41.2568 12.8057 40.5007 11.7257C39.4565 10.5648 38.1624 9.66693 36.7204 9.10286L33.0913 7.25143C32.6377 6.94286 32.3352 6.63429 32.3352 6.17143C32.3352 5.70857 32.6377 5.4 32.9401 5.09143L34.4522 4.78286C36.0086 4.79079 37.5489 5.10511 38.9886 5.70857C39.4422 5.86286 40.0471 5.70857 40.1983 5.24571L41.2568 2.62286C41.5592 2.00571 41.2568 1.38857 40.6519 1.23429C38.6862 0.462857 36.7204 0.154285 34.7546 0.154285C32.184 0.154285 30.2183 0.617142 28.7061 1.69714C27.194 2.93143 26.5892 4.47429 26.5892 6.32571C26.5892 7.40571 26.7404 8.33143 27.0428 9.10286L28.5549 11.2629C29.311 11.88 30.3695 12.4971 31.8816 13.1143L34.7546 14.5029L35.5107 15.12L35.8131 15.8914C35.8131 16.3543 35.5107 16.8171 35.2083 17.1257C34.7546 17.4343 34.1498 17.5886 33.2425 17.5886C32.1128 17.5248 30.9953 17.3174 29.9158 16.9714C29.5583 16.8864 29.205 16.7834 28.8573 16.6629C28.4037 16.5086 27.7989 16.5086 27.3452 17.28L26.4379 19.7486C26.1355 20.52 26.4379 20.9829 27.0428 21.1371H26.8916ZM129.317 21.1371L135.97 1.38857C136.121 1.08 135.819 0.617142 135.365 0.617142H130.526C130.407 0.595108 130.285 0.597705 130.166 0.62478C130.048 0.651855 129.936 0.702857 129.837 0.774774C129.739 0.846692 129.655 0.938064 129.592 1.04349C129.528 1.14891 129.486 1.26625 129.468 1.38857L125.688 14.6571L122.058 1.38857C121.991 1.15813 121.851 0.957116 121.659 0.817383C121.467 0.67765 121.235 0.607182 121 0.617142H116.312C115.859 0.617142 115.556 0.925714 115.708 1.54286L122.058 21.1371C122.21 21.6 122.663 21.7543 122.966 21.7543H128.409C129.014 21.7543 129.317 21.4457 129.317 21.1371ZM62.2511 4.16571V1.54286C62.2511 0.925714 61.7974 0.462857 61.3438 0.462857H46.8274C46.5467 0.462857 46.2774 0.576642 46.0789 0.779181C45.8804 0.981721 45.7689 1.25642 45.7689 1.54286V4.16571C45.7689 4.78286 46.2225 5.24571 46.8274 5.24571H51.0613V20.9829C51.0613 21.4457 51.3638 21.9086 51.9686 21.9086H55.9001C56.505 21.9086 56.9586 21.4457 56.9586 20.9829V5.24571H61.1926C61.6462 5.24571 62.0999 4.78286 62.0999 4.16571H62.2511Z" fill="#0F5DE4"/>
</svg>
