<svg width="140" height="16" viewBox="0 0 140 16" fill="none" xmlns="http://www.w3.org/2000/svg">
<path d="M86.5043 9.78286C84.7691 9.78286 83.4677 8.41143 83.4677 6.58286C83.4677 4.84571 84.8558 3.47429 86.5043 3.47429C88.2395 3.47429 89.6277 4.84571 89.6277 6.58286C89.6277 8.32 88.2395 9.78286 86.5043 9.78286ZM86.5043 0C83.0338 0 80.0839 3.01714 80.0839 6.58286C80.0839 10.24 83.0338 13.1657 86.5043 13.1657C90.0615 13.1657 93.0114 10.24 93.0114 6.58286C93.0114 2.92571 90.0615 0.091428 86.5043 0.091428V0ZM52.6952 9.32571L55.2113 8.96C55.2844 8.96724 55.3579 8.94984 55.421 8.9103C55.4842 8.87076 55.5338 8.81111 55.5627 8.73995C55.5917 8.6688 55.5985 8.58979 55.5821 8.51433C55.5657 8.43886 55.527 8.37082 55.4716 8.32C55.1373 7.80873 54.956 7.20369 54.951 6.58286C54.951 4.84571 56.3392 3.47429 58.0744 3.47429C59.8096 3.47429 61.1111 4.84571 61.1111 6.58286C61.1111 8.22857 59.9832 9.50857 58.5082 9.78286L53.6496 10.5143C53.3025 10.5143 53.2158 10.9714 53.4761 11.1543L58.0744 16L62.6728 11.2457C63.2341 10.6422 63.6764 9.92749 63.9742 9.14288C64.2721 8.35826 64.4195 7.51926 64.408 6.67429C64.408 3.01714 61.6316 0 58.0744 0C54.5172 0 51.6541 3.01714 51.6541 6.58286C51.6541 7.49714 51.7408 8.22857 52.0011 8.96C52.0581 9.09672 52.1588 9.20812 52.2855 9.27491C52.4123 9.3417 52.5572 9.35967 52.6952 9.32571ZM96.9885 12.9829H99.2443C99.5046 12.9829 99.7649 12.7086 99.7649 12.4343V8.77714L100.806 8.13714L103.149 12.7086C103.149 12.8914 103.409 12.9829 103.582 12.9829H106.445C106.793 12.9829 106.879 12.6171 106.706 12.4343L103.235 6.03429L106.706 0.822857C106.793 0.64 106.706 0.274286 106.445 0.274286H103.756C103.654 0.270424 103.553 0.293514 103.462 0.341437C103.371 0.38936 103.293 0.460582 103.235 0.548571C103.235 0.731428 100.806 4.20571 100.806 4.20571L99.7649 4.84571V0.914286C99.7664 0.759261 99.7144 0.608929 99.6187 0.49122C99.5229 0.37351 99.3899 0.296425 99.2443 0.274286H96.9885C96.6414 0.274286 96.4679 0.548571 96.4679 0.914286V12.4343C96.4679 12.8 96.7282 12.9829 96.9885 12.9829ZM139.393 0.274286H137.137C136.991 0.296425 136.858 0.37351 136.762 0.49122C136.667 0.608929 136.615 0.759261 136.616 0.914286V7.68C136.616 8.59429 136.443 9.23429 136.096 9.69143C135.749 10.0571 135.228 10.3314 134.621 10.3314C134.013 10.3314 133.493 10.0571 133.233 9.69143C132.886 9.23429 132.712 8.59429 132.712 7.68V0.914286C132.712 0.744547 132.648 0.58176 132.534 0.461737C132.42 0.341714 132.266 0.274286 132.105 0.274286H129.936C129.775 0.274286 129.62 0.341714 129.506 0.461737C129.392 0.58176 129.328 0.744547 129.328 0.914286V7.95429C129.328 9.69143 129.762 10.9714 130.717 11.7943C131.584 12.7086 132.972 13.1657 134.621 13.1657C136.356 13.1657 137.657 12.7086 138.612 11.7943C139.479 10.88 140 9.69143 140 7.95429V0.914286C140 0.744547 139.936 0.58176 139.822 0.461737C139.708 0.341714 139.554 0.274286 139.393 0.274286ZM113.079 11.52C113.079 10.6057 112.385 9.87429 111.517 9.87429C110.649 9.87429 109.782 10.6057 109.782 11.52C109.782 12.4343 110.649 13.2571 111.517 13.2571C112.385 13.2571 113.079 12.4343 113.079 11.52ZM121.273 5.85143H119.625V2.83429H121.447C122.575 2.83429 123.182 3.47429 123.182 4.29714C123.182 5.30286 122.488 5.85143 121.273 5.85143ZM126.653 12.4343L123.616 7.95429C125.698 7.49714 126.479 6.03429 126.479 4.11429C126.479 1.64571 124.917 0.274286 121.534 0.274286H116.935C116.797 0.274286 116.665 0.332081 116.567 0.434958C116.47 0.537835 116.415 0.677367 116.415 0.822857V12.5257C116.415 12.8 116.588 13.0743 116.935 13.0743H119.018C119.365 13.0743 119.625 12.8 119.625 12.5257V8.50286H120.493L123.442 12.8C123.529 12.9829 123.703 13.0743 123.963 13.0743H126.306C126.653 13.0743 126.739 12.7086 126.653 12.5257V12.4343ZM41.9507 2.83429H43.686C44.9006 2.83429 45.5079 3.47429 45.5079 4.29714C45.5079 5.30286 44.7271 5.85143 43.5992 5.85143H41.864V2.83429H41.9507ZM41.9507 8.32H42.8183L45.7682 12.7086C45.855 12.8914 45.9417 12.9829 46.202 12.9829H48.6313C48.9784 12.9829 49.0652 12.6171 48.8916 12.4343L45.9417 7.95429C48.024 7.49714 48.8049 6.03429 48.8049 4.11429C48.8049 1.64571 47.1564 0.274286 43.7727 0.274286H39.2611C39.1859 0.260873 39.1087 0.265062 39.0352 0.286557C38.9616 0.308051 38.8935 0.346326 38.8355 0.398669C38.7776 0.451011 38.7313 0.516142 38.6999 0.589446C38.6685 0.662751 38.6527 0.742436 38.6538 0.822857V12.5257C38.6538 12.8 38.9141 13.0743 39.2611 13.0743H41.3434C41.6904 13.0743 41.9507 12.8 41.9507 12.5257V8.50286V8.32ZM6.42034 9.78286C4.68511 9.78286 3.29693 8.41143 3.29693 6.58286C3.29693 4.84571 4.68511 3.47429 6.42034 3.47429C8.15556 3.47429 9.54374 4.84571 9.54374 6.58286C9.54374 8.32 8.15556 9.78286 6.42034 9.78286ZM6.42034 0C2.94988 0 0 3.01714 0 6.58286C0 10.24 2.86312 13.1657 6.42034 13.1657C9.97755 13.1657 12.8407 10.24 12.8407 6.58286C12.8407 2.92571 9.97755 0.091428 6.42034 0.091428V0ZM15.4296 12.5257L16.9045 12.9829C17.5119 13.1657 18.206 13.1657 18.9868 13.1657C20.0279 13.1657 20.8956 12.9829 21.5896 12.7086C22.3705 12.3429 22.8911 11.7943 23.3249 11.2457C23.7272 10.627 23.9392 9.89285 23.9322 9.14286C23.9322 8.22857 23.6719 7.58857 23.2381 6.94857C22.639 6.2606 21.8965 5.72855 21.0691 5.39429L18.9868 4.29714C18.7265 4.11429 18.553 3.93143 18.553 3.65714C18.553 3.38286 18.7265 3.2 18.9 3.01714L19.7677 2.83429C20.6607 2.83899 21.5445 3.02525 22.3705 3.38286C22.6308 3.47429 22.9778 3.38286 23.0646 3.10857L23.6719 1.55429C23.8454 1.18857 23.6719 0.822857 23.3249 0.731429C22.197 0.274286 21.0691 0.091428 19.9412 0.091428C18.4662 0.091428 17.3383 0.365714 16.4707 1.00571C15.6031 1.73714 15.2561 2.65143 15.2561 3.74857C15.2561 4.38857 15.3428 4.93714 15.5164 5.39429L16.384 6.67429C16.8178 7.04 17.4251 7.40571 18.2927 7.77143L19.9412 8.59429L20.375 8.96L20.5485 9.41714C20.5485 9.69143 20.375 9.96571 20.2015 10.1486C19.9412 10.3314 19.5941 10.4229 19.0736 10.4229C18.4254 10.385 17.7842 10.2622 17.1648 10.0571C16.9597 10.0067 16.757 9.9457 16.5575 9.87429C16.2972 9.78286 15.9502 9.78286 15.6899 10.24L15.1693 11.7029C14.9958 12.16 15.1693 12.4343 15.5164 12.5257H15.4296ZM74.1981 12.5257L78.0156 0.822857C78.1024 0.64 77.9288 0.365714 77.6686 0.365714H74.8922C74.8237 0.352656 74.7535 0.354196 74.6856 0.37024C74.6177 0.386284 74.5535 0.416508 74.4969 0.459126C74.4403 0.501743 74.3924 0.55589 74.3559 0.618364C74.3195 0.680838 74.2953 0.750372 74.2849 0.822857L72.1158 8.68571L70.0336 0.822857C69.995 0.686296 69.9144 0.56718 69.8044 0.484375C69.6944 0.40157 69.5613 0.359812 69.4262 0.365714H66.7366C66.4763 0.365714 66.3028 0.548571 66.3896 0.914286L70.0336 12.5257C70.1203 12.8 70.3806 12.8914 70.5541 12.8914H73.6775C74.0246 12.8914 74.1981 12.7086 74.1981 12.5257ZM35.7178 2.46857V0.914286C35.7178 0.548571 35.4575 0.274286 35.1973 0.274286H26.8682C26.7071 0.274286 26.5526 0.341714 26.4387 0.461737C26.3248 0.58176 26.2608 0.744547 26.2608 0.914286V2.46857C26.2608 2.83429 26.5211 3.10857 26.8682 3.10857H29.2975V12.4343C29.2975 12.7086 29.471 12.9829 29.8181 12.9829H32.0739C32.4209 12.9829 32.6812 12.7086 32.6812 12.4343V3.10857H35.1105C35.3708 3.10857 35.6311 2.83429 35.6311 2.46857H35.7178Z" fill="#E0E0E0"/>
</svg>
