<svg width="12" height="11" viewBox="0 0 12 11" fill="none" xmlns="http://www.w3.org/2000/svg">
<path d="M11.4375 1.31231H9.6645C9.54464 0.931708 9.30653 0.599251 8.98478 0.363249C8.66303 0.127247 8.2744 0 7.87537 0C7.47635 0 7.08772 0.127247 6.76597 0.363249C6.44422 0.599251 6.20611 0.931708 6.08625 1.31231H0.5625C0.413316 1.31231 0.270242 1.37157 0.164752 1.47706C0.0592632 1.58255 0 1.72562 0 1.87481C0 2.02399 0.0592632 2.16706 0.164752 2.27255C0.270242 2.37804 0.413316 2.43731 0.5625 2.43731H6.0855C6.20536 2.8179 6.44347 3.15036 6.76522 3.38636C7.08697 3.62236 7.4756 3.74961 7.87463 3.74961C8.27365 3.74961 8.66228 3.62236 8.98403 3.38636C9.30578 3.15036 9.54389 2.8179 9.66375 2.43731H11.4375C11.5867 2.43731 11.7298 2.37804 11.8352 2.27255C11.9407 2.16706 12 2.02399 12 1.87481C12 1.72562 11.9407 1.58255 11.8352 1.47706C11.7298 1.37157 11.5867 1.31231 11.4375 1.31231ZM0.5625 7.68731C0.413316 7.68731 0.270242 7.74657 0.164752 7.85206C0.0592632 7.95755 0 8.10062 0 8.24981C0 8.39899 0.0592632 8.54206 0.164752 8.64755C0.270242 8.75304 0.413316 8.81231 0.5625 8.81231H2.3355C2.45517 9.19319 2.69325 9.52595 3.01509 9.76219C3.33694 9.99842 3.72576 10.1258 4.125 10.1258C4.52424 10.1258 4.91306 9.99842 5.23491 9.76219C5.55675 9.52595 5.79483 9.19319 5.9145 8.81231H11.4375C11.5867 8.81231 11.7298 8.75304 11.8352 8.64755C11.9407 8.54206 12 8.39899 12 8.24981C12 8.10062 11.9407 7.95755 11.8352 7.85206C11.7298 7.74657 11.5867 7.68731 11.4375 7.68731H5.9145C5.79483 7.30643 5.55675 6.97366 5.23491 6.73743C4.91306 6.50119 4.52424 6.37381 4.125 6.37381C3.72576 6.37381 3.33694 6.50119 3.01509 6.73743C2.69325 6.97366 2.45517 7.30643 2.3355 7.68731H0.5625Z" fill="#FF385C"/>
</svg>
