<svg width="15" height="14" viewBox="0 0 15 14" fill="none" xmlns="http://www.w3.org/2000/svg">
<path d="M14.2969 1.8144H12.0806C11.9308 1.28819 11.6332 0.828528 11.231 0.50223C10.8288 0.175933 10.343 0 9.84422 0C9.34544 0 8.85965 0.175933 8.45746 0.50223C8.05527 0.828528 7.75764 1.28819 7.60781 1.8144H0.703125C0.516645 1.8144 0.337802 1.89634 0.20594 2.04219C0.0740789 2.18804 0 2.38586 0 2.59212C0 2.79838 0.0740789 2.9962 0.20594 3.14205C0.337802 3.2879 0.516645 3.36983 0.703125 3.36983H7.60688C7.7567 3.89605 8.05434 4.35571 8.45653 4.68201C8.85872 5.0083 9.3445 5.18424 9.84328 5.18424C10.3421 5.18424 10.8278 5.0083 11.23 4.68201C11.6322 4.35571 11.9299 3.89605 12.0797 3.36983H14.2969C14.4834 3.36983 14.6622 3.2879 14.7941 3.14205C14.9259 2.9962 15 2.79838 15 2.59212C15 2.38586 14.9259 2.18804 14.7941 2.04219C14.6622 1.89634 14.4834 1.8144 14.2969 1.8144ZM0.703125 10.6285C0.516645 10.6285 0.337802 10.7105 0.20594 10.8563C0.0740789 11.0022 0 11.2 0 11.4062C0 11.6125 0.0740789 11.8103 0.20594 11.9562C0.337802 12.102 0.516645 12.184 0.703125 12.184H2.91937C3.06896 12.7106 3.36656 13.1706 3.76886 13.4973C4.17117 13.8239 4.6572 14 5.15625 14C5.6553 14 6.14133 13.8239 6.54364 13.4973C6.94594 13.1706 7.24354 12.7106 7.39312 12.184H14.2969C14.4834 12.184 14.6622 12.102 14.7941 11.9562C14.9259 11.8103 15 11.6125 15 11.4062C15 11.2 14.9259 11.0022 14.7941 10.8563C14.6622 10.7105 14.4834 10.6285 14.2969 10.6285H7.39312C7.24354 10.1019 6.94594 9.64183 6.54364 9.31521C6.14133 8.98859 5.6553 8.81247 5.15625 8.81247C4.6572 8.81247 4.17117 8.98859 3.76886 9.31521C3.36656 9.64183 3.06896 10.1019 2.91937 10.6285H0.703125Z" fill="#0F5DE4"/>
</svg>
