<svg width="16" height="16" viewBox="0 0 16 16" fill="none" xmlns="http://www.w3.org/2000/svg">
<g clip-path="url(#clip0_740_6950)">
<path d="M3.33333 14C2.96667 14 2.65267 13.8696 2.39133 13.6087C2.13044 13.3473 2 13.0333 2 12.6667V10H3.33333V12.6667H6V14H3.33333ZM10 14V12.6667H12.6667V10H14V12.6667C14 13.0333 13.8696 13.3473 13.6087 13.6087C13.3473 13.8696 13.0333 14 12.6667 14H10ZM2 6V3.33333C2 2.96667 2.13044 2.65267 2.39133 2.39133C2.65267 2.13044 2.96667 2 3.33333 2H6V3.33333H3.33333V6H2ZM12.6667 6V3.33333H10V2H12.6667C13.0333 2 13.3473 2.13044 13.6087 2.39133C13.8696 2.65267 14 2.96667 14 3.33333V6H12.6667ZM7.5 9C7.92222 9 8.27778 8.85556 8.56667 8.56667C8.85556 8.27778 9 7.92222 9 7.5C9 7.07778 8.85556 6.72222 8.56667 6.43333C8.27778 6.14444 7.92222 6 7.5 6C7.07778 6 6.72222 6.14444 6.43333 6.43333C6.14444 6.72222 6 7.07778 6 7.5C6 7.92222 6.14444 8.27778 6.43333 8.56667C6.72222 8.85556 7.07778 9 7.5 9ZM10.7167 11.6667L8.96667 9.91667C8.74444 10.0611 8.50844 10.1667 8.25867 10.2333C8.00844 10.3 7.75556 10.3333 7.5 10.3333C6.71111 10.3333 6.04178 10.0582 5.492 9.508C4.94178 8.95822 4.66667 8.28889 4.66667 7.5C4.66667 6.71111 4.94178 6.04178 5.492 5.492C6.04178 4.94178 6.71111 4.66667 7.5 4.66667C8.28889 4.66667 8.95822 4.94178 9.508 5.492C10.0582 6.04178 10.3333 6.71111 10.3333 7.5C10.3333 7.75556 10.2973 8.00822 10.2253 8.258C10.1529 8.50822 10.0444 8.74444 9.9 8.96667L11.6667 10.7333L10.7167 11.6667Z" fill="#FF385C"/>
</g>
<defs>
<clipPath id="clip0_740_6950">
<rect width="16" height="16" fill="white"/>
</clipPath>
</defs>
</svg>
