<svg width="245" height="41" viewBox="0 0 245 41" fill="none" xmlns="http://www.w3.org/2000/svg">
<mask id="mask0_23_462" style="mask-type:luminance" maskUnits="userSpaceOnUse" x="0" y="0" width="245" height="41">
<path d="M245 0H0V40.6H245V0Z" fill="white"/>
</mask>
<g mask="url(#mask0_23_462)">
<path d="M206 27.3C206 25.1 204.2 23.3 202 23.3C199.8 23.3 198 25.1 198 27.3C198 29.5 199.8 31.3 202 31.3C204.2 31.3 206 29.5 206 27.3Z" fill="#EE204D"/>
<path fill-rule="evenodd" clip-rule="evenodd" d="M5.42537 12.9472C5.42537 12.8632 5.34223 12.6953 5.34223 12.6114C5.00968 11.2683 3.84572 11.9399 3.5963 11.0165C3.26374 9.67343 6.92189 9.4216 7.91956 9.25372C10.3306 8.66613 13.6562 7.15517 17.1481 6.23181C20.6399 5.30845 24.2149 4.88874 26.626 4.2172C27.5405 3.88143 30.8661 2.20259 31.2818 3.46172C31.5312 4.38508 30.201 4.38508 30.6167 5.72816C31.1155 7.57488 32.5289 9.84131 33.194 12.3596C34.0254 15.2975 34.1086 18.5713 34.6074 20.5019C34.7737 21.0895 35.1062 21.4253 35.3557 21.5932C36.1871 22.0968 36.2702 23.1881 35.2725 23.5239C34.7737 23.6917 34.0254 23.9436 33.1109 23.8596C32.6952 23.8596 32.5289 23.6917 32.4458 23.272C32.2795 21.929 32.0301 20.0822 31.6144 18.5713C31.2818 17.2282 30.4504 15.0457 29.7022 13.7866C29.2865 13.1151 28.7876 12.2756 29.2033 11.772C29.9516 10.8486 29.7022 9.4216 28.9539 8.58218C28.1225 7.65882 26.7923 7.65882 25.2958 8.07853C24.6306 8.24642 23.8824 8.58218 23.3004 8.75007C22.9678 8.83401 22.7184 9.00189 22.6353 9.00189C21.6376 9.33766 20.1411 9.58949 18.5614 9.84131C16.8987 10.1771 15.0696 10.5128 13.1574 11.0165C11.2452 11.5202 9.49922 12.1917 7.91956 12.7793C7.42073 12.9472 6.92189 13.1151 6.42305 13.2829C6.42305 13.4508 5.59165 13.7026 5.42537 12.9472ZM19.1434 33.429C15.7347 34.1845 12.1597 34.5203 9.74864 35.1918C8.0027 35.6115 7.42073 36.7027 6.50619 36.9546C5.50851 37.2064 5.09281 36.367 5.50851 35.5276C5.67479 35.1918 5.75793 34.7721 5.59165 34.1845C5.17595 32.5057 3.5963 30.9108 2.43234 26.5458C1.26839 22.0968 2.18293 21.0056 1.76723 19.4107C1.43467 18.0676 0.270712 18.7392 0.021293 17.8158C-0.311266 16.4727 3.34688 16.2209 4.34456 16.053C7.50387 15.2136 10.4138 13.8705 13.5731 13.0311C16.7324 12.1917 19.9748 11.9399 23.051 11.0165C23.9655 10.7647 27.2911 9.08584 27.6237 10.4289C27.8731 11.3523 26.5429 11.3523 26.9586 12.6953C27.3743 14.2902 28.7045 14.8778 29.9516 19.2428C31.1155 23.6078 30.6167 25.7903 31.0324 27.4691C31.1987 28.0567 31.5312 28.3925 31.7807 28.5604C32.6121 29.064 32.6952 30.0713 31.6975 30.3232C30.8661 30.575 29.7853 29.9034 28.0394 30.4071C25.7115 30.9108 22.469 32.4217 19.1434 33.429ZM24.8801 15.5494C27.6237 19.8304 26.1272 25.6224 25.2126 27.9728C25.2126 28.0567 25.1295 28.1407 25.3789 28.0567C28.7876 26.7976 28.7876 18.8231 24.9632 15.3815C25.0463 15.4654 24.7138 15.2975 24.8801 15.5494Z" fill="#EE204D"/>
<path fill-rule="evenodd" clip-rule="evenodd" d="M174.8 20.2C174.8 14.1 179.8 9.1 185.9 9.1C192 9.1 197 14.1 197 20.2C197 26.3 192 31.3 185.9 31.3C179.7 31.3 174.8 26.3 174.8 20.2ZM185.9 25.3C188.7 25.3 191 23 191 20.2C191 17.3 188.7 15.1 185.9 15.1C183.1 15.1 180.8 17.4 180.8 20.2C180.7 23 183 25.3 185.9 25.3Z" fill="#1C1C1C"/>
<path fill-rule="evenodd" clip-rule="evenodd" d="M213.8 30.7C214.3 30.6 214.7 30.2 214.7 29.7V27.5C214.7 27 215.1 26.6 215.7 26.6C219.8 26.6 222.7 25.2 224.3 23.1C226 20.8 226.2 17.6 225.4 14.9C224.6 12.5 222.8 10.6 220.2 9.8C218.8 9.4 217 9.2 215.2 9.3C213.4 9.4 211.6 9.6 210.2 10.1C209.8 10.2 209.4 10.4 209.1 10.7C208.8 11 208.7 11.3 208.7 11.8V13.4C208.7 18.2 208.7 23.1 208.7 27.9C208.7 28.6 208.8 29.2 209 29.7C209.6 30.7 211 30.8 212 30.8C212.7 30.9 213.3 30.8 213.8 30.7ZM215.7 21C215.2 21 214.7 20.6 214.7 20.1V15.8C214.7 15.4 215.2 15 215.6 15C215.8 14.9 216.3 14.9 216.7 14.9C218 14.9 219 15.2 219.8 16.4C220.4 17.4 220.3 18.6 219.7 19.5C219 20.5 217.9 20.8 216.8 20.9C216.4 21 216.1 21 215.7 21Z" fill="#1C1C1C"/>
<path d="M93.4 15.1C93.8 15.1 94.1 15.4 94.1 15.8C94.1 19.9 94.1 28 94.1 28C94.1 28.7 94.2 29.3 94.4 29.8C95 30.8 96.4 30.9 97.4 30.9C98 30.9 98.7 30.8 99.2 30.7C99.7 30.6 100.1 30.2 100.1 29.7V15.8C100.1 15.4 100.4 15.1 100.8 15.1H103.8C104.8 15.1 105.5 14.7 105.8 14.1C106.2 13.5 106.3 12.6 106.2 11.7C106.1 10.9 105.9 9.4 104.9 9.4H90.3C89.7 9.4 89.3 9.5 89 9.8C88.2 10.4 88 12 88.1 12.9C88.2 13.8 88.4 15.2 89.6 15.2H93.4V15.1Z" fill="#1C1C1C"/>
<path d="M149 30.7C149.5 30.6 149.9 30.2 149.9 29.7C149.9 28.1 149.9 26.5 149.9 24.9C149.9 20.7 149.9 16.5 149.9 12.3C149.9 11.6 149.8 11 149.6 10.5C149 9.5 147.6 9.4 146.6 9.4C146 9.4 145.3 9.5 144.8 9.6C144.3 9.7 143.9 10.1 143.9 10.6C143.9 12.3 143.9 14.1 143.9 15.8C143.9 17.3 142.5 18.2 141 18.2C139.6 18.2 138 17.4 138 15.8C138 15.3 138 14.9 138 14.4C138 13.7 138 13 138 12.3C138 11.6 137.9 11 137.7 10.5C137.1 9.5 135.7 9.4 134.7 9.4C134.1 9.4 133.4 9.5 132.9 9.6C132.4 9.7 132 10.1 132 10.6C132 12.8 132 14.9 132 17.1C132 19.4 133.1 21.3 134.9 22.6C136.4 23.7 138.3 24.3 140.2 24.3C141.1 24.3 142.1 24.1 143 23.9C143.1 23.9 143.3 23.9 143.4 23.9C143.7 24 143.9 24.2 143.9 24.5C143.9 25.7 143.9 26.8 143.9 28C143.9 28.7 144 29.3 144.2 29.8C144.8 30.8 146.2 30.9 147.2 30.9C147.8 30.9 148.5 30.8 149 30.7Z" fill="#1C1C1C"/>
<path d="M154.1 9.6C153.6 9.7 153.2 10.1 153.2 10.6C153.2 16.4 153.2 22.2 153.2 28C153.2 28.7 153.3 29.3 153.5 29.8C154.1 30.8 155.5 30.9 156.5 30.9C157.1 30.9 157.8 30.8 158.3 30.7C158.8 30.6 159.2 30.2 159.2 29.7C159.2 27.8 159.2 25.9 159.2 24.1C159.2 23.6 159.6 23.2 160.2 23.2H165C165.5 23.2 165.9 23.6 166 24.1C166 24.7 166 25.3 166 25.9C166 26.6 166 27.4 166 28.1C166 28.8 166.1 29.4 166.3 29.9C166.9 30.9 168.3 31 169.3 31C169.9 31 170.6 30.9 171.1 30.8C171.6 30.7 172 30.3 172 29.8C172 27.4 172 25 172 22.7C172 19.3 172 15.9 172 12.5C172 11.8 171.9 11.2 171.7 10.7C171.1 9.7 169.7 9.6 168.7 9.6C168.1 9.6 167.4 9.7 166.9 9.8C166.4 9.9 166 10.3 166 10.8C166 12.6 166 14.5 166 16.3V16.4C166 16.9 165.6 17.4 165 17.4H160.2C159.7 17.4 159.2 17 159.2 16.4V12.6C159.2 11.9 159.1 11.3 158.9 10.8C158.3 9.8 156.9 9.7 155.9 9.7C155.3 9.4 154.6 9.5 154.1 9.6Z" fill="#1C1C1C"/>
<path fill-rule="evenodd" clip-rule="evenodd" d="M110.6 12.3C112.6 10.3 115.4 9 118.5 9C121.6 9 124.3 10.2 126.4 12.3C128.4 14.3 129.7 17.1 129.7 20.2C129.7 23.3 128.5 26 126.4 28.1C124.4 30.1 121.6 31.4 118.5 31.4C115.4 31.4 112.7 30.2 110.6 28.1C108.6 26.1 107.3 23.3 107.3 20.2C107.3 17.1 108.5 14.3 110.6 12.3ZM122.1 23.8C123 22.9 123.6 21.6 123.6 20.2C123.6 18.8 123 17.5 122.1 16.6C121.2 15.7 119.9 15.1 118.5 15.1C117.1 15.1 115.8 15.7 114.9 16.6C114 17.5 113.4 18.8 113.4 20.2C113.4 21.6 114 22.9 114.9 23.8C115.8 24.7 117.1 25.3 118.5 25.3C119.8 25.3 121.1 24.7 122.1 23.8Z" fill="#1C1C1C"/>
<path d="M62.5 30.5C61.1 31 59.6 31.3 58.3 31.3H58C54.9 31.3 52 30.2 49.9 28.2C47.8 26.3 46.5 23.6 46.5 20.4V20.2C46.5 17.5 47.4 15.1 49 13.1C50.6 11.2 52.8 9.8 55.4 9.3C56.2 9.1 57.2 9.1 58.2 9.1C59.2 9.1 60.3 9.2 61.2 9.4C61.9 9.5 62.5 9.8 63 10.1C63.6 10.5 64.1 10.9 64.5 11.5C64.8 12 64.9 12.7 64.8 13.4C64.7 13.7 64.6 14.1 64.4 14.4C63.7 15.3 63.3 15.8 62.8 15.9C62.3 16 61.8 15.9 61.1 15.6C60.2 15.3 59.3 15 58.4 14.9C57.5 14.8 56.5 14.9 55.6 15.3C54.6 15.7 53.8 16.4 53.3 17.2C52.7 18 52.4 19 52.4 20.1C52.4 21.6 52.9 22.8 53.8 23.7C54.7 24.6 56.1 25.2 57.6 25.3C58.3 25.3 59.2 25.2 60 25C60.9 24.8 61.7 24.4 62.3 24C62.6 23.8 62.9 23.7 63.3 23.7C63.7 23.7 64.1 24 64.6 24.4C65.2 25 65.5 25.7 65.5 26.4C65.6 27.1 65.4 27.8 64.9 28.5C64.5 29.4 63.5 30.1 62.5 30.5Z" fill="#1C1C1C"/>
<path d="M235.4 15.7C235.7 16.3 236.3 16.3 236.6 15.8C236.6 15.7 239.4 10.3 239.4 10.3C239.6 10 239.8 9.7 240 9.6C240.2 9.4 240.4 9.4 240.7 9.3C241.8 9.2 242.8 9.2 243.5 9.6C245.1 10.3 245.4 12.1 244.6 13.5L236.5 29.1C235.8 30.4 234.1 30.9 232.7 30.9C231.4 30.9 230.2 30.4 230 29C229.9 28.6 230.1 28.4 230.3 27.9L232.2 24.1C232.4 23.8 232.4 23.2 232.2 22.9L226.6 12C226.3 11.5 226.3 11.1 226.5 10.8C227.1 9.6 229.4 9.2 230.5 9.4C231.4 9.6 232.3 10.1 232.8 11L235.4 15.7Z" fill="#1C1C1C"/>
<path d="M79.8 10.9C79.2 12.1 77.4 15.5 77.2 15.9H77.3V16C77.2 16.2 77.1 16.3 76.9 16.4C76.8 16.4 76.7 16.5 76.7 16.5C76.6 16.5 76.5 16.5 76.5 16.4C76.4 16.3 76.3 16.2 76.2 16L73.8 11.3C73.8 11.2 73.7 11.2 73.7 11.1C73.2 10.2 72.3 9.7 71.4 9.5C70.5 9.3 69.4 9.5 68.6 9.9C68.5 9.9 68.4 10 68.4 10C68 10.3 67.6 10.5 67.5 10.9C67.3 11.2 67.4 11.6 67.6 12.1L73 23C73.1 23.2 73.2 23.4 73.2 23.6C73.2 23.8 73.2 24 73.1 24.2L71.2 28C70.9 28.5 70.8 28.8 70.9 29.1C71 29.7 71.3 30.2 71.7 30.5C72.2 30.8 72.9 31 73.6 31C74.4 31 75.2 30.9 76 30.5C76.6 30.2 77.1 29.8 77.4 29.2C78 28.1 79.8 24.5 81.6 21C83.6 17.2 85.4 13.6 85.4 13.6C85.7 12.8 85.9 12.1 85.8 11.5C85.7 11.1 85.6 10.7 85.3 10.4C85.1 10.1 84.7 9.9 84.3 9.7C83.6 9.4 82.6 9.3 81.5 9.4C81.2 9.4 81 9.5 80.8 9.7C80.6 9.9 80.4 10.1 80.2 10.4C80.2 10.4 80.2 10.4 80.1 10.5C80 10.6 79.9 10.7 79.8 10.9Z" fill="#1C1C1C"/>
</g>
</svg>
