<svg width="141" height="24" viewBox="0 0 141 24" fill="none" xmlns="http://www.w3.org/2000/svg">
<mask id="mask0_4998_1382" style="mask-type:luminance" maskUnits="userSpaceOnUse" x="0" y="0" width="141" height="24">
<path d="M141 0H0.5V23.2829H141V0Z" fill="white"/>
</mask>
<g mask="url(#mask0_4998_1382)">
<path d="M118.635 15.6557C118.635 14.3941 117.602 13.3618 116.341 13.3618C115.079 13.3618 114.047 14.3941 114.047 15.6557C114.047 16.9173 115.079 17.9496 116.341 17.9496C117.602 17.9496 118.635 16.9173 118.635 15.6557Z" fill="#E0E0E0"/>
<path fill-rule="evenodd" clip-rule="evenodd" d="M3.61129 7.42485C3.61129 7.37672 3.56361 7.28044 3.56361 7.2323C3.3729 6.46209 2.7054 6.8472 2.56237 6.31768C2.37166 5.54747 4.46949 5.40305 5.04163 5.30678C6.42429 4.96981 8.33141 4.10332 10.3339 3.5738C12.3364 3.04428 14.3865 2.80359 15.7692 2.41849C16.2937 2.22593 18.2008 1.26317 18.4392 1.98524C18.5822 2.51476 17.8194 2.51476 18.0577 3.28497C18.3438 4.34401 19.1543 5.64374 19.5358 7.08789C20.0125 8.77272 20.0602 10.6501 20.3463 11.7573C20.4416 12.0943 20.6324 12.2868 20.7754 12.3831C21.2522 12.6719 21.2998 13.2977 20.7277 13.4903C20.4416 13.5865 20.0125 13.731 19.4881 13.6828C19.2497 13.6828 19.1543 13.5865 19.1067 13.3458C19.0113 12.5756 18.8683 11.5166 18.6299 10.6501C18.4392 9.8799 17.9624 8.62831 17.5333 7.90624C17.2949 7.52113 17.0088 7.03975 17.2472 6.75092C17.6763 6.2214 17.5333 5.40305 17.1042 4.92167C16.6274 4.39215 15.8645 4.39215 15.0063 4.63284C14.6249 4.72912 14.1958 4.92167 13.8621 5.01795C13.6714 5.06608 13.5283 5.16236 13.4806 5.16236C12.9085 5.35491 12.0503 5.49933 11.1444 5.64374C10.1909 5.8363 9.14194 6.02885 8.04535 6.31768C6.94875 6.60651 5.94751 6.99161 5.04163 7.32858C4.75556 7.42485 4.46949 7.52113 4.18342 7.61741C4.18342 7.71368 3.70664 7.8581 3.61129 7.42485ZM11.4782 19.1706C9.52337 19.6038 7.47321 19.7964 6.09055 20.1815C5.08931 20.4222 4.75556 21.048 4.2311 21.1924C3.65896 21.3368 3.42057 20.8554 3.65896 20.374C3.75432 20.1815 3.802 19.9408 3.70664 19.6038C3.46825 18.641 2.56237 17.7264 1.89487 15.2232C1.22738 12.6719 1.75184 12.0461 1.51345 11.1315C1.32274 10.3613 0.655245 10.7464 0.512211 10.2169C0.321499 9.44666 2.41933 9.30224 2.99147 9.20597C4.80324 8.72458 6.47197 7.95437 8.28374 7.47299C10.0955 6.99161 11.9549 6.8472 13.719 6.31768C14.2435 6.17326 16.1506 5.2105 16.3413 5.98071C16.4844 6.51023 15.7215 6.51023 15.9599 7.28044C16.1983 8.19506 16.9611 8.53203 17.6763 11.0352C18.3438 13.5384 18.0577 14.79 18.2961 15.7528C18.3915 16.0897 18.5822 16.2823 18.7252 16.3786C19.202 16.6674 19.2497 17.245 18.6776 17.3895C18.2008 17.5339 17.581 17.1488 16.5797 17.4376C15.2447 17.7264 13.3853 18.5929 11.4782 19.1706ZM14.768 8.91714C16.3413 11.3722 15.4831 14.6937 14.9587 16.0416C14.9587 16.0897 14.911 16.1379 15.054 16.0897C17.0088 15.3677 17.0088 10.7945 14.8156 8.82086C14.8633 8.869 14.6726 8.77272 14.768 8.91714Z" fill="#E0E0E0"/>
<path fill-rule="evenodd" clip-rule="evenodd" d="M100.742 11.584C100.742 8.08585 103.61 5.21851 107.108 5.21851C110.606 5.21851 113.473 8.08585 113.473 11.584C113.473 15.0822 110.606 17.9495 107.108 17.9495C103.552 17.9495 100.742 15.0822 100.742 11.584ZM107.108 14.5087C108.713 14.5087 110.032 13.1897 110.032 11.584C110.032 9.92095 108.713 8.65932 107.108 8.65932C105.502 8.65932 104.183 9.9783 104.183 11.584C104.126 13.1897 105.445 14.5087 107.108 14.5087Z" fill="#E0E0E0"/>
<path fill-rule="evenodd" clip-rule="evenodd" d="M123.107 17.6055C123.394 17.5481 123.623 17.3187 123.623 17.032V15.7704C123.623 15.4836 123.853 15.2542 124.197 15.2542C126.548 15.2542 128.211 14.4514 129.129 13.2471C130.104 11.9281 130.218 10.093 129.76 8.54465C129.301 7.16832 128.269 6.07873 126.778 5.61995C125.975 5.39056 124.942 5.27587 123.91 5.33322C122.878 5.39056 121.846 5.50526 121.043 5.79199C120.813 5.84934 120.584 5.96403 120.412 6.13607C120.24 6.30812 120.183 6.48016 120.183 6.76689V7.68444C120.183 10.4371 120.183 13.2471 120.183 15.9997C120.183 16.4012 120.24 16.7453 120.355 17.032C120.699 17.6055 121.502 17.6628 122.075 17.6628C122.476 17.7202 122.821 17.6628 123.107 17.6055ZM124.197 12.0428C123.91 12.0428 123.623 11.8134 123.623 11.5267V9.06077C123.623 8.83138 123.91 8.60199 124.14 8.60199C124.254 8.54465 124.541 8.54465 124.77 8.54465C125.516 8.54465 126.089 8.71669 126.548 9.40485C126.892 9.97832 126.835 10.6665 126.491 11.1826C126.089 11.7561 125.459 11.9281 124.828 11.9855C124.598 12.0428 124.426 12.0428 124.197 12.0428Z" fill="#E0E0E0"/>
<path d="M54.0618 8.6594C54.2912 8.6594 54.4632 8.83144 54.4632 9.06083C54.4632 11.4121 54.4632 16.0572 54.4632 16.0572C54.4632 16.4586 54.5206 16.8027 54.6353 17.0894C54.9794 17.6629 55.7822 17.7202 56.3557 17.7202C56.6998 17.7202 57.1012 17.6629 57.3879 17.6055C57.6747 17.5482 57.904 17.3188 57.904 17.0321V9.06083C57.904 8.83144 58.0761 8.6594 58.3055 8.6594H60.0259C60.5994 8.6594 61.0008 8.43001 61.1728 8.08593C61.4022 7.74185 61.4596 7.22573 61.4022 6.7096C61.3449 6.25083 61.2302 5.39062 60.6567 5.39062H52.2841C51.94 5.39062 51.7106 5.44797 51.5385 5.62001C51.0798 5.96409 50.9651 6.88165 51.0224 7.39777C51.0798 7.91389 51.1945 8.71675 51.8826 8.71675H54.0618V8.6594Z" fill="#E0E0E0"/>
<path d="M85.9472 17.6055C86.234 17.5482 86.4633 17.3188 86.4633 17.0321C86.4633 16.1145 86.4633 15.197 86.4633 14.2794C86.4633 11.8708 86.4633 9.46226 86.4633 7.05369C86.4633 6.65226 86.406 6.30818 86.2913 6.02144C85.9472 5.44797 85.1444 5.39062 84.5709 5.39062C84.2268 5.39062 83.8254 5.44797 83.5387 5.50532C83.2519 5.56267 83.0225 5.79205 83.0225 6.07879C83.0225 7.05369 83.0225 8.08593 83.0225 9.06083C83.0225 9.92103 82.2197 10.4372 81.3595 10.4372C80.5566 10.4372 79.6391 9.97838 79.6391 9.06083C79.6391 8.77409 79.6391 8.54471 79.6391 8.25797C79.6391 7.85654 79.6391 7.45511 79.6391 7.05369C79.6391 6.65226 79.5817 6.30818 79.467 6.02144C79.1229 5.44797 78.3201 5.39062 77.7466 5.39062C77.4025 5.39062 77.0011 5.44797 76.7144 5.50532C76.4276 5.56267 76.1982 5.79205 76.1982 6.07879C76.1982 7.34042 76.1982 8.54471 76.1982 9.80634C76.1982 11.1253 76.8291 12.2149 77.8613 12.9604C78.7215 13.5912 79.8111 13.9353 80.9007 13.9353C81.4168 13.9353 81.9903 13.8206 82.5064 13.7059C82.5638 13.7059 82.6784 13.7059 82.7358 13.7059C82.9078 13.7633 83.0225 13.878 83.0225 14.05C83.0225 14.7382 83.0225 15.369 83.0225 16.0572C83.0225 16.4586 83.0799 16.8027 83.1946 17.0894C83.5386 17.6629 84.3415 17.7202 84.915 17.7202C85.2591 17.7202 85.6605 17.6629 85.9472 17.6055Z" fill="#E0E0E0"/>
<path d="M88.8716 5.50535C88.5849 5.56269 88.3555 5.79208 88.3555 6.07881C88.3555 9.40494 88.3555 12.7311 88.3555 16.0572C88.3555 16.4586 88.4128 16.8027 88.5275 17.0894C88.8716 17.6629 89.6745 17.7202 90.2479 17.7202C90.592 17.7202 90.9934 17.6629 91.2802 17.6055C91.5669 17.5482 91.7963 17.3188 91.7963 17.0321C91.7963 15.9425 91.7963 14.8529 91.7963 13.8207C91.7963 13.5339 92.0257 13.3045 92.3698 13.3045H95.1224C95.4091 13.3045 95.6385 13.5339 95.6959 13.8207C95.6959 14.1647 95.6959 14.5088 95.6959 14.8529C95.6959 15.2543 95.6959 15.7131 95.6959 16.1145C95.6959 16.516 95.7532 16.86 95.8679 17.1468C96.212 17.7202 97.0149 17.7776 97.5883 17.7776C97.9324 17.7776 98.3338 17.7202 98.6206 17.6629C98.9073 17.6055 99.1367 17.3762 99.1367 17.0894C99.1367 15.7131 99.1367 14.3368 99.1367 13.0178C99.1367 11.068 99.1367 9.1182 99.1367 7.16841C99.1367 6.76698 99.0793 6.4229 98.9647 6.13616C98.6206 5.56269 97.8177 5.50535 97.2442 5.50535C96.9002 5.50535 96.4987 5.56269 96.212 5.62004C95.9253 5.67739 95.6959 5.90677 95.6959 6.19351C95.6959 7.22575 95.6959 8.31535 95.6959 9.34759V9.40494C95.6959 9.69167 95.4665 9.97841 95.1224 9.97841H92.3698C92.083 9.97841 91.7963 9.74902 91.7963 9.40494V7.22575C91.7963 6.82432 91.7389 6.48024 91.6242 6.19351C91.2802 5.62004 90.4773 5.56269 89.9038 5.56269C89.5598 5.39065 89.1583 5.448 88.8716 5.50535Z" fill="#E0E0E0"/>
<path fill-rule="evenodd" clip-rule="evenodd" d="M63.9256 7.05383C65.0726 5.90689 66.6783 5.16138 68.4561 5.16138C70.2338 5.16138 71.7822 5.84954 72.9865 7.05383C74.1334 8.20076 74.8789 9.80648 74.8789 11.5842C74.8789 13.362 74.1907 14.9104 72.9865 16.1146C71.8395 17.2616 70.2338 18.0071 68.4561 18.0071C66.6783 18.0071 65.1299 17.3189 63.9256 16.1146C62.7787 14.9677 62.0332 13.362 62.0332 11.5842C62.0332 9.80648 62.7214 8.20076 63.9256 7.05383ZM70.5205 13.6487C71.0367 13.1326 71.3808 12.3871 71.3808 11.5842C71.3808 10.7814 71.0367 10.0359 70.5205 9.51974C70.0044 9.00362 69.2589 8.65954 68.4561 8.65954C67.6532 8.65954 66.9077 9.00362 66.3916 9.51974C65.8754 10.0359 65.5314 10.7814 65.5314 11.5842C65.5314 12.3871 65.8754 13.1326 66.3916 13.6487C66.9077 14.1648 67.6532 14.5089 68.4561 14.5089C69.2016 14.5089 69.9471 14.1648 70.5205 13.6487Z" fill="#E0E0E0"/>
<path d="M36.3415 17.4908C35.5387 17.7775 34.6785 17.9495 33.933 17.9495H33.7609C31.9832 17.9495 30.3201 17.3187 29.1158 16.1718C27.9115 15.0822 27.166 13.5338 27.166 11.6987V11.584C27.166 10.0356 27.6821 8.65932 28.5997 7.51238C29.5172 6.42279 30.7789 5.61993 32.2699 5.3332C32.7287 5.21851 33.3021 5.21851 33.8756 5.21851C34.4491 5.21851 35.0799 5.27585 35.596 5.39055C35.9974 5.44789 36.3415 5.61993 36.6283 5.79198C36.9723 6.02136 37.2591 6.25075 37.4885 6.59483C37.6605 6.88157 37.7179 7.283 37.6605 7.68442C37.6032 7.85646 37.5458 8.08585 37.4311 8.25789C37.0297 8.77402 36.8003 9.06075 36.5136 9.1181C36.2268 9.17544 35.9401 9.1181 35.5387 8.94606C35.0225 8.77402 34.5064 8.60198 33.9903 8.54463C33.4742 8.48728 32.9007 8.54463 32.3846 8.77402C31.8111 9.0034 31.3523 9.40483 31.0656 9.86361C30.7215 10.3224 30.5495 10.8959 30.5495 11.5267C30.5495 12.3869 30.8362 13.075 31.3523 13.5912C31.8685 14.1073 32.6713 14.4514 33.5315 14.5087C33.933 14.5087 34.4491 14.4514 34.9079 14.3367C35.424 14.222 35.8828 13.9926 36.2268 13.7632C36.3989 13.6485 36.5709 13.5912 36.8003 13.5912C37.0297 13.5912 37.2591 13.7632 37.5458 13.9926C37.8899 14.3367 38.0619 14.7381 38.0619 15.1395C38.1193 15.541 38.0046 15.9424 37.7179 16.3438C37.4885 16.8599 36.915 17.2614 36.3415 17.4908Z" fill="#E0E0E0"/>
<path d="M135.494 9.00358C135.666 9.34766 136.01 9.34766 136.183 9.06092C136.183 9.00358 137.788 5.90684 137.788 5.90684C137.903 5.7348 138.018 5.56276 138.132 5.50541C138.247 5.39072 138.362 5.39072 138.534 5.33337C139.165 5.27603 139.738 5.27603 140.139 5.50541C141.057 5.90684 141.229 6.93909 140.77 7.74194L136.125 16.6881C135.724 17.4336 134.749 17.7203 133.946 17.7203C133.2 17.7203 132.512 17.4336 132.398 16.6307C132.34 16.4013 132.455 16.2866 132.57 15.9999L133.659 13.8207C133.774 13.6487 133.774 13.3046 133.659 13.1326L130.448 6.88174C130.276 6.59501 130.276 6.36562 130.39 6.19358C130.735 5.50541 132.054 5.27603 132.684 5.39072C133.2 5.50541 133.717 5.79215 134.003 6.30827L135.494 9.00358Z" fill="#E0E0E0"/>
<path d="M46.2627 6.25085C45.9186 6.93901 44.8863 8.88881 44.7717 9.1182H44.829V9.17554C44.7717 9.29024 44.7143 9.34758 44.5996 9.40493C44.5423 9.40493 44.4849 9.46228 44.4849 9.46228C44.4276 9.46228 44.3702 9.46228 44.3702 9.40493C44.3129 9.34758 44.2555 9.29024 44.1982 9.17554L42.8219 6.48024C42.8219 6.42289 42.7645 6.42289 42.7645 6.36554C42.4778 5.84942 41.9617 5.56269 41.4455 5.44799C40.9294 5.3333 40.2986 5.44799 39.8398 5.67738C39.7825 5.67738 39.7251 5.73473 39.7251 5.73473C39.4957 5.90677 39.2663 6.02146 39.209 6.25085C39.0943 6.42289 39.1517 6.65228 39.2663 6.93901L42.3631 13.1898C42.4204 13.3045 42.4778 13.4192 42.4778 13.5339C42.4778 13.6486 42.4778 13.7633 42.4204 13.878L41.3308 16.0572C41.1588 16.3439 41.1015 16.516 41.1588 16.688C41.2161 17.0321 41.3882 17.3188 41.6176 17.4909C41.9043 17.6629 42.3057 17.7776 42.7072 17.7776C43.1659 17.7776 43.6247 17.7202 44.0835 17.4909C44.4276 17.3188 44.7143 17.0894 44.8863 16.7453C45.2304 16.1145 46.2627 14.05 47.2949 12.0429C48.4419 9.86371 49.4741 7.79922 49.4741 7.79922C49.6461 7.34044 49.7608 6.93901 49.7035 6.59493C49.6461 6.36554 49.5888 6.13616 49.4168 5.96412C49.3021 5.79207 49.0727 5.67738 48.8433 5.56269C48.4419 5.39065 47.8684 5.3333 47.2376 5.39065C47.0655 5.39065 46.9508 5.44799 46.8361 5.56269C46.7215 5.67738 46.6068 5.79207 46.4921 5.96412C46.4921 5.96412 46.4921 5.96411 46.4347 6.02146C46.3774 6.07881 46.32 6.13616 46.2627 6.25085Z" fill="#E0E0E0"/>
</g>
</svg>
