<svg width="16" height="9" viewBox="0 0 16 9" fill="none" xmlns="http://www.w3.org/2000/svg">
<path d="M15.6306 0.844856C15.5116 0.72856 15.3517 0.663452 15.1853 0.663452C15.0189 0.663452 14.859 0.72856 14.74 0.844856L8.07462 7.34219L1.41063 0.844856C1.29156 0.728559 1.13173 0.663452 0.965292 0.663451C0.798856 0.663451 0.639022 0.728559 0.519958 0.844856C0.4619 0.901384 0.415755 0.96897 0.384246 1.04362C0.352738 1.11828 0.336506 1.19849 0.336506 1.27952C0.336506 1.36055 0.352738 1.44076 0.384246 1.51542C0.415755 1.59007 0.4619 1.65766 0.519958 1.71419L7.60929 8.62352C7.73379 8.74487 7.90077 8.81279 8.07462 8.81279C8.24848 8.81279 8.41546 8.74487 8.53996 8.62352L15.6293 1.71419C15.6873 1.65766 15.7335 1.59008 15.765 1.51542C15.7965 1.44077 15.8127 1.36055 15.8127 1.27952C15.8127 1.19849 15.7965 1.11828 15.765 1.04363C15.7335 0.968971 15.6873 0.901384 15.6293 0.844856L15.6306 0.844856Z" fill="#6A6A6A"/>
</svg>
