<?xml version="1.0" encoding="utf-8"?>
<!-- Generator: Adobe Illustrator 24.1.1, SVG Export Plug-In . SVG Version: 6.00 Build 0)  -->
<svg version="1.1" id="Слой_1" xmlns="http://www.w3.org/2000/svg" xmlns:xlink="http://www.w3.org/1999/xlink" x="0px" y="0px"
	 viewBox="0 0 23 23" style="enable-background:new 0 0 23 23;" xml:space="preserve">
<style type="text/css">
	.st0{fill:none;stroke:#808080;stroke-width:0.7;stroke-linecap:round;stroke-linejoin:round;}
</style>
<path class="st0" d="M7.4,19.1l0-2c1.3-0.9,2.7-2.4,4.4-3.8l3.7,6.4c0.1,0.1,0.3,0.2,0.4,0.1c0,0,0.1,0,0.1-0.1l0.4-0.5
	c0.2-0.3,0.3-0.6,0.3-1l-0.2-1.5c0.2-0.1,0.3-0.3,0.3-0.3c0.4-0.4,0.8-0.9,0.5-1.2c-0.2-0.2-0.7-0.3-1.1-0.1l-0.2-1.6
	c0.2-0.2,0.4-0.4,0.5-0.4c0.4-0.4,0.8-0.9,0.5-1.2c-0.2-0.2-0.8-0.2-1.2,0l-0.3-2.1c0.6-0.6,1.2-1.1,1.3-1.3c1.6-1.6,3.4-4,2.5-4.9
	c-0.9-0.9-3.3,0.9-4.9,2.5c-0.2,0.2-0.7,0.7-1.3,1.3l-2.1-0.3c0.2-0.4,0.2-1,0-1.2c-0.3-0.3-0.8,0.1-1.2,0.5C9.6,6.7,9.5,6.8,9.3,7
	L7.7,6.7c0.2-0.3,0.1-0.9-0.1-1.1C7.4,5.4,6.8,5.8,6.4,6.2c0,0-0.2,0.2-0.3,0.3L4.6,6.3c-0.4-0.1-0.7,0.1-1,0.3L3.2,6.9
	C3.1,7.1,3,7.2,3.1,7.4c0,0,0.1,0.1,0.1,0.1l6.4,3.7c-1.4,1.6-3,3.1-3.8,4.4l-2,0c-0.2,0-0.5,0-0.7,0.2l-0.5,0.4
	c-0.1,0.1-0.1,0.3,0,0.4c0,0,0.1,0.1,0.1,0.1L5,17.8l1.2,2.3c0.1,0.2,0.4,0.2,0.5,0l0.4-0.5C7.4,19.5,7.4,19.3,7.4,19.1L7.4,19.1z"
	/>
</svg>
