<?xml version="1.0" encoding="utf-8"?>
<!-- Generator: Adobe Illustrator 24.1.1, SVG Export Plug-In . SVG Version: 6.00 Build 0)  -->
<svg version="1.1" id="Слой_1" xmlns="http://www.w3.org/2000/svg" xmlns:xlink="http://www.w3.org/1999/xlink" x="0px" y="0px"
	 viewBox="0 0 23 23" style="enable-background:new 0 0 23 23;" xml:space="preserve">
<style type="text/css">
	.st0{fill:none;stroke:#808080;stroke-width:0.7;stroke-linejoin:round;}
	.st1{fill:none;stroke:#808080;stroke-width:0.7;stroke-linecap:round;}
	.st2{fill:none;stroke:#808080;stroke-width:0.7;stroke-linecap:round;stroke-linejoin:round;}
</style>
<g>
	<g>
		<path class="st0" d="M5.7,20.6V2.2h10.4v18.6"/>
		<path class="st1" d="M8.4,9.6h1.1 M8.4,6.9h1.1 M8.4,4.2h1.1"/>
		<g>
			<path class="st2" d="M2.8,20.7v-8.5H4"/>
			<path class="st1" d="M2.8,14.7h1.1 M3,17.2H4"/>
		</g>
		<g>
			<path class="st2" d="M20.5,20.7V7h-2.7"/>
			<path class="st1" d="M20.4,12.2h-2.7 M20.4,9.6h-2.7 M20.4,14.7h-2.7 M20.4,17.2h-2.7"/>
		</g>
		<path class="st1" d="M11.7,9.6H16 M11.7,6.9H16 M11.7,4.2H16 M11.7,12.2H16 M11.7,14.7H16 M11.7,17.2H16 M8.4,12.2h1.1 M8.4,14.7
			h1.1 M8.4,17.3h1.1"/>
	</g>
	<path class="st1" d="M1.7,21h19.7"/>
</g>
</svg>
