<?xml version="1.0" encoding="utf-8"?>
<!-- Generator: Adobe Illustrator 24.1.1, SVG Export Plug-In . SVG Version: 6.00 Build 0)  -->
<svg version="1.1" id="Слой_1" xmlns="http://www.w3.org/2000/svg" xmlns:xlink="http://www.w3.org/1999/xlink" x="0px" y="0px"
	 viewBox="0 0 23 23" style="enable-background:new 0 0 23 23;" xml:space="preserve">
<style type="text/css">
	.st0{fill:none;stroke:#808080;stroke-width:0.7;stroke-linejoin:round;}
	.st1{fill:none;stroke:#808080;stroke-width:0.7;stroke-linecap:round;}
	.st2{fill:none;stroke:#808080;stroke-width:0.7;}
</style>
<g>
	<g>
		<path class="st0" d="M3.1,19.5V5.8h10.4v13.8"/>
		<path class="st1" d="M5.8,8.4h1.1 M9.1,8.4h4.3 M9.1,10.9h4.3 M9.1,13.5h4.3 M9.1,15.9h4.3 M5.8,10.9h1.1 M5.8,13.5h1.1 M5.8,16.1
			h1.1"/>
	</g>
	<path class="st1" d="M1.7,19.8h19.7"/>
	<g>
		<path class="st2" d="M16.5,12.1v-0.3c0-1,0.8-1.9,1.9-1.9s1.9,0.8,1.9,1.9v7.6"/>
		<path class="st2" d="M17.9,12.9c0-0.6-0.6-1.1-1.2-1.1s-1.2,0.5-1.2,1.1S17.9,13.5,17.9,12.9z"/>
	</g>
</g>
</svg>
