<?xml version="1.0" encoding="utf-8"?>
<!-- Generator: Adobe Illustrator 24.1.1, SVG Export Plug-In . SVG Version: 6.00 Build 0)  -->
<svg version="1.1" id="Слой_1" xmlns="http://www.w3.org/2000/svg" xmlns:xlink="http://www.w3.org/1999/xlink" x="0px" y="0px"
	 viewBox="0 0 23 23" style="enable-background:new 0 0 23 23;" xml:space="preserve">
<style type="text/css">
	.st0{fill:#808080;}
	.st1{fill:none;stroke:#808080;stroke-width:0.7;stroke-linecap:round;stroke-linejoin:round;}
</style>
<g>
	<g id="XMLID_1_">
		<g>
			<polygon class="st0" points="14.3,5.8 14.2,6.1 8.6,6.1 8.5,5.8 			"/>
			<path class="st0" d="M14.2,6.1l-0.3,1c-0.1,0.3-0.4,0.6-0.7,0.6H9.6C9.3,7.7,9,7.5,8.9,7.2l-0.3-1H14.2z"/>
			<path class="st0" d="M13.7,14.1c0.5,0,0.9,0.4,0.9,0.9c0,0.5-0.4,0.9-0.9,0.9c-0.5,0-0.9-0.4-0.9-0.9
				C12.9,14.5,13.3,14.1,13.7,14.1z"/>
			<path class="st0" d="M9.1,14.2c0.5,0,0.9,0.4,0.9,0.9c0,0.5-0.4,0.9-0.9,0.9c-0.5,0-0.9-0.4-0.9-0.9C8.2,14.5,8.6,14.2,9.1,14.2z
				"/>
		</g>
		<g>
			<line class="st1" x1="7.8" y1="18.2" x2="7.8" y2="20"/>
			<line class="st1" x1="15.1" y1="18.2" x2="15.1" y2="20"/>
			<path class="st1" d="M15.9,7.1c-0.4-0.6-1-0.9-1.6-0.9h-0.1H8.6H8.4c-0.6,0-1.3,0.4-1.7,1.1C6.4,7.5,6.3,8,6.3,8.4v7.5
				c0,1.1,0.8,2,1.8,2h6.5c1,0,1.8-0.9,1.8-2V8.4C16.4,7.9,16.2,7.4,15.9,7.1z"/>
			<polyline class="st1" points="7,7.2 9.6,12.3 13.3,12.3 15.8,7.2 			"/>
			<polyline class="st1" points="4.6,20 7.8,20 15.1,20 18.1,20 			"/>
			<path class="st1" d="M18.1,20c2.1-1.9,3.4-4.7,3.4-7.5c0-5.6-4.5-10.1-10.1-10.1S1.2,6.9,1.2,12.5c0,3,1.3,5.7,3.4,7.5"/>
		</g>
	</g>
</g>
</svg>
