<svg width="16" height="7" viewBox="0 0 16 7" fill="none" xmlns="http://www.w3.org/2000/svg">
<path fill-rule="evenodd" clip-rule="evenodd" d="M0 1.20198C0 0.542249 0.542249 0 1.20198 0C1.87076 0 2.43108 0.542249 2.43108 1.20198C2.43108 1.88883 1.87076 2.41301 1.20198 2.41301C0.542249 2.41301 0 1.88883 0 1.20198ZM2.8653 3.8951C2.8653 5.40436 3.93172 6.44367 5.48617 6.44367H8.05281V0.0722461H6.01938V1.34653H5.48617C3.93172 1.34653 2.8653 2.38584 2.8653 3.8951ZM5.57654 4.70847C5.11563 4.70847 4.76317 4.35601 4.76317 3.8951C4.76317 3.43419 5.11563 3.08173 5.57654 3.08173C6.03745 3.08173 6.38991 3.43419 6.38991 3.8951C6.38991 4.35601 6.03745 4.70847 5.57654 4.70847ZM0.165703 2.81964V6.44367H2.28047V2.81964H0.165703ZM8.7266 6.44367V0.0722461H10.8052V6.44367H8.7266ZM11.3005 3.8951C11.3005 5.40436 12.3308 6.44367 13.831 6.44367H16V4.95249H13.578C13.3249 4.95249 13.1442 4.78077 13.1442 4.53676C13.1442 4.29275 13.3249 4.12104 13.578 4.12104H16V1.34653H13.831C12.3308 1.34653 11.3005 2.38584 11.3005 3.8951ZM13.8943 3.27151C13.6051 3.27151 13.3791 3.05461 13.3791 2.76541C13.3791 2.46718 13.6051 2.25028 13.8943 2.25028C14.1835 2.25028 14.4094 2.46718 14.4094 2.76541C14.4094 3.05461 14.1835 3.27151 13.8943 3.27151Z" fill="#FF385C"/>
</svg>
