<svg width="8" height="14" viewBox="0 0 8 14" fill="none" xmlns="http://www.w3.org/2000/svg">
<g id="ep:arrow-right" clip-path="url(#clip0_5335_1567)">
<path id="Vector" d="M0.372591 0.388603C0.272909 0.492784 0.217102 0.632638 0.217102 0.77827C0.217102 0.923902 0.272909 1.06376 0.372591 1.16794L5.94173 7.0001L0.372591 12.8311C0.272909 12.9353 0.217102 13.0751 0.217102 13.2208C0.217102 13.3664 0.272909 13.5063 0.372591 13.6104C0.421044 13.6612 0.478975 13.7016 0.542965 13.7292C0.606955 13.7568 0.675707 13.771 0.745162 13.771C0.814618 13.771 0.88337 13.7568 0.94736 13.7292C1.01135 13.7016 1.06928 13.6612 1.11773 13.6104L7.04002 7.40727C7.14403 7.29833 7.20225 7.15223 7.20225 7.0001C7.20225 6.84798 7.14403 6.70187 7.04002 6.59294L1.11773 0.38977C1.06928 0.338969 1.01135 0.298592 0.94736 0.271022C0.88337 0.243452 0.814618 0.229248 0.745162 0.229248C0.675707 0.229248 0.606955 0.243452 0.542965 0.271022C0.478975 0.298592 0.421044 0.338969 0.372591 0.38977V0.388603Z" fill="#6A6A6A"/>
</g>
<defs>
<clipPath id="clip0_5335_1567">
<rect width="8" height="14" fill="white"/>
</clipPath>
</defs>
</svg>
