<svg width="47" height="47" viewBox="0 0 47 47" fill="none" xmlns="http://www.w3.org/2000/svg">
<path d="M9.4 0H37.6C42.7914 0 47 4.20862 47 9.4V37.6C47 42.7914 42.7914 47 37.6 47H9.4C4.20862 47 0 42.7914 0 37.6V9.4C0 4.20862 4.20862 0 9.4 0Z" fill="url(#paint0_linear_5848_467)"/>
<path fill-rule="evenodd" clip-rule="evenodd" d="M39.9679 16.1C37.3244 16.1 34.9999 18.4507 34.9999 21.0372V25.9617C34.9999 28.548 37.3244 30.9 39.9679 30.9H41V35.9098C41 39.6406 39.0427 42 35.4139 42H11.3495C7.72025 42 5 39.6408 5 35.9098V30.9H6.79527C9.4388 30.9 11.0001 28.5482 11.0001 25.9617V21.037C11.0001 18.4507 9.4388 16.1 6.79527 16.1H5V11.0888C5 7.35806 7.72025 5 11.3493 5H35.4139C39.0427 5 41 7.35829 41 11.0888V16.1H39.9679ZM32.6001 29.6952V21.0034C32.6001 16.2515 29.2435 12.3998 24.6297 12.3998H22.1324C17.5197 12.3998 13.4001 16.2515 13.4001 21.0034V29.6947C13.4001 34.4481 17.5197 38.2998 22.1324 38.2998H24.6297C29.2435 38.2998 32.6001 34.4483 32.6001 29.6952ZM31.3999 21.1984V29.5012C31.3999 33.6796 28.1995 37.0663 24.2517 37.0663H21.7483C17.8005 37.0663 14.6001 33.6796 14.6001 29.5012V21.1984C14.6001 17.0197 17.8005 13.633 21.7483 13.633H24.2517C28.1995 13.633 31.3999 17.0197 31.3999 21.1984ZM29.0001 25.9614V21.0381C29.0001 18.4504 26.7537 16.0998 24.1088 16.0998H22.6544C20.0095 16.0998 17.0001 18.4504 17.0001 21.0379V25.9612C17.0001 28.5489 20.0095 30.8998 22.6544 30.8998H24.1088C26.7537 30.8998 29.0001 28.5489 29.0001 25.9614ZM23.4687 28.4328C23.4687 28.4328 24.0555 28.4638 24.0555 29.0618C24.0555 29.6563 23.4687 29.6663 23.4687 29.6663H23.3343C20.8407 29.6663 18.1996 28.0098 18.1996 25.3754V23.5266C18.1996 23.5266 18.1947 22.8495 18.7947 22.8495C19.3971 22.8495 19.3995 23.5266 19.3995 23.5266V25.3754C19.3995 27.3327 21.4995 28.4328 23.3343 28.4328H23.4687Z" fill="white"/>
<defs>
<linearGradient id="paint0_linear_5848_467" x1="4700" y1="0" x2="4700" y2="9400" gradientUnits="userSpaceOnUse">
<stop stop-color="#2EA7FF"/>
</linearGradient>
</defs>
</svg>
