<svg width="14" height="13" viewBox="0 0 14 13" fill="none" xmlns="http://www.w3.org/2000/svg">
<path id="Vector" d="M13.6902 5.92918L7.84817 0.317033C7.63811 0.115397 7.34804 0.000821329 7.04456 0C7.04322 0 7.04188 0 7.04054 0C6.7384 0 6.44878 0.112522 6.23827 0.312105L0.315312 5.92425C0.002895 6.22034 -0.0864946 6.65934 0.088262 7.0392C0.263019 7.41907 0.6684 7.66588 1.11714 7.66588H1.45503V11.6522C1.45503 12.3934 2.11517 13 2.92191 13H5.2304C5.47175 13 5.66751 12.8201 5.66751 12.5984V9.63009C5.66751 9.25268 6.00049 8.94674 6.41123 8.94674H7.63766C8.0484 8.94674 8.38138 9.25268 8.38138 9.63009V12.5984C8.38138 12.8201 8.57714 13 8.8185 13H11.1198C11.9069 13 12.5447 12.414 12.5447 11.6908V7.66588H12.8826C13.33 7.66588 13.7345 7.42071 13.9101 7.04249C14.0858 6.66427 13.9995 6.2265 13.6902 5.92959V5.92918Z" fill="white"/>
</svg>
