<svg width="13" height="13" viewBox="0 0 13 13" fill="none" xmlns="http://www.w3.org/2000/svg">
<path id="Vector" d="M13 6.49972C12.9975 10.1206 10.0321 13.0836 6.34043 12.9982C2.87673 12.9177 -0.0574758 10.0754 0.000855037 6.37898C0.0558996 2.89607 2.8755 0.00575789 6.50227 8.47615e-06C10.0917 -0.00574094 13 2.91414 13 6.49972ZM6.49365 6.50629C6.49365 6.55146 6.49365 6.58432 6.49365 6.61717C6.49365 7.61511 6.49365 8.61263 6.49406 9.61056C6.49406 9.6812 6.49735 9.75183 6.50351 9.82206C6.53473 10.183 6.9681 10.4147 7.28481 10.2389C7.48527 10.1276 7.5855 9.95676 7.58509 9.72473C7.58386 8.65164 7.5855 7.57814 7.58263 6.50506C7.58263 6.4028 7.56537 6.29808 7.54032 6.1987C7.43927 5.79911 7.06217 5.464 6.65591 5.42951C6.4078 5.40856 6.15599 5.40528 5.90747 5.41924C5.68195 5.43197 5.5201 5.56133 5.44452 5.77817C5.36606 6.00322 5.42316 6.20157 5.59363 6.36461C5.70331 6.46933 5.84174 6.50506 5.99003 6.50629C6.15476 6.50752 6.31907 6.50629 6.49365 6.50629ZM5.68277 3.5166C5.68236 3.96792 6.05329 4.33999 6.50063 4.33753C6.94633 4.33507 7.31521 3.96464 7.31562 3.51906C7.31562 3.06937 6.94386 2.6973 6.49611 2.70018C6.0459 2.70305 5.68318 3.06732 5.68236 3.5166H5.68277Z" fill="white"/>
</svg>
