<svg width="13" height="13" viewBox="0 0 13 13" fill="none" xmlns="http://www.w3.org/2000/svg">
<g id="Group">
<path id="Vector" d="M4.33353 12.8993V12.7855C4.33353 9.00733 4.33394 5.22914 4.33105 1.45136C4.33105 1.35533 4.36361 1.31988 4.44934 1.29598C5.21883 1.08001 5.98749 0.861159 6.75615 0.641894C7.35666 0.470439 7.95675 0.297336 8.55684 0.125469C8.58775 0.116401 8.61949 0.109395 8.66235 0.0982666C8.66441 0.144428 8.66771 0.179873 8.66771 0.215318C8.66771 3.99681 8.66771 7.7783 8.67101 11.5598C8.67101 11.6604 8.62979 11.69 8.54901 11.7131C7.72595 11.9468 6.9037 12.183 6.08105 12.4175C5.52506 12.5762 4.96906 12.7344 4.41307 12.8923C4.39205 12.898 4.36897 12.8968 4.33435 12.9001L4.33353 12.8993Z" fill="white"/>
<path id="Vector_2" d="M3.61426 12.8745C3.56398 12.8601 3.52977 12.8535 3.49803 12.8407C2.6049 12.4842 1.71218 12.1269 0.81946 11.7695C0.641411 11.6982 0.464186 11.6257 0.286136 11.5548C0.0693445 11.4682 0.000103038 11.3681 0.000103038 11.134C0.000103038 8.42863 0.000103038 5.72327 0.000103038 3.01791C0.000103038 2.14044 -0.000309114 1.26297 0.000515189 0.385496C0.000927341 0.134496 0.210712 -0.0480869 0.436984 0.011263C0.557744 0.0429986 0.672734 0.0974026 0.789373 0.143976C1.69446 0.505433 2.59913 0.868126 3.50545 1.22752C3.58953 1.26091 3.61632 1.30707 3.61632 1.39692C3.61385 5.17841 3.61426 8.95989 3.61426 12.7418C3.61426 12.7805 3.61426 12.8193 3.61426 12.8745Z" fill="white"/>
<path id="Vector_3" d="M9.39334 0.131958C9.43621 0.144323 9.46712 0.150505 9.49556 0.162045C10.5725 0.592331 11.6495 1.02262 12.7256 1.45414C12.9308 1.53657 13.0001 1.64249 13.0001 1.86382C13.0001 5.43964 13.0001 9.01547 13.0001 12.5913C13.0001 12.9177 12.7602 13.0809 12.4581 12.9602C11.4735 12.5666 10.4893 12.1709 9.5038 11.7798C9.41684 11.7451 9.38428 11.7027 9.38428 11.6071C9.38675 7.826 9.38634 4.04492 9.38675 0.263846C9.38675 0.225104 9.39046 0.186362 9.39334 0.13237V0.131958Z" fill="white"/>
</g>
</svg>
