<svg width="16" height="13" viewBox="0 0 16 13" fill="none" xmlns="http://www.w3.org/2000/svg">
<path id="Vector" d="M6.44344 7.85528C6.3868 7.84994 6.34509 7.84336 6.30382 7.84212C5.33569 7.82115 4.36713 7.80224 3.399 7.77798C3.28221 7.7751 3.20538 7.8043 3.1303 7.89146C2.77378 8.30633 2.40278 8.71051 2.04889 9.12702C1.83376 9.3803 1.56461 9.50159 1.22302 9.49707C1.03028 9.4946 0.83753 9.4983 0.644783 9.49707C0.159622 9.4946 -0.0963491 9.17883 0.0336125 8.73806C0.243483 8.02509 0.458622 7.31336 0.666736 6.59999C0.685615 6.53503 0.686494 6.45649 0.667614 6.39153C0.460817 5.67774 0.247434 4.9656 0.037564 4.25264C-0.0941538 3.80447 0.152597 3.49897 0.645222 3.49938C0.871776 3.49938 1.09965 3.4891 1.32401 3.50884C1.62828 3.53557 1.88205 3.66714 2.07831 3.89246C2.42868 4.29458 2.77993 4.69629 3.13688 5.09306C3.17903 5.13994 3.26201 5.18188 3.32568 5.18147C4.32322 5.17406 5.32032 5.15967 6.31743 5.14569C6.35387 5.14528 6.39031 5.13788 6.44476 5.13171C6.42061 5.07456 6.40348 5.02975 6.38241 4.98616C5.70362 3.58532 5.02484 2.18488 4.34605 0.78404C4.13486 0.34697 4.37283 0.00241271 4.88609 0.00159037C5.12714 0.00159037 5.36818 0.00611321 5.60879 0.000356875C5.91525 -0.00704412 6.15849 0.100682 6.35255 0.3223C7.18984 1.27867 8.02932 2.23299 8.86792 3.18813C9.39128 3.78432 9.91596 4.37928 10.4362 4.97794C10.4973 5.04825 10.5636 5.0577 10.6501 5.05565C11.5365 5.03632 12.4225 5.00795 13.309 5.00713C13.8745 5.00672 14.4326 5.08566 14.9634 5.2859C15.2343 5.38828 15.4828 5.52356 15.6808 5.72955C16.1515 6.21966 16.0957 6.94208 15.5526 7.3845C15.1834 7.68506 14.7355 7.8191 14.2679 7.90462C13.5426 8.03743 12.8094 8.00083 12.0774 7.98315C11.5958 7.97164 11.1142 7.95396 10.6325 7.94903C10.564 7.9482 10.4731 7.98809 10.4292 8.03743C9.09228 9.54929 7.76062 11.0657 6.42412 12.5779C6.31831 12.6976 6.19098 12.8049 6.05707 12.8966C5.97979 12.9496 5.87003 12.9821 5.77343 12.9854C5.42702 12.9969 5.0784 13.0105 4.73374 12.9875C4.36186 12.9628 4.16384 12.6034 4.32146 12.2683C4.55856 11.7647 4.80443 11.2651 5.04723 10.7639C5.49639 9.83546 5.94642 8.90704 6.39514 7.97822C6.41226 7.94286 6.42368 7.90503 6.443 7.85528H6.44344Z" fill="white"/>
</svg>
