<svg width="400" height="188" viewBox="0 0 400 188" fill="none" xmlns="http://www.w3.org/2000/svg">
<path fill-rule="evenodd" clip-rule="evenodd" d="M329.551 152.602C339.771 159.751 349.492 165.526 360.145 170.834C371.718 176.6 384.391 181.816 400 187.642H273.466L200.01 82.0335L126.534 187.671H0C15.609 181.844 28.282 176.629 39.8546 170.863C50.5079 165.555 60.2287 159.779 70.4492 152.631C77.5644 147.654 84.9218 142.011 93.0045 135.397L39.7524 136.395C53.482 132.422 69.2547 126.596 83.9324 118.756C91.0541 114.952 97.9181 110.673 104.166 105.901C110.771 100.857 116.687 95.2613 121.49 89.0931H82.1845C92.3572 83.4717 101.172 77.9495 108.933 72.285C130.193 56.7683 143.549 40.1836 155.257 17.5663C158.088 12.0966 160.823 6.27411 163.55 0.0285538L199.99 52.5898L236.45 0C239.177 6.24555 241.912 12.0681 244.743 17.5378C256.451 40.155 269.807 56.7398 291.067 72.2564C298.828 77.9209 307.643 83.4431 317.815 89.0645H278.51C283.313 95.2328 289.229 100.828 295.834 105.873C302.082 110.644 308.946 114.923 316.068 118.727C330.745 126.568 346.518 132.393 360.248 136.366L306.996 135.368C315.078 141.983 322.436 147.625 329.551 152.602ZM284.219 118.131L258.809 117.654L296.351 148.376C307.251 157.296 316.961 164.565 326.489 170.834H282.249L210.24 67.3058L234.015 33.0121C239.993 43.5303 246.64 53.0905 254.595 62.0058C257.762 65.5552 261.1 68.9615 264.636 72.2564H244.115L265.249 99.3921C270.652 106.33 277.12 112.559 284.219 118.131ZM115.781 118.159L141.191 117.683L103.649 148.405C92.7488 157.325 83.0392 164.594 73.5114 170.863H117.751L189.76 67.3343L165.985 33.0406C160.007 43.5589 153.36 53.119 145.405 62.0343C142.238 65.5838 138.9 68.99 135.364 72.285H155.885L134.751 99.4206C129.348 106.358 122.88 112.588 115.781 118.159Z" fill="#FF385C"/>
<path d="M191.9 187.671H210.066V117.925H191.9V187.671Z" fill="#FF385C"/>
</svg>
