<?xml version="1.0" encoding="UTF-8"?>
<svg id="_Слой_1" data-name="Слой 1" xmlns="http://www.w3.org/2000/svg" viewBox="0 0 400 187.67">
  <defs>
    <style>
      .cls-1 {
        fill-rule: evenodd;
      }

      .cls-1, .cls-2 {
        fill: #828282;
      }
    </style>
  </defs>
  <path class="cls-1" d="m329.55,152.6c10.22,7.15,19.94,12.92,30.59,18.23,11.57,5.77,24.25,11.01,39.86,16.84h-126.53l-73.46-105.64-73.48,105.64H0c15.61-5.83,28.28-11.04,39.85-16.81,10.65-5.31,20.37-11.08,30.59-18.23,7.12-4.98,14.47-10.62,22.56-17.23l-53.25,1c13.73-3.97,29.5-9.8,44.18-17.64,7.12-3.8,13.99-8.08,20.23-12.85,6.61-5.04,12.52-10.64,17.32-16.81h-39.31c10.17-5.62,18.99-11.14,26.75-16.81,21.26-15.52,34.62-32.1,46.32-54.72,2.83-5.47,5.57-11.29,8.29-17.54l36.44,52.56L236.45,0c2.73,6.25,5.46,12.07,8.29,17.54,11.71,22.62,25.06,39.2,46.32,54.72,7.76,5.66,16.58,11.19,26.75,16.81h-39.3c4.8,6.17,10.72,11.76,17.32,16.81,6.25,4.77,13.11,9.05,20.23,12.85,14.68,7.84,30.45,13.67,44.18,17.64l-53.25-1c8.08,6.62,15.44,12.26,22.55,17.23Zm-45.33-34.47l-25.41-.48,37.54,30.72c10.9,8.92,20.61,16.19,30.14,22.46h-44.24l-72.01-103.53,23.77-34.29c5.98,10.52,12.62,20.08,20.58,28.99,3.17,3.55,6.51,6.96,10.04,10.25h-20.52l21.13,27.14c5.4,6.94,11.87,13.17,18.97,18.74Zm-168.44.03l25.41-.48-37.54,30.72c-10.9,8.92-20.61,16.19-30.14,22.46h44.24l72.01-103.53-23.77-34.29c-5.98,10.52-12.62,20.08-20.58,28.99-3.17,3.55-6.51,6.96-10.04,10.25h20.52l-21.13,27.14c-5.4,6.94-11.87,13.17-18.97,18.74Z"/>
  <path class="cls-2" d="m191.9,187.67h18.17v-69.75h-18.17v69.75Z"/>
</svg>