<svg width="69" height="63" viewBox="0 0 69 63" fill="none" xmlns="http://www.w3.org/2000/svg">
<g id="Icon 2">
<rect id="Rectangle 34" width="52" height="52" rx="10" fill="#FFCCD5"/>
<g id="Group">
<path id="Vector" d="M29.3014 27.3466H13.938C12.3178 27.3466 11 26.0842 11 24.5321V9.81454C11 8.26237 12.3178 7 13.938 7H29.2998C30.92 7 32.2378 8.26237 32.2378 9.81454V24.5305C32.2378 26.0827 30.92 27.3451 29.2998 27.3451L29.3014 27.3466ZM13.938 8.82072C13.3663 8.82072 12.9006 9.2668 12.9006 9.81454V24.5305C12.9006 25.0783 13.3663 25.5243 13.938 25.5243H29.2998C29.8715 25.5243 30.3372 25.0783 30.3372 24.5305V9.81454C30.3372 9.2668 29.8715 8.82072 29.2998 8.82072H13.938Z" fill="#131313"/>
<path id="Vector_2" d="M29.3014 51.5394H13.938C12.3178 51.5394 11 50.277 11 48.7249V34.0089C11 32.4567 12.3178 31.1943 13.938 31.1943H29.2998C30.92 31.1943 32.2378 32.4567 32.2378 34.0089V48.7249C32.2378 50.277 30.92 51.5394 29.2998 51.5394H29.3014ZM13.938 33.0135C13.3663 33.0135 12.9006 33.4596 12.9006 34.0074V48.7233C12.9006 49.2711 13.3663 49.7172 13.938 49.7172H29.2998C29.8715 49.7172 30.3372 49.2711 30.3372 48.7233V34.0074C30.3372 33.4596 29.8715 33.0135 29.2998 33.0135H13.938Z" fill="#131313"/>
<path id="Vector_3" d="M41.0186 27.3466H39.1434C37.5231 27.3466 36.2053 26.0842 36.2053 24.5321V9.81454C36.2053 8.26237 37.5231 7 39.1434 7H54.5051C55.0293 7 55.4554 7.40815 55.4554 7.91036C55.4554 8.41258 55.0293 8.82072 54.5051 8.82072H39.1434C38.5716 8.82072 38.1059 9.2668 38.1059 9.81454V24.5305C38.1059 25.0783 38.5716 25.5243 39.1434 25.5243H41.0186C41.5429 25.5243 41.9689 25.9325 41.9689 26.4347C41.9689 26.9369 41.5429 27.3451 41.0186 27.3451V27.3466Z" fill="#131313"/>
<path id="Vector_4" d="M54.5051 27.3467H50.6278C50.1035 27.3467 49.6775 26.9385 49.6775 26.4363C49.6775 25.9341 50.1035 25.526 50.6278 25.526H54.5051C55.0768 25.526 55.5425 25.0799 55.5425 24.5321V15.2631C55.5425 14.7609 55.9685 14.3528 56.4928 14.3528C57.017 14.3528 57.4431 14.7609 57.4431 15.2631V24.5321C57.4431 26.0843 56.1253 27.3467 54.5051 27.3467Z" fill="#131313"/>
<path id="Vector_5" d="M46.7062 20.672C46.4655 20.672 46.2263 20.5855 46.041 20.4126L41.2467 15.9123C40.8713 15.5603 40.865 14.9838 41.2324 14.6257C41.5999 14.2661 42.2017 14.2616 42.5771 14.612L46.7046 18.4856L57.7092 8.11964C58.083 7.76764 58.6848 7.77219 59.0539 8.13026C59.4213 8.48834 59.4166 9.0649 59.0428 9.41691L47.373 20.411C47.1877 20.5855 46.9469 20.672 46.7062 20.672Z" fill="#131313"/>
<path id="Vector_6" d="M64.5624 62.5153H54.505C53.9808 62.5153 53.5547 62.1072 53.5547 61.605C53.5547 61.1028 53.9808 60.6946 54.505 60.6946H64.5624C65.9404 60.6946 67.0617 59.6204 67.0617 58.3004V43.2248C67.0617 42.3265 66.2983 41.5952 65.3607 41.5952H64.8285C64.0572 41.5952 63.43 42.1961 63.43 42.935C63.43 43.5965 62.8677 44.1336 62.1787 44.1336C61.6545 44.1336 61.2284 43.7255 61.2284 43.2233V41.049C61.2284 40.1796 60.4904 39.471 59.5828 39.471H59.4244C58.5169 39.471 57.7772 40.1781 57.7772 41.049C57.7772 41.7257 57.2023 42.278 56.4959 42.278C55.7895 42.278 55.2732 41.753 55.2732 41.1067V39.9884C55.2732 39.2055 54.608 38.5683 53.7907 38.5683C52.9734 38.5683 52.3082 39.2055 52.3082 39.9884C52.3082 40.7713 51.6382 41.4207 50.8131 41.4207C50.189 41.4207 49.6806 40.9337 49.6806 40.3359V27.603C49.6806 26.5894 48.8206 25.7655 47.7626 25.7655C46.7046 25.7655 45.8429 26.5894 45.8429 27.603V48.652C45.8429 49.0723 45.542 49.438 45.116 49.5366C44.6883 49.6352 44.248 49.441 44.0469 49.0663L40.5038 42.4343C39.9146 41.3312 38.6174 40.7289 37.3488 40.9671C37.146 41.005 37.0383 41.1309 36.9908 41.2038C36.9449 41.2751 36.8736 41.4253 36.9275 41.6149L39.8085 51.9385C39.9114 52.3072 40.0698 52.6592 40.2805 52.9839L44.2733 59.1409C44.7612 59.5248 46.1122 60.5945 46.4923 60.9799C46.8519 61.3455 46.8344 61.9221 46.4527 62.2665C46.071 62.6109 45.4692 62.5942 45.1096 62.2286C44.8499 61.9646 43.6461 60.9996 42.9477 60.4534C42.8669 60.3896 42.7972 60.3138 42.7418 60.2288L38.6665 53.9443C38.3577 53.4679 38.1233 52.9505 37.9728 52.4088L35.0918 42.0853C34.9176 41.4602 35.0221 40.788 35.3785 40.2403C35.7348 39.6926 36.3193 39.3057 36.9813 39.1812C39.0783 38.7868 41.2229 39.7821 42.1953 41.6043L43.9423 44.874V27.603C43.9423 25.585 45.656 23.9448 47.7626 23.9448C49.8691 23.9448 51.5812 25.5865 51.5812 27.603V37.535C52.1752 37.0434 52.9465 36.746 53.7907 36.746C55.1702 36.746 56.3597 37.5411 56.8855 38.6775C57.5302 38.0433 58.4298 37.6503 59.4244 37.6503H59.5828C61.2633 37.6503 62.6745 38.7761 63.0388 40.2798C63.5551 39.9581 64.1712 39.7715 64.8317 39.7715H65.3639C67.35 39.7715 68.9655 41.3191 68.9655 43.2217V58.2973C68.9655 60.6218 66.9921 62.5123 64.5656 62.5123L64.5624 62.5153Z" fill="#131313"/>
</g>
</g>
</svg>
