<svg width="64" height="62" viewBox="0 0 64 62" fill="none" xmlns="http://www.w3.org/2000/svg">
<g id="Icon 1">
<rect id="Rectangle 36" width="42.68" height="53.7768" rx="12" fill="#E09CEC" fill-opacity="0.46"/>
<g id="Group">
<path id="Vector" d="M47.0504 61.8451H14.2288C11.0896 61.8451 8.53613 59.2975 8.53613 56.1656V13.028C8.53613 9.8961 11.0896 7.34851 14.2288 7.34851H40.5404C41.035 7.34851 41.4369 7.74951 41.4369 8.24292V15.0449C41.4369 16.9456 42.9863 18.4914 44.8913 18.4914H51.8465C52.3411 18.4914 52.743 18.8924 52.743 19.3858V32.8825C52.743 33.3759 52.3411 33.7769 51.8465 33.7769C51.352 33.7769 50.9501 33.3759 50.9501 32.8825V20.2802H44.8913C41.9972 20.2802 39.644 17.9309 39.644 15.0449V9.13734H14.2288C12.0787 9.13734 10.3291 10.8829 10.3291 13.028V56.1656C10.3291 58.3107 12.0787 60.0563 14.2288 60.0563H47.0504C49.2004 60.0563 50.9501 58.3107 50.9501 56.1656V45.9529C50.9501 45.4595 51.352 45.0585 51.8465 45.0585C52.3411 45.0585 52.743 45.4595 52.743 45.9529V56.1656C52.743 59.2975 50.1895 61.8451 47.0504 61.8451Z" fill="#131313"/>
<path id="Vector_2" d="M51.8467 20.2802C51.6196 20.2802 51.391 20.1937 51.2162 20.0223L39.9116 8.87941C39.5589 8.53208 39.5559 7.96562 39.9041 7.61382C40.2522 7.26201 40.82 7.25903 41.1726 7.60636L52.4787 18.7493C52.8313 19.0966 52.8343 19.6631 52.4862 20.0149C52.3113 20.1923 52.0798 20.2802 51.8482 20.2802H51.8467Z" fill="#131313"/>
<path id="Vector_3" d="M20.9776 22.9128H14.0225C13.5279 22.9128 13.126 22.5118 13.126 22.0184V15.0792C13.126 14.5858 13.5279 14.1848 14.0225 14.1848H20.9776C21.4722 14.1848 21.8741 14.5858 21.8741 15.0792V22.0184C21.8741 22.5118 21.4722 22.9128 20.9776 22.9128ZM14.9189 21.124H20.0812V15.9736H14.9189V21.124Z" fill="#131313"/>
<path id="Vector_4" d="M20.9776 48.0607H14.0225C13.5279 48.0607 13.126 47.6598 13.126 47.1663V40.2272C13.126 39.7338 13.5279 39.3328 14.0225 39.3328H20.9776C21.4722 39.3328 21.8741 39.7338 21.8741 40.2272V47.1663C21.8741 47.6598 21.4722 48.0607 20.9776 48.0607ZM14.9189 46.2719H20.0812V41.1216H14.9189V46.2719Z" fill="#131313"/>
<path id="Vector_5" d="M20.9776 35.4867H14.0225C13.5279 35.4867 13.126 35.0857 13.126 34.5922V27.6531C13.126 27.1597 13.5279 26.7587 14.0225 26.7587H20.9776C21.4722 26.7587 21.8741 27.1597 21.8741 27.6531V34.5922C21.8741 35.0857 21.4722 35.4867 20.9776 35.4867ZM14.9189 33.6978H20.0812V28.5475H14.9189V33.6978Z" fill="#131313"/>
<path id="Vector_6" d="M35.9877 17.0678H25.4541C24.9595 17.0678 24.5576 16.6668 24.5576 16.1733C24.5576 15.6799 24.9595 15.2789 25.4541 15.2789H35.9877C36.4823 15.2789 36.8842 15.6799 36.8842 16.1733C36.8842 16.6668 36.4823 17.0678 35.9877 17.0678Z" fill="#131313"/>
<path id="Vector_7" d="M32.4556 21.6605H25.4541C24.9595 21.6605 24.5576 21.2595 24.5576 20.7661C24.5576 20.2727 24.9595 19.8717 25.4541 19.8717H32.4556C32.9502 19.8717 33.3521 20.2727 33.3521 20.7661C33.3521 21.2595 32.9502 21.6605 32.4556 21.6605Z" fill="#131313"/>
<path id="Vector_8" d="M35.9877 29.7208H25.4541C24.9595 29.7208 24.5576 29.3198 24.5576 28.8264C24.5576 28.333 24.9595 27.932 25.4541 27.932H35.9877C36.4823 27.932 36.8842 28.333 36.8842 28.8264C36.8842 29.3198 36.4823 29.7208 35.9877 29.7208Z" fill="#131313"/>
<path id="Vector_9" d="M32.4556 34.3136H25.4541C24.9595 34.3136 24.5576 33.9126 24.5576 33.4192C24.5576 32.9258 24.9595 32.5248 25.4541 32.5248H32.4556C32.9502 32.5248 33.3521 32.9258 33.3521 33.4192C33.3521 33.9126 32.9502 34.3136 32.4556 34.3136Z" fill="#131313"/>
<path id="Vector_10" d="M35.9072 42.2947H25.3735C24.879 42.2947 24.4771 41.8937 24.4771 41.4003C24.4771 40.9069 24.879 40.5059 25.3735 40.5059H35.9072C36.4017 40.5059 36.8036 40.9069 36.8036 41.4003C36.8036 41.8937 36.4017 42.2947 35.9072 42.2947Z" fill="#131313"/>
<path id="Vector_11" d="M32.375 46.8876H25.3735C24.879 46.8876 24.4771 46.4866 24.4771 45.9932C24.4771 45.4997 24.879 45.0988 25.3735 45.0988H32.375C32.8696 45.0988 33.2715 45.4997 33.2715 45.9932C33.2715 46.4866 32.8696 46.8876 32.375 46.8876Z" fill="#131313"/>
<path id="Vector_12" d="M43.2344 55.4396C43.0043 55.4396 42.7757 55.3517 42.6008 55.1773L36.0506 48.6421C35.8817 48.4736 35.7876 48.247 35.7876 48.01C35.7876 47.773 35.8817 47.5449 36.0506 47.378L53.9742 29.4957C55.0186 28.4537 56.4066 27.8798 57.8828 27.8798C59.359 27.8798 60.7471 28.4537 61.7915 29.4957C63.9475 31.6467 63.9475 35.1454 61.7915 37.2964L43.8679 55.1787C43.693 55.3532 43.463 55.4411 43.2344 55.4411V55.4396ZM37.9526 48.01L43.2344 53.2796L60.5244 36.0294C61.9812 34.5759 61.9812 32.2117 60.5244 30.7598C59.8192 30.0562 58.8809 29.6686 57.8828 29.6686C56.8847 29.6686 55.9464 30.0562 55.2412 30.7598L37.9511 48.01H37.9526Z" fill="#131313"/>
<path id="Vector_13" d="M59.4738 39.2372C59.2437 39.2372 59.0151 39.1493 58.8403 38.9749L52.2901 32.4397C51.9404 32.0909 51.9404 31.5244 52.2901 31.1741C52.6397 30.8253 53.2075 30.8253 53.5571 31.1741L60.1074 37.7093C60.457 38.0581 60.457 38.6246 60.1074 38.9749C59.9325 39.1493 59.7024 39.2372 59.4738 39.2372Z" fill="#131313"/>
<path id="Vector_14" d="M34.3743 57.607C34.1367 57.607 33.9051 57.5131 33.7348 57.3387C33.5137 57.1136 33.427 56.7886 33.5077 56.483L35.8176 47.7804C35.9446 47.3034 36.4362 47.0186 36.9143 47.1454C37.3924 47.2721 37.6778 47.761 37.5508 48.2395L35.6279 55.4858L43.0208 53.6776C43.5019 53.5598 43.9875 53.8535 44.1056 54.3335C44.2236 54.8135 43.9292 55.2979 43.4481 55.4157L34.5879 57.5832C34.5177 57.601 34.446 57.6085 34.3743 57.6085V57.607Z" fill="#131313"/>
</g>
</g>
</svg>
