<svg width="74" height="62" viewBox="0 0 74 62" fill="none" xmlns="http://www.w3.org/2000/svg">
<g id="Icon 3">
<circle id="Ellipse 3" cx="27.0272" cy="27.0272" r="27.0272" fill="#FFD6C9"/>
<g id="Group">
<path id="Vector" d="M46.7964 61.8412H24.6455C22.1718 61.8412 20.1604 59.9144 20.1604 57.5446V11.788C20.1604 9.41826 22.1718 7.49146 24.6455 7.49146H46.7964C49.2686 7.49146 51.2815 9.41826 51.2815 11.788V49.3769H49.4502V11.788C49.4502 10.3861 48.2599 9.24576 46.7964 9.24576H24.6455C23.182 9.24576 21.9917 10.3861 21.9917 11.788V57.5446C21.9917 58.9466 23.182 60.0869 24.6455 60.0869H46.7964C48.2889 60.0869 49.1114 59.3194 49.1114 57.9277H50.9427C50.9427 60.2682 49.2763 61.8412 46.7964 61.8412Z" fill="#131313"/>
<path id="Vector_2" d="M46.7689 61.8984H21.0501C18.5763 61.8984 16.5649 59.9715 16.5649 57.6018V11.8452C16.5649 9.47686 18.5763 7.54858 21.0501 7.54858H46.7689C49.2426 7.54858 51.254 9.47539 51.254 11.8452V49.377H49.4227V11.8452C49.4227 10.4432 48.2324 9.30289 46.7689 9.30289H21.0501C19.5866 9.30289 18.3962 10.4432 18.3962 11.8452V57.6018C18.3962 59.0038 19.5866 60.1441 21.0501 60.1441H46.7689C48.8092 60.1441 49.0839 59.2304 49.0839 58.3386H50.9152C50.9152 60.6016 49.4044 61.8984 46.7689 61.8984Z" fill="#131313"/>
<path id="Vector_3" d="M35.72 33.8849C30.6428 33.8849 26.5117 29.9275 26.5117 25.0637C26.5117 20.1998 30.6428 16.2424 35.72 16.2424C40.7972 16.2424 44.9283 20.1998 44.9283 25.0637C44.9283 29.9275 40.7972 33.8849 35.72 33.8849ZM35.72 17.9953C31.6515 17.9953 28.343 21.1662 28.343 25.0622C28.343 28.9582 31.653 32.1291 35.72 32.1291C39.787 32.1291 43.097 28.9582 43.097 25.0622C43.097 21.1662 39.787 17.9953 35.72 17.9953Z" fill="#131313"/>
<path id="Vector_4" d="M44.8674 37.3495H26.579C26.0738 37.3495 25.6633 36.9563 25.6633 36.4724C25.6633 35.9885 26.0738 35.5952 26.579 35.5952H44.8674C45.3725 35.5952 45.783 35.9885 45.783 36.4724C45.783 36.9563 45.3725 37.3495 44.8674 37.3495Z" fill="#131313"/>
<path id="Vector_5" d="M41.3391 40.8144H30.3514C29.8463 40.8144 29.4358 40.4211 29.4358 39.9372C29.4358 39.4533 29.8463 39.0601 30.3514 39.0601H41.3391C41.8443 39.0601 42.2548 39.4533 42.2548 39.9372C42.2548 40.4211 41.8443 40.8144 41.3391 40.8144Z" fill="#131313"/>
<path id="Vector_6" d="M42.0198 12.8656H29.4924C29.0818 12.8656 28.7232 12.6039 28.6118 12.2267L27.5619 8.66403C27.484 8.39942 27.5405 8.11581 27.713 7.89652C27.8854 7.67723 28.1555 7.54858 28.4424 7.54858H42.9996C43.2834 7.54858 43.552 7.67431 43.7245 7.89067C43.8984 8.10558 43.9564 8.38626 43.8847 8.64941L42.905 12.2121C42.7997 12.5981 42.4349 12.8656 42.0198 12.8656ZM30.1852 11.1113H41.3133L41.8108 9.30289H29.6511L30.1837 11.1113H30.1852Z" fill="#131313"/>
<path id="Vector_7" d="M34.356 29.4263C34.1133 29.4263 33.8798 29.3342 33.7089 29.169L30.9788 26.5536C30.6217 26.2115 30.6217 25.656 30.9788 25.3124C31.3359 24.9689 31.9158 24.9703 32.2744 25.3124L34.3086 27.2612L39.1234 21.9398C39.4545 21.5743 40.0329 21.5348 40.4144 21.8521C40.796 22.1693 40.8372 22.7234 40.506 23.0889L35.0473 29.1222C34.8809 29.3064 34.6413 29.416 34.388 29.4248C34.3773 29.4248 34.3666 29.4248 34.356 29.4248V29.4263Z" fill="#131313"/>
<g id="Group_2">
<path id="Vector_8" d="M39.5612 49.6064H29.2877C28.2424 49.6064 27.3923 48.7922 27.3923 47.7907V44.3406C27.3923 43.3392 28.2424 42.5249 29.2877 42.5249H42.4012C43.1826 42.5249 43.8739 42.9752 44.1623 43.671C44.3012 44.0058 44.2111 44.3889 43.9364 44.6345C43.6617 44.8815 43.2573 44.9415 42.917 44.7865C42.2929 44.5029 41.6016 44.4415 40.9728 44.6154C40.6096 44.7163 40.3212 44.8713 40.1167 45.0774C39.9626 45.2324 39.8313 45.4385 39.7275 45.6929C39.4498 46.3683 39.4376 47.3697 40.0679 47.9735L40.2052 48.105C40.4677 48.3565 40.547 48.7337 40.4051 49.0626C40.2632 49.3901 39.9305 49.605 39.5597 49.605L39.5612 49.6064ZM29.2877 44.2792C29.2526 44.2792 29.2236 44.307 29.2236 44.3406V47.7907C29.2236 47.8244 29.2526 47.8521 29.2877 47.8521H37.9146C37.6185 46.9823 37.6414 45.978 38.0229 45.0511C38.1389 44.7675 38.2808 44.5102 38.4441 44.2792H29.2862H29.2877Z" fill="#131313"/>
<path id="Vector_9" d="M72.2084 61.8413H53.8727C53.3798 61.8413 52.7052 61.8413 46.8925 56.6969C44.0021 54.1385 40.7882 51.1401 38.9157 49.3492C38.5571 49.0072 38.5571 48.4516 38.9157 48.1081C39.2728 47.7645 39.8527 47.7645 40.2113 48.1081C45.8837 53.5289 52.6991 59.5724 53.9719 60.087H71.2958V49.5027C70.2276 49.3507 68.4222 49.0028 67.4059 48.2996C66.5223 47.6885 64.749 45.2559 62.5224 42.1391C61.851 41.199 61.0895 40.1333 60.9185 39.9564C60.3386 39.4331 53.4607 34.9654 52.7526 34.654C52.5694 34.5839 51.9529 34.5502 51.2555 34.5634V39.4228C55.7696 41.8657 55.7696 42.4358 55.7696 42.8963C55.7696 43.56 55.7849 44.7617 55.8001 46.0336C55.8184 47.5438 55.8383 49.1066 55.8383 50.1372C55.8383 50.912 55.443 51.2527 54.8463 51.7673C54.2878 52.2497 53.0837 52.7994 51.1777 51.1723L43.5366 45.1623C43.3489 45.0147 43.1414 44.8889 42.9201 44.7881C42.4638 44.5805 42.2685 44.0571 42.4867 43.62C42.7034 43.1829 43.2497 42.9957 43.706 43.2048C44.0631 43.3671 44.3973 43.5703 44.6995 43.8071L52.3558 49.8288C52.3665 49.8361 52.3756 49.8448 52.3863 49.8536C53.0196 50.3974 53.4912 50.5787 53.6133 50.4735C53.775 50.3331 53.9353 50.1957 54.0085 50.1182C54.0085 49.0978 53.9887 47.5511 53.9704 46.0555C53.9566 44.9313 53.9429 43.8612 53.9398 43.1609C53.4042 42.6946 51.5103 41.566 49.8958 40.7049C49.6058 40.55 49.4257 40.2561 49.4257 39.9389V33.7286C49.4257 33.2696 49.795 32.888 50.2727 32.8544C50.8068 32.8164 52.6137 32.7141 53.4454 33.0342C54.2405 33.3383 61.5397 38.0735 62.2203 38.7255C62.4522 38.9477 62.878 39.5339 64.0333 41.1523C65.3426 42.9855 67.7813 46.4006 68.4772 46.8815C69.2448 47.4122 71.2271 47.7631 72.2954 47.8596C72.7654 47.9019 73.1256 48.2806 73.1256 48.7323V60.9671C73.1256 61.451 72.7151 61.8443 72.2099 61.8443L72.2084 61.8413Z" fill="#131313"/>
</g>
<path id="Vector_10" d="M69.8308 45.3159C69.5469 45.3159 69.2677 45.1901 69.0876 44.9533L67.1632 42.4052C66.8672 42.0134 66.9587 41.4637 67.3677 41.1801C67.7767 40.8965 68.3505 40.9842 68.6466 41.376L70.5709 43.9241C70.867 44.3159 70.7754 44.8656 70.3664 45.1492C70.2047 45.2618 70.017 45.3159 69.8308 45.3159Z" fill="#131313"/>
<path id="Vector_11" d="M65.4554 39.5163C65.1838 39.5163 64.9152 39.4008 64.7336 39.1801L64.288 38.6362C63.5509 37.7342 62.6749 36.9536 61.6845 36.3132L57.6984 33.7359C57.2787 33.4654 57.1689 32.9201 57.4512 32.5181C57.7335 32.1161 58.3027 32.0108 58.7224 32.2813L62.7085 34.8586C63.8576 35.6013 64.874 36.5091 65.7286 37.5544L66.1742 38.0982C66.4855 38.4798 66.4168 39.0309 66.0185 39.3292C65.8507 39.4549 65.6523 39.5163 65.4539 39.5163H65.4554Z" fill="#131313"/>
</g>
</g>
</svg>
