<svg width="76" height="63" viewBox="0 0 76 63" fill="none" xmlns="http://www.w3.org/2000/svg">
<g id="Icon 4">
<circle id="Ellipse 4" cx="27.3407" cy="27.3407" r="27.3407" fill="#FFE9BF"/>
<g id="Group">
<path id="Vector" d="M30.1733 46.2148C29.6623 46.2148 29.2471 45.817 29.2471 45.3275V42.2411C29.2471 41.7516 29.6623 41.3538 30.1733 41.3538C30.6843 41.3538 31.0996 41.7516 31.0996 42.2411V45.3275C31.0996 45.817 30.6843 46.2148 30.1733 46.2148Z" fill="#131313"/>
<path id="Vector_2" d="M68.5097 62.4236H19.4473C18.9363 62.4236 18.521 62.0272 18.521 61.5362V49.4804C18.521 46.7578 20.8336 44.5425 23.6772 44.5425H24.6158C25.1268 44.5425 25.5421 44.9403 25.5421 45.4298C25.5421 45.9193 25.1268 46.3171 24.6158 46.3171H23.6772C21.8555 46.3171 20.3735 47.7369 20.3735 49.4819V60.6504H68.5097C69.0207 60.6504 69.436 61.0482 69.436 61.5377C69.436 62.0272 69.0207 62.425 68.5097 62.425V62.4236Z" fill="#131313"/>
<path id="Vector_3" d="M74.8809 62.4236H72.1901C71.6791 62.4236 71.2638 62.0258 71.2638 61.5362C71.2638 61.0467 71.6791 60.6489 72.1901 60.6489H73.9546V49.4805C73.9546 47.7354 72.4726 46.3157 70.651 46.3157H28.6157C28.1047 46.3157 27.6895 45.9179 27.6895 45.4283C27.6895 44.9388 28.1047 44.541 28.6157 44.541H70.651C73.4946 44.541 75.8072 46.7564 75.8072 49.4805V61.5362C75.8072 62.0258 75.3919 62.4236 74.8809 62.4236Z" fill="#131313"/>
<path id="Vector_4" d="M31.5536 50.5452H29.7598C29.2488 50.5452 28.8335 50.1473 28.8335 49.6578C28.8335 49.1683 29.2488 48.7705 29.7598 48.7705H31.5536C32.0646 48.7705 32.4799 49.1683 32.4799 49.6578C32.4799 50.1473 32.0646 50.5452 31.5536 50.5452Z" fill="#131313"/>
<path id="Vector_5" d="M43.4236 49.1655H41.7239C41.2129 49.1655 40.7976 48.7677 40.7976 48.2782C40.7976 47.7887 41.2129 47.3909 41.7239 47.3909H43.4236C43.9345 47.3909 44.3498 47.7887 44.3498 48.2782C44.3498 48.7677 43.9345 49.1655 43.4236 49.1655Z" fill="#131313"/>
<path id="Vector_6" d="M54.4446 50.5452H52.4145C51.9036 50.5452 51.4883 50.1473 51.4883 49.6578C51.4883 49.1683 51.9036 48.7705 52.4145 48.7705H54.4446C54.9556 48.7705 55.3709 49.1683 55.3709 49.6578C55.3709 50.1473 54.9556 50.5452 54.4446 50.5452Z" fill="#131313"/>
<path id="Vector_7" d="M64.4263 49.1655H62.8208C62.3098 49.1655 61.8945 48.7677 61.8945 48.2782C61.8945 47.7887 62.3098 47.3909 62.8208 47.3909H64.4263C64.9373 47.3909 65.3526 47.7887 65.3526 48.2782C65.3526 48.7677 64.9373 49.1655 64.4263 49.1655Z" fill="#131313"/>
<path id="Vector_8" d="M31.0581 43.1284H29.4062C28.8953 43.1284 28.48 42.7306 28.48 42.2411C28.48 41.7516 28.8953 41.3538 29.4062 41.3538H31.0581C31.5691 41.3538 31.9843 41.7516 31.9843 42.2411C31.9843 42.7306 31.5691 43.1284 31.0581 43.1284Z" fill="#131313"/>
<path id="Vector_9" d="M36.7388 46.317H35.3942C33.9368 46.317 32.7512 45.1812 32.7512 43.7852V40.7845C32.7512 40.295 33.1665 39.8972 33.6775 39.8972H38.457C38.968 39.8972 39.3832 40.295 39.3832 40.7845V43.7852C39.3832 45.1812 38.1976 46.317 36.7403 46.317H36.7388ZM34.6037 41.6719V43.7852C34.6037 44.2022 34.9588 44.5424 35.3942 44.5424H36.7388C37.1741 44.5424 37.5292 44.2022 37.5292 43.7852V41.6719H34.6022H34.6037Z" fill="#131313"/>
<path id="Vector_10" d="M74.8809 53.6877H74.8778L19.4442 53.5398C18.9332 53.5398 18.5195 53.1405 18.521 52.6495C18.521 52.16 18.9363 51.7651 19.4473 51.7651H19.4503L74.884 51.913C75.395 51.913 75.8087 52.3123 75.8071 52.8033C75.8071 53.2928 75.3919 53.6877 74.8809 53.6877Z" fill="#131313"/>
<path id="Vector_11" d="M65.1119 33.8028H42.9758C42.4648 33.8028 42.0496 33.405 42.0496 32.9155V32.0341C42.0496 25.6986 47.4296 20.5447 54.0431 20.5447C60.6566 20.5447 66.0366 25.6986 66.0366 32.0341V32.9155C66.0366 33.405 65.6214 33.8028 65.1104 33.8028H65.1119ZM43.9021 32.0281H64.1856C64.1826 26.6731 59.6346 22.3178 54.0446 22.3178C48.4547 22.3178 43.9067 26.6731 43.9036 32.0281H43.9021Z" fill="#131313"/>
<path id="Vector_12" d="M48.9687 33.8027C48.4963 33.8027 48.0934 33.4581 48.0471 32.9982C48.0162 32.6832 47.3617 25.2237 53.4796 20.7265C53.8856 20.4277 54.4676 20.5017 54.7779 20.8906C55.0898 21.2796 55.0126 21.8371 54.6066 22.1344C49.3145 26.0238 49.8842 32.766 49.8919 32.834C49.9382 33.322 49.5631 33.7539 49.0536 33.7982C49.0243 33.8012 48.9965 33.8027 48.9672 33.8027H48.9687Z" fill="#131313"/>
<path id="Vector_13" d="M59.119 33.8027C59.0897 33.8027 59.0603 33.8027 59.031 33.7982C58.5215 33.7524 58.148 33.3206 58.1958 32.834C58.202 32.766 58.7716 26.0253 53.4811 22.1344C53.0751 21.8356 52.9995 21.2796 53.3098 20.8906C53.6216 20.5017 54.2021 20.4277 54.6081 20.7265C60.726 25.2237 60.0715 32.6817 60.0406 32.9982C59.9958 33.4581 59.5914 33.8027 59.119 33.8027Z" fill="#131313"/>
<path id="Vector_14" d="M54.043 46.3169C53.532 46.3169 53.1167 45.9191 53.1167 45.4296V32.9169C53.1167 32.4274 53.532 32.0295 54.043 32.0295C54.5539 32.0295 54.9692 32.4274 54.9692 32.9169V45.4296C54.9692 45.9191 54.5539 46.3169 54.043 46.3169Z" fill="#131313"/>
<path id="Vector_15" d="M32.4272 22.0932C29.3782 22.0932 26.8989 19.7181 26.8989 16.7973C26.8989 13.8765 29.3782 11.5015 32.4272 11.5015C35.4761 11.5015 37.9554 13.8765 37.9554 16.7973C37.9554 19.7181 35.4761 22.0932 32.4272 22.0932ZM32.4272 13.2761C30.4002 13.2761 28.7514 14.8556 28.7514 16.7973C28.7514 18.7391 30.4002 20.3185 32.4272 20.3185C34.4541 20.3185 36.1029 18.7391 36.1029 16.7973C36.1029 14.8556 34.4541 13.2761 32.4272 13.2761Z" fill="#131313"/>
<path id="Vector_16" d="M32.4272 11.028C31.9163 11.028 31.501 10.6302 31.501 10.1407V8.42224C31.501 7.93273 31.9163 7.53491 32.4272 7.53491C32.9382 7.53491 33.3535 7.93273 33.3535 8.42224V10.1407C33.3535 10.6302 32.9382 11.028 32.4272 11.028Z" fill="#131313"/>
<path id="Vector_17" d="M32.2373 26.1259C31.7263 26.1259 31.311 25.7281 31.311 25.2386V23.5201C31.311 23.0306 31.7263 22.6328 32.2373 22.6328C32.7483 22.6328 33.1636 23.0306 33.1636 23.5201V25.2386C33.1636 25.7281 32.7483 26.1259 32.2373 26.1259Z" fill="#131313"/>
<path id="Vector_18" d="M25.4433 17.6269H23.6494C23.1384 17.6269 22.7231 17.2291 22.7231 16.7396C22.7231 16.2501 23.1384 15.8523 23.6494 15.8523H25.4433C25.9543 15.8523 26.3695 16.2501 26.3695 16.7396C26.3695 17.2291 25.9543 17.6269 25.4433 17.6269Z" fill="#131313"/>
<path id="Vector_19" d="M41.2035 17.8071H39.4097C38.8987 17.8071 38.4834 17.4093 38.4834 16.9198C38.4834 16.4303 38.8987 16.0325 39.4097 16.0325H41.2035C41.7145 16.0325 42.1298 16.4303 42.1298 16.9198C42.1298 17.4093 41.7145 17.8071 41.2035 17.8071Z" fill="#131313"/>
<path id="Vector_20" d="M26.1533 23.6888C25.9155 23.6888 25.6793 23.6015 25.4987 23.4285C25.1375 23.0824 25.1375 22.5205 25.4987 22.1729L26.7661 20.9573C27.1274 20.6112 27.714 20.6112 28.0768 20.9573C28.438 21.3034 28.438 21.8653 28.0768 22.2129L26.8094 23.4285C26.6288 23.6015 26.391 23.6888 26.1548 23.6888H26.1533Z" fill="#131313"/>
<path id="Vector_21" d="M37.4321 13.1414C37.1943 13.1414 36.9581 13.0542 36.7775 12.8811C36.4163 12.5351 36.4163 11.9731 36.7775 11.6256L38.045 10.4099C38.4062 10.0639 38.9928 10.0639 39.3556 10.4099C39.7169 10.756 39.7169 11.318 39.3556 11.6655L38.0882 12.8811C37.9076 13.0542 37.6698 13.1414 37.4336 13.1414H37.4321Z" fill="#131313"/>
<path id="Vector_22" d="M38.5669 23.6371C38.3292 23.6371 38.093 23.5498 37.9124 23.3768L36.645 22.1626C36.2837 21.8166 36.2837 21.2546 36.645 20.9071C37.0062 20.5595 37.5928 20.561 37.9556 20.9071L39.223 22.1212C39.5843 22.4673 39.5843 23.0293 39.223 23.3768C39.0424 23.5498 38.8047 23.6371 38.5685 23.6371H38.5669Z" fill="#131313"/>
<path id="Vector_23" d="M27.555 12.8324C27.3172 12.8324 27.081 12.7451 26.9004 12.5721L25.633 11.3579C25.2718 11.0119 25.2718 10.4499 25.633 10.1024C25.9942 9.75485 26.5809 9.75633 26.9437 10.1024L28.2111 11.3165C28.5723 11.6626 28.5723 12.2246 28.2111 12.5721C28.0305 12.7451 27.7927 12.8324 27.5565 12.8324H27.555Z" fill="#131313"/>
</g>
</g>
</svg>
