<svg width="79" height="31" viewBox="0 0 79 31" fill="none" xmlns="http://www.w3.org/2000/svg">
<g id="idle">
<path d="M7.22424 3.31131C7.22424 4.22628 6.89785 5.00328 6.24506 5.6423C5.59226 6.28133 4.81616 6.60084 3.91676 6.60084C3.30749 6.60084 2.74898 6.45561 2.24126 6.16514C1.74804 5.87468 1.35636 5.48255 1.06623 4.98876C0.776099 4.48044 0.631033 3.92129 0.631033 3.31131C0.631033 2.41087 0.950177 1.63387 1.58846 0.980323C2.22675 0.326774 3.00285 0 3.91676 0C4.81616 0 5.59226 0.326774 6.24506 0.980323C6.89785 1.63387 7.22424 2.41087 7.22424 3.31131ZM7.85528 30.6079H0V8.43078H7.85528V30.6079Z" fill="url(#paint0_linear_5192_1213)"/>
<path d="M36.7087 30.6079H28.8535V28.6037C28.0266 29.3008 27.1489 29.8744 26.2205 30.3247C25.3066 30.7749 24.0373 31 22.4126 31C20.8023 31 19.2211 30.6006 17.6689 29.8018C16.1167 29.003 14.8402 27.7613 13.8392 26.0766C12.8383 24.3774 12.3378 22.2424 12.3378 19.6718C12.3378 17.6531 12.715 15.765 13.4693 14.0077C14.2236 12.2359 15.4059 10.7981 17.0161 9.69431C18.6264 8.59054 20.5993 8.03865 22.9348 8.03865C24.3855 8.03865 25.5605 8.19841 26.4599 8.51792C27.3593 8.83743 28.1571 9.24408 28.8535 9.73788V0.413914H36.7087V30.6079ZM28.8535 23.5495V15.0752C27.9395 14.5669 27.2215 14.2038 26.6992 13.9859C26.1915 13.7681 25.5895 13.6592 24.8932 13.6592C23.6601 13.6592 22.6302 14.182 21.8033 15.2277C20.9909 16.2734 20.5847 17.6966 20.5847 19.4975C20.5847 21.4582 21.0127 22.8887 21.8686 23.7892C22.739 24.6751 23.7472 25.1181 24.8932 25.1181C25.8361 25.1181 26.5977 24.9728 27.178 24.6824C27.7582 24.3774 28.3167 23.9998 28.8535 23.5495Z" fill="url(#paint1_linear_5192_1213)"/>
<path d="M49.9387 30.6079H42.0834V0.413914H49.9387V30.6079Z" fill="url(#paint2_linear_5192_1213)"/>
<path d="M78.0741 21.4146H62.4723C62.777 22.7653 63.524 23.8691 64.7136 24.7259C65.9031 25.5828 67.2522 26.0112 68.7609 26.0112C71.4011 26.0112 74.3169 25.2706 77.5083 23.7892V28.6472C76.3623 29.2427 74.9697 29.7873 73.3304 30.2811C71.7057 30.7604 69.6313 31 67.1071 31C64.3799 31 62.0589 30.4917 60.144 29.4751C58.2292 28.4584 56.793 27.0787 55.8356 25.3359C54.8927 23.5931 54.4212 21.6179 54.4212 19.4104C54.4212 17.2319 54.8927 15.2858 55.8356 13.572C56.793 11.8438 58.2292 10.4931 60.144 9.52003C62.0589 8.53244 64.3799 8.03865 67.1071 8.03865C68.906 8.03865 70.6395 8.43078 72.3077 9.21504C73.9905 9.98477 75.3686 11.2556 76.4421 13.0274C77.5301 14.7847 78.0741 17.0576 78.0741 19.8461V21.4146ZM70.7193 17.5369C70.7193 16.1136 70.3639 14.9808 69.653 14.1384C68.9567 13.2816 67.9485 12.8531 66.6284 12.8531C65.3228 12.8531 64.2639 13.2888 63.4515 14.1602C62.6536 15.0171 62.2547 16.1427 62.2547 17.5369H70.7193Z" fill="url(#paint3_linear_5192_1213)"/>
</g>
<defs>
<linearGradient id="paint0_linear_5192_1213" x1="39.037" y1="0" x2="39.037" y2="31" gradientUnits="userSpaceOnUse">
<stop stop-color="white"/>
<stop offset="1" stop-color="white"/>
</linearGradient>
<linearGradient id="paint1_linear_5192_1213" x1="39.037" y1="0" x2="39.037" y2="31" gradientUnits="userSpaceOnUse">
<stop stop-color="white"/>
<stop offset="1" stop-color="white"/>
</linearGradient>
<linearGradient id="paint2_linear_5192_1213" x1="39.037" y1="0" x2="39.037" y2="31" gradientUnits="userSpaceOnUse">
<stop stop-color="white"/>
<stop offset="1" stop-color="white"/>
</linearGradient>
<linearGradient id="paint3_linear_5192_1213" x1="39.037" y1="0" x2="39.037" y2="31" gradientUnits="userSpaceOnUse">
<stop stop-color="white"/>
<stop offset="1" stop-color="white"/>
</linearGradient>
</defs>
</svg>
