<svg width="2125" height="856" viewBox="0 0 2125 856" fill="none" xmlns="http://www.w3.org/2000/svg">
<path fill-rule="evenodd" clip-rule="evenodd" d="M0 160C0 72.4004 72 0.400391 159.6 0.400391C248.4 0.400391 322.8 72.4004 322.8 160C322.8 251.2 248.4 320.8 159.6 320.8C72 320.8 0 251.2 0 160ZM380.453 517.6C380.453 718 522.053 856 728.453 856H1069.25V10H799.253V179.2H728.453C522.053 179.2 380.453 317.2 380.453 517.6ZM740.453 625.6C679.253 625.6 632.453 578.8 632.453 517.6C632.453 456.4 679.253 409.6 740.453 409.6C801.653 409.6 848.453 456.4 848.453 517.6C848.453 578.8 801.653 625.6 740.453 625.6ZM22 374.8V856H302.8V374.8H22ZM1158.72 856V10H1434.72V856H1158.72ZM1500.48 517.6C1500.48 718 1637.28 856 1836.48 856H2124.48V658H1802.88C1769.28 658 1745.28 635.2 1745.28 602.8C1745.28 570.4 1769.28 547.6 1802.88 547.6H2124.48V179.2H1836.48C1637.28 179.2 1500.48 317.2 1500.48 517.6ZM1844.88 434.8C1806.48 434.8 1776.48 406 1776.48 367.6C1776.48 328 1806.48 299.2 1844.88 299.2C1883.28 299.2 1913.28 328 1913.28 367.6C1913.28 406 1883.28 434.8 1844.88 434.8Z" fill="white"/>
</svg>
