<svg width="235" height="50" viewBox="0 0 235 50" fill="none" xmlns="http://www.w3.org/2000/svg">
<path id="&#208;&#161;&#209;&#130;&#209;&#128;&#208;&#181;&#208;&#187;&#208;&#186;&#208;&#176; 2" d="M233.307 0.713942C233.465 0.33104 233.903 0.14871 234.286 0.306696C234.669 0.464682 234.851 0.903157 234.693 1.28606L233.307 0.713942ZM86.3122 8.41818L86.2655 7.66963L86.3122 8.41818ZM2.10002 49.7433C1.68951 49.7985 1.31194 49.5105 1.2567 49.1L0.356506 42.4103C0.30127 41.9998 0.589279 41.6222 0.999786 41.567C1.41031 41.5118 1.78787 41.7998 1.84311 42.2103L2.64328 48.1567L8.58969 47.3565C9.0002 47.3013 9.37776 47.5893 9.43301 47.9998C9.48825 48.4103 9.20024 48.7879 8.78973 48.8431L2.10002 49.7433ZM234.046 2.76159C233.872 3.13735 233.426 3.30069 233.05 3.12641C232.674 2.95213 232.511 2.50623 232.685 2.13046L234.046 2.76159ZM231.269 4.91718C231.469 4.55431 231.925 4.42208 232.288 4.62183C232.651 4.82157 232.783 5.27767 232.583 5.64053L231.269 4.91718ZM230.947 8.41287C230.726 8.76331 230.263 8.86839 229.913 8.64756C229.562 8.42674 229.457 7.96363 229.678 7.61319L230.947 8.41287ZM227.932 10.2187C228.172 9.88119 228.64 9.80217 228.978 10.0422C229.316 10.2823 229.395 10.7506 229.154 11.0881L227.932 10.2187ZM227.218 13.6569C226.959 13.9806 226.487 14.0334 226.164 13.7749C225.84 13.5164 225.787 13.0445 226.046 12.7208L227.218 13.6569ZM224.023 15.1111C224.299 14.8028 224.773 14.7771 225.082 15.0537C225.39 15.3303 225.416 15.8045 225.139 16.1128L224.023 15.1111ZM222.918 18.4446C222.624 18.7357 222.149 18.7328 221.858 18.4381C221.567 18.1435 221.569 17.6686 221.864 17.3775L222.918 18.4446ZM219.571 19.5034C219.884 19.2318 220.358 19.265 220.629 19.5777C220.901 19.8904 220.868 20.3641 220.555 20.6358L219.571 19.5034ZM218.05 22.6674C217.719 22.917 217.249 22.8513 217 22.5207C216.75 22.1902 216.816 21.7198 217.146 21.4703L218.05 22.6674ZM214.59 23.2577C214.939 23.0331 215.403 23.1332 215.627 23.4812C215.852 23.8293 215.752 24.2935 215.404 24.5181L214.59 23.2577ZM212.621 26.1637C212.256 26.3601 211.801 26.2237 211.605 25.8591C211.408 25.4944 211.545 25.0395 211.909 24.8431L212.621 26.1637ZM209.111 26.2034C209.491 26.0382 209.933 26.2123 210.098 26.5922C210.263 26.972 210.089 27.4139 209.709 27.579L209.111 26.2034ZM206.683 28.7397C206.29 28.8707 205.865 28.6584 205.734 28.2654C205.603 27.8725 205.816 27.4477 206.209 27.3167L206.683 28.7397ZM203.221 28.1637C203.624 28.0691 204.028 28.3193 204.123 28.7226C204.217 29.1259 203.967 29.5295 203.564 29.624L203.221 28.1637ZM200.377 30.2172C199.967 30.274 199.588 29.9875 199.531 29.5772C199.475 29.1669 199.761 28.7882 200.171 28.7314L200.377 30.2172ZM197.078 29.0148C197.492 28.996 197.843 29.3162 197.862 29.73C197.881 30.1438 197.56 30.4944 197.147 30.5132L197.078 29.0148ZM194.021 30.5244C193.607 30.5104 193.283 30.1634 193.297 29.7494C193.311 29.3355 193.658 29.0112 194.072 29.0253L194.021 30.5244ZM191.175 28.8341C191.587 28.8741 191.889 29.2407 191.849 29.653C191.809 30.0653 191.442 30.3671 191.03 30.3271L191.175 28.8341ZM188.059 29.9533C187.649 29.8905 187.368 29.5077 187.431 29.0982C187.494 28.6888 187.877 28.4078 188.286 28.4707L188.059 29.9533ZM185.416 27.958C185.822 28.0403 186.085 28.4361 186.002 28.842C185.92 29.248 185.524 29.5104 185.118 29.4281L185.416 27.958ZM182.211 28.7765C181.809 28.6781 181.562 28.2722 181.661 27.8698C181.759 27.4675 182.165 27.221 182.567 27.3194L182.211 28.7765ZM179.737 26.5766C180.136 26.6881 180.369 27.1018 180.258 27.5007C180.147 27.8997 179.733 28.1328 179.334 28.0213L179.737 26.5766ZM176.484 27.1839C176.088 27.0622 175.866 26.6426 175.988 26.2467C176.109 25.8507 176.529 25.6284 176.925 25.7501L176.484 27.1839ZM174.127 24.8584C174.52 24.9878 174.734 25.4118 174.605 25.8052C174.475 26.1987 174.051 26.4127 173.658 26.2832L174.127 24.8584ZM170.851 25.3358C170.46 25.2007 170.252 24.7737 170.387 24.3822C170.522 23.9906 170.949 23.7827 171.34 23.9178L170.851 25.3358ZM168.562 22.943C168.952 23.0818 169.156 23.5107 169.017 23.901C168.878 24.2912 168.449 24.495 168.059 24.3562L168.562 22.943ZM165.277 23.3569C164.888 23.2159 164.686 22.7859 164.827 22.3964C164.968 22.0069 165.398 21.8054 165.788 21.9464L165.277 23.3569ZM163.014 20.9392C163.403 21.0808 163.604 21.5111 163.463 21.9004C163.321 22.2896 162.891 22.4904 162.501 22.3488L163.014 20.9392ZM159.728 21.3413C159.338 21.2003 159.137 20.7703 159.278 20.3808C159.419 19.9913 159.849 19.7899 160.238 19.9309L159.728 21.3413ZM157.457 18.9301C157.847 19.0694 158.05 19.4985 157.911 19.8886C157.772 20.2787 157.342 20.482 156.952 20.3427L157.457 18.9301ZM154.172 19.36C153.781 19.2234 153.575 18.7957 153.712 18.4046C153.848 18.0136 154.276 17.8074 154.667 17.944L154.172 19.36ZM151.867 16.9792C152.259 17.1123 152.469 17.5382 152.336 17.9304C152.203 18.3227 151.777 18.5328 151.385 18.3997L151.867 16.9792ZM148.59 17.4678C148.196 17.339 147.982 16.9154 148.11 16.5218C148.239 16.1281 148.663 15.9134 149.056 16.0422L148.59 17.4678ZM146.241 15.1401C146.636 15.2639 146.856 15.6848 146.732 16.08C146.608 16.4753 146.188 16.6953 145.792 16.5714L146.241 15.1401ZM142.983 15.712C142.586 15.5937 142.36 15.176 142.478 14.779C142.597 14.3821 143.014 14.1562 143.411 14.2746L142.983 15.712ZM140.567 13.4495C140.965 13.5618 141.197 13.9761 141.085 14.3748C140.973 14.7735 140.558 15.0056 140.16 14.8933L140.567 13.4495ZM137.322 14.1182C136.921 14.0123 136.683 13.6018 136.788 13.2014C136.894 12.8009 137.305 12.5621 137.705 12.668L137.322 14.1182ZM134.826 11.9328C135.228 12.0319 135.474 12.4382 135.375 12.8404C135.276 13.2426 134.87 13.4884 134.467 13.3893L134.826 11.9328ZM131.612 12.7129C131.208 12.621 130.956 12.2191 131.047 11.8152C131.139 11.4113 131.541 11.1584 131.945 11.2503L131.612 12.7129ZM129.053 10.6197C129.458 10.7042 129.718 11.1015 129.634 11.5069C129.549 11.9124 129.152 12.1726 128.747 12.0881L129.053 10.6197ZM125.864 11.5151C125.457 11.4381 125.19 11.0458 125.267 10.6388C125.343 10.2318 125.736 9.96424 126.143 10.0412L125.864 11.5151ZM123.214 9.51612C123.622 9.58532 123.897 9.97248 123.828 10.3809C123.759 10.7893 123.372 11.0642 122.963 10.995L123.214 9.51612ZM120.07 10.5332C119.661 10.4718 119.378 10.09 119.44 9.68032C119.501 9.27068 119.883 8.98837 120.293 9.04976L120.07 10.5332ZM117.359 8.63891C117.77 8.69241 118.06 9.06876 118.006 9.4795C117.953 9.89025 117.576 10.1798 117.165 10.1263L117.359 8.63891ZM114.241 9.7741C113.83 9.72853 113.533 9.35785 113.578 8.94615C113.624 8.53445 113.995 8.23764 114.406 8.28321L114.241 9.7741ZM111.458 7.98543C111.87 8.0231 112.174 8.38803 112.136 8.80053C112.099 9.21302 111.734 9.51688 111.321 9.47922L111.458 7.98543ZM108.4 9.24051C107.987 9.2107 107.676 8.85161 107.706 8.43847C107.736 8.02533 108.095 7.71459 108.508 7.7444L108.4 9.24051ZM105.537 7.55833C105.951 7.58031 106.268 7.93345 106.246 8.34708C106.224 8.76071 105.871 9.0782 105.458 9.05621L105.537 7.55833ZM102.53 8.92791C102.116 8.91361 101.792 8.56644 101.806 8.15247C101.82 7.7385 102.167 7.41451 102.581 7.4288L102.53 8.92791ZM99.62 7.35378C100.034 7.36049 100.364 7.70166 100.358 8.11582C100.351 8.52998 100.01 8.86029 99.5957 8.85358L99.62 7.35378ZM96.6418 8.83263C96.2276 8.83343 95.8912 8.4983 95.8904 8.08409C95.8895 7.66988 96.2247 7.33344 96.6389 7.33263L96.6418 8.83263ZM93.6918 7.36436C94.106 7.35627 94.4482 7.68544 94.4563 8.09957C94.4644 8.51371 94.1352 8.85599 93.7211 8.86407L93.6918 7.36436ZM90.7734 8.94737C90.3595 8.96266 90.0115 8.63949 89.9962 8.22556C89.981 7.81163 90.3041 7.46368 90.718 7.4484L90.7734 8.94737ZM87.7636 7.5826C88.1772 7.56032 88.5306 7.87756 88.5528 8.29118C88.5751 8.70479 88.2579 9.05815 87.8443 9.08043L87.7636 7.5826ZM84.8607 9.26892C84.4477 9.29955 84.088 8.9895 84.0574 8.57642C84.0267 8.16334 84.3368 7.80365 84.7499 7.77303L84.8607 9.26892ZM81.7463 8.03105C82.1586 7.99076 82.5254 8.2923 82.5657 8.70455C82.606 9.1168 82.3045 9.48365 81.8922 9.52394L81.7463 8.03105ZM78.9219 9.84964C78.5107 9.89965 78.1368 9.60686 78.0868 9.19568C78.0368 8.7845 78.3296 8.41063 78.7408 8.36062L78.9219 9.84964ZM75.7433 8.76126C76.1532 8.70152 76.5339 8.98537 76.5937 9.39525C76.6534 9.80513 76.3696 10.1858 75.9597 10.2456L75.7433 8.76126ZM73.0123 10.7109C72.6039 10.7804 72.2166 10.5057 72.1472 10.0973C72.0777 9.68896 72.3524 9.30162 72.7608 9.23217L73.0123 10.7109ZM69.794 9.77308C70.2006 9.69394 70.5944 9.9594 70.6735 10.366C70.7526 10.7726 70.4872 11.1663 70.0806 11.2454L69.794 9.77308ZM67.1552 11.8511C66.7506 11.9399 66.3507 11.6839 66.2619 11.2793C66.1731 10.8747 66.429 10.4748 66.8336 10.386L67.1552 11.8511ZM63.8876 11.0695C64.2899 10.9711 64.6959 11.2175 64.7943 11.6198C64.8928 12.0222 64.6464 12.4281 64.244 12.5266L63.8876 11.0695ZM61.3528 13.2705C60.9529 13.3785 60.5412 13.1419 60.4332 12.742C60.3252 12.3421 60.5618 11.9304 60.9617 11.8224L61.3528 13.2705ZM58.0571 12.6441C58.4543 12.5266 58.8715 12.7534 58.989 13.1506C59.1065 13.5478 58.8797 13.965 58.4825 14.0825L58.0571 12.6441ZM55.6344 14.9618C55.2401 15.0887 54.8176 14.872 54.6907 14.4777C54.5638 14.0834 54.7806 13.6608 55.1749 13.534L55.6344 14.9618ZM52.3083 14.4942C52.6995 14.358 53.127 14.5647 53.2633 14.9558C53.3995 15.347 53.1928 15.7745 52.8017 15.9108L52.3083 14.4942ZM49.9915 16.9271C49.6036 17.0725 49.1713 16.8761 49.0258 16.4883C48.8803 16.1004 49.0768 15.6681 49.4646 15.5226L49.9915 16.9271ZM46.6477 16.6176C47.0319 16.463 47.4688 16.6491 47.6234 17.0334C47.7781 17.4177 47.5919 17.8545 47.2077 18.0092L46.6477 16.6176ZM44.4514 19.1564C44.0709 19.3201 43.6298 19.1444 43.4661 18.7639C43.3024 18.3834 43.4781 17.9422 43.8586 17.7785L44.4514 19.1564ZM41.0987 19.0047C41.4753 18.832 41.9204 18.9973 42.0931 19.3738C42.2657 19.7504 42.1004 20.1955 41.7239 20.3682L41.0987 19.0047ZM39.0264 21.6438C38.654 21.8253 38.205 21.6705 38.0236 21.2982C37.8421 20.9259 37.9968 20.4769 38.3691 20.2954L39.0264 21.6438ZM35.6711 21.6502C36.039 21.46 36.4915 21.604 36.6817 21.972C36.872 22.3399 36.7279 22.7924 36.36 22.9827L35.6711 21.6502ZM33.726 24.3843C33.3627 24.5832 32.9069 24.4499 32.708 24.0865C32.5091 23.7232 32.6424 23.2674 33.0057 23.0685L33.726 24.3843ZM30.3744 24.5499C30.7329 24.3424 31.1917 24.4648 31.3992 24.8233C31.6067 25.1818 31.4843 25.6406 31.1258 25.8481L30.3744 24.5499ZM28.5608 27.3739C28.2074 27.5899 27.7457 27.4785 27.5297 27.1251C27.3137 26.7717 27.4251 26.3101 27.7785 26.094L28.5608 27.3739ZM25.2196 27.7008C25.5677 27.4763 26.0319 27.5765 26.2564 27.9246C26.4809 28.2727 26.3807 28.7369 26.0326 28.9614L25.2196 27.7008ZM23.543 30.6103C23.2005 30.8432 22.734 30.7544 22.501 30.4119C22.2681 30.0694 22.3569 29.6029 22.6994 29.37L23.543 30.6103ZM20.22 31.1017C20.5566 30.8603 21.0252 30.9374 21.2666 31.274C21.508 31.6106 21.4309 32.0792 21.0943 32.3206L20.22 31.1017ZM18.6894 34.0922C18.3591 34.3421 17.8887 34.2769 17.6387 33.9466C17.3888 33.6163 17.454 33.1459 17.7843 32.896L18.6894 34.0922ZM15.3958 34.7529C15.7194 34.4944 16.1913 34.5471 16.4499 34.8707C16.7084 35.1943 16.6557 35.6663 16.332 35.9248L15.3958 34.7529ZM14.0275 37.818C13.7111 38.0853 13.2379 38.0455 12.9706 37.7291C12.7032 37.4127 12.743 36.9395 13.0594 36.6722L14.0275 37.818ZM10.7821 38.653C11.0906 38.3766 11.5648 38.4027 11.8412 38.7112C12.1176 39.0197 12.0915 39.4939 11.783 39.7702L10.7821 38.653ZM9.59146 41.7956C9.29178 42.0816 8.81703 42.0704 8.53108 41.7707C8.24515 41.4711 8.25627 40.9963 8.55595 40.7104L9.59146 41.7956ZM6.39857 42.8404C6.68811 42.5442 7.16295 42.5388 7.45917 42.8283C7.75539 43.1179 7.7608 43.5927 7.47127 43.8889L6.39857 42.8404ZM5.4361 46.0544C5.15877 46.362 4.68452 46.3866 4.37686 46.1093C4.0692 45.832 4.0446 45.3577 4.32195 45.0501L5.4361 46.0544ZM2.34798 47.3484C2.60953 47.0272 3.08194 46.9789 3.40312 47.2405C3.7243 47.502 3.77264 47.9744 3.51109 48.2956L2.34798 47.3484ZM234.693 1.28606C234.499 1.75744 234.283 2.25035 234.046 2.76159L232.685 2.13046C232.914 1.63767 233.121 1.16444 233.307 0.713942L234.693 1.28606ZM232.583 5.64053C232.09 6.53594 231.545 7.46423 230.947 8.41287L229.678 7.61319C230.26 6.68957 230.791 5.78673 231.269 4.91718L232.583 5.64053ZM229.154 11.0881C228.548 11.9402 227.903 12.7993 227.218 13.6569L226.046 12.7208C226.713 11.8856 227.342 11.0488 227.932 10.2187L229.154 11.0881ZM225.139 16.1128C224.433 16.9003 223.692 17.6798 222.918 18.4446L221.864 17.3775C222.616 16.6348 223.335 15.8772 224.023 15.1111L225.139 16.1128ZM220.555 20.6358C219.751 21.3345 218.916 22.0138 218.05 22.6674L217.146 21.4703C217.983 20.8382 218.792 20.1807 219.571 19.5034L220.555 20.6358ZM215.404 24.5181C214.505 25.0982 213.577 25.6486 212.621 26.1637L211.909 24.8431C212.829 24.3474 213.723 23.8172 214.59 23.2577L215.404 24.5181ZM209.709 27.579C208.727 28.006 207.718 28.3947 206.683 28.7397L206.209 27.3167C207.201 26.986 208.168 26.6133 209.111 26.2034L209.709 27.579ZM203.564 29.624C202.525 29.8676 201.463 30.0668 200.377 30.2172L200.171 28.7314C201.21 28.5875 202.227 28.3968 203.221 28.1637L203.564 29.624ZM197.147 30.5132C196.61 30.5376 196.069 30.55 195.522 30.55V29.05C196.046 29.05 196.565 29.0381 197.078 29.0148L197.147 30.5132ZM195.522 30.55C195.022 30.55 194.522 30.5414 194.021 30.5244L194.072 29.0253C194.556 29.0417 195.039 29.05 195.522 29.05V30.55ZM191.03 30.3271C190.041 30.2311 189.051 30.1056 188.059 29.9533L188.286 28.4707C189.253 28.619 190.215 28.741 191.175 28.8341L191.03 30.3271ZM185.118 29.4281C184.154 29.2326 183.185 29.0146 182.211 28.7765L182.567 27.3194C183.523 27.5532 184.473 27.7668 185.416 27.958L185.118 29.4281ZM179.334 28.0213C178.39 27.7578 177.441 27.4779 176.484 27.1839L176.925 25.7501C177.87 26.0408 178.808 26.3169 179.737 26.5766L179.334 28.0213ZM173.658 26.2832C172.73 25.9779 171.795 25.6614 170.851 25.3358L171.34 23.9178C172.279 24.2416 173.207 24.5556 174.127 24.8584L173.658 26.2832ZM168.059 24.3562C167.141 24.0294 166.214 23.6958 165.277 23.3569L165.788 21.9464C166.723 22.2847 167.647 22.6174 168.562 22.943L168.059 24.3562ZM162.501 22.3488C161.586 22.0159 160.662 21.6797 159.728 21.3413L160.238 19.9309C161.174 20.2698 162.099 20.6064 163.014 20.9392L162.501 22.3488ZM156.952 20.3427C156.036 20.0155 155.11 19.6875 154.172 19.36L154.667 17.944C155.608 18.2728 156.538 18.6019 157.457 18.9301L156.952 20.3427ZM151.385 18.3997C150.464 18.0872 149.533 17.7762 148.59 17.4678L149.056 16.0422C150.005 16.3525 150.941 16.6652 151.867 16.9792L151.385 18.3997ZM145.792 16.5714C144.867 16.2814 143.931 15.9946 142.983 15.712L143.411 14.2746C144.366 14.5593 145.309 14.8481 146.241 15.1401L145.792 16.5714ZM140.16 14.8933C139.225 14.6299 138.279 14.3713 137.322 14.1182L137.705 12.668C138.671 12.9232 139.624 13.184 140.567 13.4495L140.16 14.8933ZM134.467 13.3893C133.527 13.1578 132.575 12.9321 131.612 12.7129L131.945 11.2503C132.917 11.4715 133.877 11.6992 134.826 11.9328L134.467 13.3893ZM128.747 12.0881C127.797 11.8901 126.836 11.6989 125.864 11.5151L126.143 10.0412C127.124 10.2268 128.094 10.4198 129.053 10.6197L128.747 12.0881ZM122.963 10.995C122.01 10.8335 121.046 10.6794 120.07 10.5332L120.293 9.04976C121.278 9.19735 122.251 9.353 123.214 9.51612L122.963 10.995ZM117.165 10.1263C116.202 10.0008 115.227 9.88319 114.241 9.7741L114.406 8.28321C115.402 8.39336 116.386 8.5121 117.359 8.63891L117.165 10.1263ZM111.321 9.47922C110.358 9.39126 109.384 9.31154 108.4 9.24051L108.508 7.7444C109.502 7.81612 110.485 7.89661 111.458 7.98543L111.321 9.47922ZM105.458 9.05621C104.492 9.00487 103.516 8.96196 102.53 8.92791L102.581 7.4288C103.577 7.46318 104.562 7.50649 105.537 7.55833L105.458 9.05621ZM99.5957 8.85358C98.621 8.8378 97.6364 8.8307 96.6418 8.83263L96.6389 7.33263C97.6425 7.33068 98.6362 7.33785 99.62 7.35378L99.5957 8.85358ZM93.7211 8.86407C92.748 8.88308 91.7655 8.91074 90.7734 8.94737L90.718 7.4484C91.7188 7.41144 92.71 7.38353 93.6918 7.36436L93.7211 8.86407ZM87.8443 9.08043C87.3515 9.10698 86.8563 9.13573 86.3588 9.16673L86.2655 7.66963C86.7672 7.63837 87.2666 7.60937 87.7636 7.5826L87.8443 9.08043ZM86.3588 9.16673C85.8576 9.19796 85.3582 9.23205 84.8607 9.26892L84.7499 7.77303C85.2532 7.73572 85.7584 7.70123 86.2655 7.66963L86.3588 9.16673ZM81.8922 9.52394C80.8943 9.62147 79.9041 9.73018 78.9219 9.84964L78.7408 8.36062C79.7347 8.23973 80.7366 8.12973 81.7463 8.03105L81.8922 9.52394ZM75.9597 10.2456C74.9688 10.39 73.9863 10.5453 73.0123 10.7109L72.7608 9.23217C73.7465 9.06452 74.7407 8.9074 75.7433 8.76126L75.9597 10.2456ZM70.0806 11.2454C69.0964 11.437 68.1213 11.639 67.1552 11.8511L66.8336 10.386C67.8113 10.1714 68.7981 9.96691 69.794 9.77308L70.0806 11.2454ZM64.244 12.5266C63.2706 12.7647 62.3068 13.0129 61.3528 13.2705L60.9617 11.8224C61.9272 11.5617 62.9025 11.3105 63.8876 11.0695L64.244 12.5266ZM58.4825 14.0825C57.5227 14.3664 56.5733 14.6597 55.6344 14.9618L55.1749 13.534C56.125 13.2282 57.0858 12.9314 58.0571 12.6441L58.4825 14.0825ZM52.8017 15.9108C51.8536 16.241 50.9168 16.5799 49.9915 16.9271L49.4646 15.5226C50.401 15.1714 51.3489 14.8283 52.3083 14.4942L52.8017 15.9108ZM47.2077 18.0092C46.2766 18.3838 45.3578 18.7665 44.4514 19.1564L43.8586 17.7785C44.7758 17.384 45.7055 16.9968 46.6477 16.6176L47.2077 18.0092ZM41.7239 20.3682C40.8112 20.7866 39.912 21.2121 39.0264 21.6438L38.3691 20.2954C39.2653 19.8586 40.1752 19.4281 41.0987 19.0047L41.7239 20.3682ZM36.36 22.9827C35.4671 23.4443 34.589 23.9118 33.726 24.3843L33.0057 23.0685C33.879 22.5904 34.7675 22.1173 35.6711 21.6502L36.36 22.9827ZM31.1258 25.8481C30.2541 26.3526 29.3991 26.8616 28.5608 27.3739L27.7785 26.094C28.6269 25.5755 29.4923 25.0605 30.3744 24.5499L31.1258 25.8481ZM26.0326 28.9614C25.1837 29.5088 24.3537 30.0588 23.543 30.6103L22.6994 29.37C23.5202 28.8117 24.3604 28.2549 25.2196 27.7008L26.0326 28.9614ZM21.0943 32.3206C20.2704 32.9115 19.4687 33.5025 18.6894 34.0922L17.7843 32.896C18.5738 32.2986 19.3858 31.7 20.22 31.1017L21.0943 32.3206ZM16.332 35.9248C15.5371 36.5599 14.7688 37.1916 14.0275 37.818L13.0594 36.6722C13.8112 36.037 14.5901 35.3966 15.3958 34.7529L16.332 35.9248ZM11.783 39.7702C11.0181 40.4555 10.2875 41.1315 9.59146 41.7956L8.55595 40.7104C9.26347 40.0353 10.0057 39.3486 10.7821 38.653L11.783 39.7702ZM7.47127 43.8889C6.74438 44.6326 6.06578 45.3558 5.4361 46.0544L4.32195 45.0501C4.96567 44.3359 5.65813 43.598 6.39857 42.8404L7.47127 43.8889ZM3.51109 48.2956C3.18655 48.6941 2.88159 49.0809 2.59631 49.4549L1.40369 48.5451C1.6991 48.1578 2.01395 47.7586 2.34798 47.3484L3.51109 48.2956Z" fill="#160909" fill-opacity="0.29"/>
</svg>
