<svg width="61" height="61" viewBox="0 0 61 61" fill="none" xmlns="http://www.w3.org/2000/svg">
<rect width="61" height="61" rx="13" fill="white"/>
<path d="M48.0475 20.0075C45.9664 13.9176 41.4164 9.41479 35.4556 7.56938C32.8454 6.7574 27.7311 6.83122 25.1916 7.68011C17.1849 10.3744 12.0353 17.4977 12 25.9866C12 29.4929 12.776 33.073 13.7283 33.9219C14.1516 34.291 15.0686 34.2541 18.3841 33.7373C23.3574 32.9623 23.7454 32.667 22.6167 30.4525C21.6291 28.4964 21.5586 24.3995 22.4756 22.4434C25.0858 16.8703 31.8931 15.394 36.161 19.417C39.7234 22.8125 40.2525 27.9058 37.4307 31.7812C35.4556 34.5124 34.1858 34.9553 25.2974 36.3578C20.9237 37.0591 17.2202 37.7235 17.0438 37.8342C16.1973 38.3878 17.2907 39.8272 23.6043 46.6552L30.447 54L37.7834 46.1385C41.8044 41.8202 45.649 37.4282 46.2839 36.3578C49.0704 31.7812 49.8111 25.1746 48.0475 20.0075Z" fill="#1F68E8"/>
</svg>
