<svg width="235" height="50" viewBox="0 0 235 50" fill="none" xmlns="http://www.w3.org/2000/svg">
<path id="&#208;&#161;&#209;&#130;&#209;&#128;&#208;&#181;&#208;&#187;&#208;&#186;&#208;&#176; 1" d="M1.6933 0.713942C1.53532 0.33104 1.09684 0.14871 0.713942 0.306696C0.33104 0.464682 0.14871 0.903157 0.306696 1.28606L1.6933 0.713942ZM148.688 8.41818L148.734 7.66963L148.688 8.41818ZM232.9 49.7433C233.31 49.7985 233.688 49.5105 233.743 49.1L234.643 42.4103C234.699 41.9998 234.411 41.6222 234 41.567C233.59 41.5118 233.212 41.7998 233.157 42.2103L232.357 48.1567L226.41 47.3565C226 47.3013 225.622 47.5893 225.567 47.9998C225.512 48.4103 225.8 48.7879 226.21 48.8431L232.9 49.7433ZM0.954214 2.76159C1.12849 3.13735 1.57439 3.30069 1.95016 3.12641C2.32592 2.95213 2.48926 2.50623 2.31498 2.13046L0.954214 2.76159ZM3.73072 4.91718C3.53097 4.55431 3.07488 4.42208 2.71201 4.62183C2.34915 4.82157 2.21691 5.27767 2.41666 5.64053L3.73072 4.91718ZM4.05292 8.41287C4.27375 8.76331 4.73685 8.86839 5.08729 8.64756C5.43773 8.42674 5.54281 7.96363 5.32198 7.61319L4.05292 8.41287ZM7.06791 10.2187C6.82784 9.88119 6.35959 9.80217 6.02204 10.0422C5.68449 10.2823 5.60547 10.7506 5.84554 11.0881L7.06791 10.2187ZM7.78217 13.6569C8.04066 13.9806 8.51259 14.0334 8.83625 13.7749C9.1599 13.5164 9.21273 13.0445 8.95424 12.7208L7.78217 13.6569ZM10.9773 15.1111C10.7007 14.8028 10.2265 14.7771 9.91819 15.0537C9.60987 15.3303 9.58416 15.8045 9.86077 16.1128L10.9773 15.1111ZM12.0817 18.4446C12.3764 18.7357 12.8513 18.7328 13.1424 18.4381C13.4335 18.1435 13.4306 17.6686 13.136 17.3775L12.0817 18.4446ZM15.4286 19.5034C15.1159 19.2318 14.6422 19.265 14.3706 19.5777C14.0989 19.8904 14.1322 20.3641 14.4448 20.6358L15.4286 19.5034ZM16.9499 22.6674C17.2805 22.917 17.7508 22.8513 18.0004 22.5207C18.25 22.1902 18.1844 21.7198 17.8538 21.4703L16.9499 22.6674ZM20.4095 23.2577C20.0615 23.0331 19.5973 23.1332 19.3727 23.4812C19.1481 23.8293 19.2482 24.2935 19.5963 24.5181L20.4095 23.2577ZM22.3794 26.1637C22.7441 26.3601 23.1989 26.2237 23.3954 25.8591C23.5918 25.4944 23.4554 25.0395 23.0907 24.8431L22.3794 26.1637ZM25.8889 26.2034C25.509 26.0382 25.0672 26.2123 24.902 26.5922C24.7369 26.972 24.9109 27.4139 25.2908 27.579L25.8889 26.2034ZM28.3171 28.7397C28.7101 28.8707 29.1348 28.6584 29.2658 28.2654C29.3968 27.8725 29.1844 27.4477 28.7915 27.3167L28.3171 28.7397ZM31.7789 28.1637C31.3756 28.0691 30.972 28.3193 30.8774 28.7226C30.7828 29.1259 31.0331 29.5295 31.4364 29.624L31.7789 28.1637ZM34.6229 30.2172C35.0331 30.274 35.4118 29.9875 35.4687 29.5772C35.5255 29.1669 35.239 28.7882 34.8287 28.7314L34.6229 30.2172ZM37.9215 29.0148C37.5077 28.996 37.1571 29.3162 37.1383 29.73C37.1195 30.1438 37.4397 30.4944 37.8535 30.5132L37.9215 29.0148ZM40.9785 30.5244C41.3925 30.5104 41.7167 30.1634 41.7027 29.7494C41.6887 29.3355 41.3417 29.0112 40.9277 29.0253L40.9785 30.5244ZM43.8253 28.8341C43.413 28.8741 43.1113 29.2407 43.1513 29.653C43.1913 30.0653 43.5579 30.3671 43.9702 30.3271L43.8253 28.8341ZM46.9413 29.9533C47.3507 29.8905 47.6317 29.5077 47.5688 29.0982C47.506 28.6888 47.1232 28.4078 46.7138 28.4707L46.9413 29.9533ZM49.5837 27.958C49.1777 28.0403 48.9153 28.4361 48.9976 28.842C49.0798 29.248 49.4756 29.5104 49.8816 29.4281L49.5837 27.958ZM52.7889 28.7765C53.1912 28.6781 53.4376 28.2722 53.3392 27.8698C53.2409 27.4675 52.8349 27.221 52.4326 27.3194L52.7889 28.7765ZM55.2626 26.5766C54.8636 26.6881 54.6305 27.1018 54.742 27.5007C54.8534 27.8997 55.2671 28.1328 55.6661 28.0213L55.2626 26.5766ZM58.5159 27.1839C58.9118 27.0622 59.1341 26.6426 59.0125 26.2467C58.8908 25.8507 58.4711 25.6284 58.0752 25.7501L58.5159 27.1839ZM60.8732 24.8584C60.4797 24.9878 60.2657 25.4118 60.3952 25.8052C60.5247 26.1987 60.9486 26.4127 61.3421 26.2832L60.8732 24.8584ZM64.1489 25.3358C64.5405 25.2007 64.7484 24.7737 64.6133 24.3822C64.4781 23.9906 64.0512 23.7827 63.6596 23.9178L64.1489 25.3358ZM66.4382 22.943C66.048 23.0818 65.8442 23.5107 65.983 23.901C66.1219 24.2912 66.5508 24.495 66.941 24.3562L66.4382 22.943ZM69.7229 23.3569C70.1124 23.2159 70.3139 22.7859 70.1729 22.3964C70.032 22.0069 69.6019 21.8054 69.2124 21.9464L69.7229 23.3569ZM71.9859 20.9392C71.5966 21.0808 71.3959 21.5111 71.5375 21.9004C71.6791 22.2896 72.1095 22.4904 72.4987 22.3488L71.9859 20.9392ZM75.2724 21.3413C75.6619 21.2003 75.8633 20.7703 75.7223 20.3808C75.5813 19.9913 75.1513 19.7899 74.7618 19.9309L75.2724 21.3413ZM77.5432 18.9301C77.1531 19.0694 76.9498 19.4985 77.0891 19.8886C77.2284 20.2787 77.6576 20.482 78.0477 20.3427L77.5432 18.9301ZM80.8276 19.36C81.2186 19.2234 81.4248 18.7957 81.2882 18.4046C81.1516 18.0136 80.7238 17.8074 80.3328 17.944L80.8276 19.36ZM83.133 16.9792C82.7407 17.1123 82.5306 17.5382 82.6637 17.9304C82.7968 18.3227 83.2227 18.5328 83.615 18.3997L83.133 16.9792ZM86.41 17.4678C86.8037 17.339 87.0184 16.9154 86.8896 16.5218C86.7608 16.1281 86.3373 15.9134 85.9436 16.0422L86.41 17.4678ZM88.7591 15.1401C88.3638 15.2639 88.1438 15.6848 88.2677 16.08C88.3916 16.4753 88.8124 16.6953 89.2076 16.5714L88.7591 15.1401ZM92.0172 15.712C92.4141 15.5937 92.64 15.176 92.5216 14.779C92.4033 14.3821 91.9856 14.1562 91.5886 14.2746L92.0172 15.712ZM94.4335 13.4495C94.0348 13.5618 93.8026 13.9761 93.915 14.3748C94.0273 14.7735 94.4416 15.0056 94.8402 14.8933L94.4335 13.4495ZM97.6782 14.1182C98.0787 14.0123 98.3175 13.6018 98.2116 13.2014C98.1058 12.8009 97.6953 12.5621 97.2948 12.668L97.6782 14.1182ZM100.174 11.9328C99.7718 12.0319 99.526 12.4382 99.625 12.8404C99.724 13.2426 100.13 13.4884 100.533 13.3893L100.174 11.9328ZM103.388 12.7129C103.792 12.621 104.044 12.2191 103.953 11.8152C103.861 11.4113 103.459 11.1584 103.055 11.2503L103.388 12.7129ZM105.947 10.6197C105.542 10.7042 105.282 11.1015 105.366 11.5069C105.451 11.9124 105.848 12.1726 106.253 12.0881L105.947 10.6197ZM109.136 11.5151C109.543 11.4381 109.81 11.0458 109.733 10.6388C109.657 10.2318 109.264 9.96424 108.857 10.0412L109.136 11.5151ZM111.786 9.51612C111.378 9.58532 111.103 9.97248 111.172 10.3809C111.241 10.7893 111.628 11.0642 112.037 10.995L111.786 9.51612ZM114.93 10.5332C115.339 10.4718 115.622 10.09 115.56 9.68032C115.499 9.27068 115.117 8.98837 114.707 9.04976L114.93 10.5332ZM117.641 8.63891C117.23 8.69241 116.94 9.06876 116.994 9.4795C117.047 9.89025 117.424 10.1798 117.835 10.1263L117.641 8.63891ZM120.759 9.7741C121.17 9.72853 121.467 9.35785 121.422 8.94615C121.376 8.53445 121.005 8.23764 120.594 8.28321L120.759 9.7741ZM123.542 7.98543C123.13 8.0231 122.826 8.38803 122.864 8.80053C122.901 9.21302 123.266 9.51688 123.679 9.47922L123.542 7.98543ZM126.6 9.24051C127.013 9.2107 127.324 8.85161 127.294 8.43847C127.264 8.02533 126.905 7.71459 126.492 7.7444L126.6 9.24051ZM129.463 7.55833C129.049 7.58031 128.732 7.93345 128.754 8.34708C128.776 8.76071 129.129 9.0782 129.542 9.05621L129.463 7.55833ZM132.47 8.92791C132.884 8.91361 133.208 8.56644 133.194 8.15247C133.18 7.7385 132.833 7.41451 132.419 7.4288L132.47 8.92791ZM135.38 7.35378C134.966 7.36049 134.636 7.70166 134.642 8.11582C134.649 8.52998 134.99 8.86029 135.404 8.85358L135.38 7.35378ZM138.358 8.83263C138.772 8.83343 139.109 8.4983 139.11 8.08409C139.11 7.66988 138.775 7.33344 138.361 7.33263L138.358 8.83263ZM141.308 7.36436C140.894 7.35627 140.552 7.68544 140.544 8.09957C140.536 8.51371 140.865 8.85599 141.279 8.86407L141.308 7.36436ZM144.227 8.94737C144.641 8.96266 144.988 8.63949 145.004 8.22556C145.019 7.81163 144.696 7.46368 144.282 7.4484L144.227 8.94737ZM147.236 7.5826C146.823 7.56032 146.469 7.87756 146.447 8.29118C146.425 8.70479 146.742 9.05815 147.156 9.08043L147.236 7.5826ZM150.139 9.26892C150.552 9.29955 150.912 8.9895 150.943 8.57642C150.973 8.16334 150.663 7.80365 150.25 7.77303L150.139 9.26892ZM153.254 8.03105C152.841 7.99076 152.475 8.2923 152.434 8.70455C152.394 9.1168 152.696 9.48365 153.108 9.52394L153.254 8.03105ZM156.078 9.84964C156.489 9.89965 156.863 9.60686 156.913 9.19568C156.963 8.7845 156.67 8.41063 156.259 8.36062L156.078 9.84964ZM159.257 8.76126C158.847 8.70152 158.466 8.98537 158.406 9.39525C158.347 9.80513 158.63 10.1858 159.04 10.2456L159.257 8.76126ZM161.988 10.7109C162.396 10.7804 162.783 10.5057 162.853 10.0973C162.922 9.68896 162.648 9.30162 162.239 9.23217L161.988 10.7109ZM165.206 9.77308C164.799 9.69394 164.406 9.9594 164.327 10.366C164.247 10.7726 164.513 11.1663 164.919 11.2454L165.206 9.77308ZM167.845 11.8511C168.249 11.9399 168.649 11.6839 168.738 11.2793C168.827 10.8747 168.571 10.4748 168.166 10.386L167.845 11.8511ZM171.112 11.0695C170.71 10.9711 170.304 11.2175 170.206 11.6198C170.107 12.0222 170.354 12.4281 170.756 12.5266L171.112 11.0695ZM173.647 13.2705C174.047 13.3785 174.459 13.1419 174.567 12.742C174.675 12.3421 174.438 11.9304 174.038 11.8224L173.647 13.2705ZM176.943 12.6441C176.546 12.5266 176.128 12.7534 176.011 13.1506C175.894 13.5478 176.12 13.965 176.517 14.0825L176.943 12.6441ZM179.366 14.9618C179.76 15.0887 180.182 14.872 180.309 14.4777C180.436 14.0834 180.219 13.6608 179.825 13.534L179.366 14.9618ZM182.692 14.4942C182.301 14.358 181.873 14.5647 181.737 14.9558C181.6 15.347 181.807 15.7745 182.198 15.9108L182.692 14.4942ZM185.009 16.9271C185.396 17.0725 185.829 16.8761 185.974 16.4883C186.12 16.1004 185.923 15.6681 185.535 15.5226L185.009 16.9271ZM188.352 16.6176C187.968 16.463 187.531 16.6491 187.377 17.0334C187.222 17.4177 187.408 17.8545 187.792 18.0092L188.352 16.6176ZM190.549 19.1564C190.929 19.3201 191.37 19.1444 191.534 18.7639C191.698 18.3834 191.522 17.9422 191.141 17.7785L190.549 19.1564ZM193.901 19.0047C193.525 18.832 193.08 18.9973 192.907 19.3738C192.734 19.7504 192.9 20.1955 193.276 20.3682L193.901 19.0047ZM195.974 21.6438C196.346 21.8253 196.795 21.6705 196.976 21.2982C197.158 20.9259 197.003 20.4769 196.631 20.2954L195.974 21.6438ZM199.329 21.6502C198.961 21.46 198.509 21.604 198.318 21.972C198.128 22.3399 198.272 22.7924 198.64 22.9827L199.329 21.6502ZM201.274 24.3843C201.637 24.5832 202.093 24.4499 202.292 24.0865C202.491 23.7232 202.358 23.2674 201.994 23.0685L201.274 24.3843ZM204.626 24.5499C204.267 24.3424 203.808 24.4648 203.601 24.8233C203.393 25.1818 203.516 25.6406 203.874 25.8481L204.626 24.5499ZM206.439 27.3739C206.793 27.5899 207.254 27.4785 207.47 27.1251C207.686 26.7717 207.575 26.3101 207.221 26.094L206.439 27.3739ZM209.78 27.7008C209.432 27.4763 208.968 27.5765 208.744 27.9246C208.519 28.2727 208.619 28.7369 208.967 28.9614L209.78 27.7008ZM211.457 30.6103C211.8 30.8432 212.266 30.7544 212.499 30.4119C212.732 30.0694 212.643 29.6029 212.301 29.37L211.457 30.6103ZM214.78 31.1017C214.443 30.8603 213.975 30.9374 213.733 31.274C213.492 31.6106 213.569 32.0792 213.906 32.3206L214.78 31.1017ZM216.311 34.0922C216.641 34.3421 217.111 34.2769 217.361 33.9466C217.611 33.6163 217.546 33.1459 217.216 32.896L216.311 34.0922ZM219.604 34.7529C219.281 34.4944 218.809 34.5471 218.55 34.8707C218.292 35.1943 218.344 35.6663 218.668 35.9248L219.604 34.7529ZM220.973 37.818C221.289 38.0853 221.762 38.0455 222.029 37.7291C222.297 37.4127 222.257 36.9395 221.941 36.6722L220.973 37.818ZM224.218 38.653C223.909 38.3766 223.435 38.4027 223.159 38.7112C222.882 39.0197 222.908 39.4939 223.217 39.7702L224.218 38.653ZM225.409 41.7956C225.708 42.0816 226.183 42.0704 226.469 41.7707C226.755 41.4711 226.744 40.9963 226.444 40.7104L225.409 41.7956ZM228.601 42.8404C228.312 42.5442 227.837 42.5388 227.541 42.8283C227.245 43.1179 227.239 43.5927 227.529 43.8889L228.601 42.8404ZM229.564 46.0544C229.841 46.362 230.315 46.3866 230.623 46.1093C230.931 45.832 230.955 45.3577 230.678 45.0501L229.564 46.0544ZM232.652 47.3484C232.39 47.0272 231.918 46.9789 231.597 47.2405C231.276 47.502 231.227 47.9744 231.489 48.2956L232.652 47.3484ZM0.306696 1.28606C0.50119 1.75744 0.717105 2.25035 0.954214 2.76159L2.31498 2.13046C2.08642 1.63767 1.87918 1.16444 1.6933 0.713942L0.306696 1.28606ZM2.41666 5.64053C2.90955 6.53594 3.45515 7.46423 4.05292 8.41287L5.32198 7.61319C4.73997 6.68957 4.20938 5.78673 3.73072 4.91718L2.41666 5.64053ZM5.84554 11.0881C6.45154 11.9402 7.0972 12.7993 7.78217 13.6569L8.95424 12.7208C8.2872 11.8856 7.65829 11.0488 7.06791 10.2187L5.84554 11.0881ZM9.86077 16.1128C10.5673 16.9003 11.3077 17.6798 12.0817 18.4446L13.136 17.3775C12.3842 16.6348 11.6646 15.8772 10.9773 15.1111L9.86077 16.1128ZM14.4448 20.6358C15.2491 21.3345 16.0842 22.0138 16.9499 22.6674L17.8538 21.4703C17.0166 20.8382 16.2082 20.1807 15.4286 19.5034L14.4448 20.6358ZM19.5963 24.5181C20.4953 25.0982 21.4231 25.6486 22.3794 26.1637L23.0907 24.8431C22.1705 24.3474 21.2767 23.8172 20.4095 23.2577L19.5963 24.5181ZM25.2908 27.579C26.273 28.006 27.2819 28.3947 28.3171 28.7397L28.7915 27.3167C27.7994 26.986 26.8318 26.6133 25.8889 26.2034L25.2908 27.579ZM31.4364 29.624C32.475 29.8676 33.5372 30.0668 34.6229 30.2172L34.8287 28.7314C33.7897 28.5875 32.7731 28.3968 31.7789 28.1637L31.4364 29.624ZM37.8535 30.5132C38.3899 30.5376 38.9314 30.55 39.4781 30.55V29.05C38.9541 29.05 38.4353 29.0381 37.9215 29.0148L37.8535 30.5132ZM39.4781 30.55C39.9783 30.55 40.4784 30.5414 40.9785 30.5244L40.9277 29.0253C40.4442 29.0417 39.961 29.05 39.4781 29.05V30.55ZM43.9702 30.3271C44.9588 30.2311 45.9487 30.1056 46.9413 29.9533L46.7138 28.4707C45.7469 28.619 44.7846 28.741 43.8253 28.8341L43.9702 30.3271ZM49.8816 29.4281C50.8464 29.2326 51.8151 29.0146 52.7889 28.7765L52.4326 27.3194C51.4765 27.5532 50.5274 27.7668 49.5837 27.958L49.8816 29.4281ZM55.6661 28.0213C56.6097 27.7578 57.5593 27.4779 58.5159 27.1839L58.0752 25.7501C57.1295 26.0408 56.1924 26.3169 55.2626 26.5766L55.6661 28.0213ZM61.3421 26.2832C62.2698 25.9779 63.2052 25.6614 64.1489 25.3358L63.6596 23.9178C62.7215 24.2416 61.793 24.5556 60.8732 24.8584L61.3421 26.2832ZM66.941 24.3562C67.8593 24.0294 68.7864 23.6958 69.7229 23.3569L69.2124 21.9464C68.2775 22.2847 67.3531 22.6174 66.4382 22.943L66.941 24.3562ZM72.4987 22.3488C73.4136 22.0159 74.3377 21.6797 75.2724 21.3413L74.7618 19.9309C73.8258 20.2698 72.9006 20.6064 71.9859 20.9392L72.4987 22.3488ZM78.0477 20.3427C78.9639 20.0155 79.8903 19.6875 80.8276 19.36L80.3328 17.944C79.3917 18.2728 78.462 18.6019 77.5432 18.9301L78.0477 20.3427ZM83.615 18.3997C84.5358 18.0872 85.4673 17.7762 86.41 17.4678L85.9436 16.0422C84.9952 16.3525 84.0585 16.6652 83.133 16.9792L83.615 18.3997ZM89.2076 16.5714C90.1331 16.2814 91.0695 15.9946 92.0172 15.712L91.5886 14.2746C90.6338 14.5593 89.6908 14.8481 88.7591 15.1401L89.2076 16.5714ZM94.8402 14.8933C95.775 14.6299 96.7209 14.3713 97.6782 14.1182L97.2948 12.668C96.3294 12.9232 95.3757 13.184 94.4335 13.4495L94.8402 14.8933ZM100.533 13.3893C101.473 13.1578 102.425 12.9321 103.388 12.7129L103.055 11.2503C102.083 11.4715 101.123 11.6992 100.174 11.9328L100.533 13.3893ZM106.253 12.0881C107.203 11.8901 108.164 11.6989 109.136 11.5151L108.857 10.0412C107.876 10.2268 106.906 10.4198 105.947 10.6197L106.253 12.0881ZM112.037 10.995C112.99 10.8335 113.954 10.6794 114.93 10.5332L114.707 9.04976C113.722 9.19735 112.749 9.353 111.786 9.51612L112.037 10.995ZM117.835 10.1263C118.798 10.0008 119.773 9.88319 120.759 9.7741L120.594 8.28321C119.598 8.39336 118.614 8.5121 117.641 8.63891L117.835 10.1263ZM123.679 9.47922C124.642 9.39126 125.616 9.31154 126.6 9.24051L126.492 7.7444C125.498 7.81612 124.515 7.89661 123.542 7.98543L123.679 9.47922ZM129.542 9.05621C130.508 9.00487 131.484 8.96196 132.47 8.92791L132.419 7.4288C131.423 7.46318 130.438 7.50649 129.463 7.55833L129.542 9.05621ZM135.404 8.85358C136.379 8.8378 137.364 8.8307 138.358 8.83263L138.361 7.33263C137.357 7.33068 136.364 7.33785 135.38 7.35378L135.404 8.85358ZM141.279 8.86407C142.252 8.88308 143.234 8.91074 144.227 8.94737L144.282 7.4484C143.281 7.41144 142.29 7.38353 141.308 7.36436L141.279 8.86407ZM147.156 9.08043C147.649 9.10698 148.144 9.13573 148.641 9.16673L148.734 7.66963C148.233 7.63837 147.733 7.60937 147.236 7.5826L147.156 9.08043ZM148.641 9.16673C149.142 9.19796 149.642 9.23205 150.139 9.26892L150.25 7.77303C149.747 7.73572 149.242 7.70123 148.734 7.66963L148.641 9.16673ZM153.108 9.52394C154.106 9.62147 155.096 9.73018 156.078 9.84964L156.259 8.36062C155.265 8.23973 154.263 8.12973 153.254 8.03105L153.108 9.52394ZM159.04 10.2456C160.031 10.39 161.014 10.5453 161.988 10.7109L162.239 9.23217C161.254 9.06452 160.259 8.9074 159.257 8.76126L159.04 10.2456ZM164.919 11.2454C165.904 11.437 166.879 11.639 167.845 11.8511L168.166 10.386C167.189 10.1714 166.202 9.96691 165.206 9.77308L164.919 11.2454ZM170.756 12.5266C171.729 12.7647 172.693 13.0129 173.647 13.2705L174.038 11.8224C173.073 11.5617 172.098 11.3105 171.112 11.0695L170.756 12.5266ZM176.517 14.0825C177.477 14.3664 178.427 14.6597 179.366 14.9618L179.825 13.534C178.875 13.2282 177.914 12.9314 176.943 12.6441L176.517 14.0825ZM182.198 15.9108C183.146 16.241 184.083 16.5799 185.009 16.9271L185.535 15.5226C184.599 15.1714 183.651 14.8283 182.692 14.4942L182.198 15.9108ZM187.792 18.0092C188.723 18.3838 189.642 18.7665 190.549 19.1564L191.141 17.7785C190.224 17.384 189.294 16.9968 188.352 16.6176L187.792 18.0092ZM193.276 20.3682C194.189 20.7866 195.088 21.2121 195.974 21.6438L196.631 20.2954C195.735 19.8586 194.825 19.4281 193.901 19.0047L193.276 20.3682ZM198.64 22.9827C199.533 23.4443 200.411 23.9118 201.274 24.3843L201.994 23.0685C201.121 22.5904 200.232 22.1173 199.329 21.6502L198.64 22.9827ZM203.874 25.8481C204.746 26.3526 205.601 26.8616 206.439 27.3739L207.221 26.094C206.373 25.5755 205.508 25.0605 204.626 24.5499L203.874 25.8481ZM208.967 28.9614C209.816 29.5088 210.646 30.0588 211.457 30.6103L212.301 29.37C211.48 28.8117 210.64 28.2549 209.78 27.7008L208.967 28.9614ZM213.906 32.3206C214.73 32.9115 215.531 33.5025 216.311 34.0922L217.216 32.896C216.426 32.2986 215.614 31.7 214.78 31.1017L213.906 32.3206ZM218.668 35.9248C219.463 36.5599 220.231 37.1916 220.973 37.818L221.941 36.6722C221.189 36.037 220.41 35.3966 219.604 34.7529L218.668 35.9248ZM223.217 39.7702C223.982 40.4555 224.713 41.1315 225.409 41.7956L226.444 40.7104C225.737 40.0353 224.994 39.3486 224.218 38.653L223.217 39.7702ZM227.529 43.8889C228.256 44.6326 228.934 45.3558 229.564 46.0544L230.678 45.0501C230.034 44.3359 229.342 43.598 228.601 42.8404L227.529 43.8889ZM231.489 48.2956C231.813 48.6941 232.118 49.0809 232.404 49.4549L233.596 48.5451C233.301 48.1578 232.986 47.7586 232.652 47.3484L231.489 48.2956Z" fill="#160909" fill-opacity="0.29"/>
</svg>
