<svg width="8" height="9" viewBox="0 0 8 9" fill="none" xmlns="http://www.w3.org/2000/svg">
<path d="M4.9858 5.58239H0.481534V4.46591H4.96875C5.35511 4.46591 5.67472 4.40199 5.92756 4.27415C6.1804 4.14347 6.3679 3.96449 6.49006 3.73722C6.61222 3.5071 6.6733 3.2429 6.6733 2.9446C6.6733 2.64915 6.61222 2.38494 6.49006 2.15199C6.3679 1.91903 6.18182 1.7358 5.93182 1.60227C5.68182 1.46591 5.36648 1.39773 4.9858 1.39773H3.12784V9H1.81534V0.272727H4.9858C5.64773 0.272727 6.20028 0.392045 6.64347 0.630682C7.08949 0.869318 7.4233 1.19034 7.64489 1.59375C7.86932 1.99716 7.98153 2.44602 7.98153 2.94034C7.98153 3.44034 7.8679 3.89062 7.64062 4.29119C7.41619 4.68892 7.08097 5.00426 6.63494 5.23722C6.19176 5.46733 5.64205 5.58239 4.9858 5.58239ZM5.04972 6.31534V7.43608H0.481534V6.31534H5.04972Z" fill="#6A6A6A"/>
</svg>
