<?xml version="1.0" encoding="utf-8"?>
<!-- Generator: Adobe Illustrator 27.5.0, SVG Export Plug-In . SVG Version: 6.00 Build 0)  -->
<svg version="1.1" id="_Слой_2" xmlns="http://www.w3.org/2000/svg" xmlns:xlink="http://www.w3.org/1999/xlink" x="0px"
	 y="0px" viewBox="0 0 385 383.6" style="enable-background:new 0 0 385 383.6;" xml:space="preserve">
<style type="text/css">
	.st0{fill:#131313;}
</style>
<g id="_Слой_1-2">
	<g>
		<path class="st0" d="M221,0c90.5,0,163.9,73.4,163.9,163.9s-73.4,164-163.9,164s-163.9-73.4-163.9-164S130.4,0,221,0z M221,282.5
			c65.5,0,118.6-53.1,118.6-118.6S286.4,45.4,221,45.4S102.4,98.5,102.4,164S155.5,282.5,221,282.5z"/>
		<path class="st0" d="M6.9,342.9l63.2-63.2c9.7,12.7,21.2,23.9,34.1,33.3l-63.5,63.5c-9.3,9.3-24.4,9.3-33.7,0
			S-2.4,352.2,6.9,342.9L6.9,342.9z"/>
	</g>
</g>
</svg>
