<svg width="61" height="61" viewBox="0 0 61 61" fill="none" xmlns="http://www.w3.org/2000/svg">
<rect width="61" height="61" rx="13" fill="#EE204D"/>
<path d="M48.9907 11.1971C49.7076 10.2032 49.8054 9.6493 49.3492 9.24198C48.9256 8.86726 48.225 8.91613 46.221 9.47008C43.6141 10.187 42.604 10.3662 37.6511 10.9853C31.4273 11.751 29.7654 12.1258 24.6006 13.8528C20.5112 15.2214 20.0387 15.3354 18.2628 15.4983C14.9391 15.7753 14.6295 15.8242 14.2711 16.1012C14.0593 16.2804 13.929 16.5899 13.9127 16.9484C13.8801 17.4697 13.929 17.5187 14.6947 17.7956C16.047 18.3007 16.21 18.431 16.5684 19.3108L16.9105 20.1744L18.0184 19.7996C21.3747 18.6591 25.7901 17.6979 29.1952 17.3557C32.7796 17.0136 35.4027 16.5737 38.5146 15.8079C39.9483 15.4495 41.4961 15.1562 41.936 15.1562C43.5816 15.1562 44.7221 16.313 44.8687 18.1378C44.9501 19.1316 44.9176 19.2782 44.3962 20.2395C44.0867 20.8098 43.8585 21.4125 43.9074 21.5918C43.94 21.771 44.3636 23.1396 44.8361 24.6222C45.3249 26.1049 45.8626 28.1252 46.0581 29.1027C46.3676 30.732 46.8727 34.5281 46.8727 35.2613C46.8727 35.5383 46.9704 35.5546 48.1109 35.4731C49.0885 35.4079 49.5772 35.4568 50.3593 35.7012C51.5813 36.076 52.3633 36.0922 53.2268 35.7501C54.1881 35.3591 54.3021 35.0495 53.7319 34.2838C53.4875 33.9253 53.1128 33.5017 52.9009 33.3225C52.1189 32.6219 51.9234 31.7095 51.5976 26.9684C51.2554 22.1783 50.9784 20.8261 49.3817 16.1664C48.8115 14.4882 48.339 12.8915 48.339 12.6146C48.339 12.2887 48.5671 11.7999 48.9907 11.1971Z" fill="white"/>
<path fill-rule="evenodd" clip-rule="evenodd" d="M42.441 17.7142C42.7832 18.1704 42.6692 18.6265 41.9849 19.5389C41.5124 20.158 41.3332 20.5654 41.3332 20.9727C41.3332 21.2823 41.8871 23.1559 42.5551 25.1436C44.0704 29.6567 44.1681 30.2106 44.7546 37.5586C44.9827 40.3772 45.0968 40.7356 46.1558 41.8924C46.6445 42.4138 47.0356 43.0003 47.0356 43.1795C47.0356 43.6031 46.2046 44.1082 45.3249 44.2385C44.885 44.3037 44.331 44.2223 43.6305 44.0105C43.0602 43.815 42.3107 43.6683 41.9849 43.6683C41.2028 43.6683 39.264 44.1734 34.8324 45.542C28.7878 47.3994 26.849 47.8066 20.5926 48.5399C16.4061 49.0397 15.4883 49.1466 14.8321 49.6178C14.6328 49.7609 14.4576 49.9376 14.2222 50.1691C13.7497 50.6253 13.2935 51 13.1958 51C13.098 51 12.7722 50.8045 12.4952 50.5601C11.925 50.0876 11.9087 49.7455 12.4137 48.4095C12.7722 47.4482 12.6907 47.0735 11.2733 42.6745C9.44849 37.0698 9.35073 36.4344 9.6277 30.7645C9.82322 26.8055 9.79063 26.7403 7.73776 26.0723C6.9883 25.8442 6.92313 25.7627 7.05347 25.111C7.2164 24.329 7.78664 24.1335 10.312 23.9542C13.1143 23.7425 13.261 23.7098 18.1162 22.0806C22.9225 20.4676 24.6006 20.1092 31.0688 19.2946C34.8487 18.8384 36.4616 18.5451 38.6449 17.9911C41.4309 17.2743 42.0663 17.2417 42.441 17.7142ZM39.8999 37.7052C40.405 36.5647 40.8286 34.186 40.8611 32.3449C40.8938 30.7971 40.9101 30.7482 41.1218 31.2696C42.2298 33.9579 42.1809 37.2653 40.9752 39.644C40.1769 41.2244 38.5477 42.3649 37.0487 42.3649H36.2667L37.3094 41.3222C38.4336 40.198 39.3623 38.8782 39.8999 37.7052Z" fill="white"/>
</svg>
