<svg width="20" height="19" viewBox="0 0 20 19" fill="none" xmlns="http://www.w3.org/2000/svg">
<path id="Tg icon" fill-rule="evenodd" clip-rule="evenodd" d="M0.910639 8.26187C6.41316 5.55349 10.0824 3.76796 11.9183 2.90528C17.1601 0.44215 18.2493 0.0142792 18.9593 0.000150644C19.1154 -0.00295681 19.4645 0.0407607 19.6907 0.248071C19.8816 0.42312 19.9342 0.659586 19.9593 0.825552C19.9845 0.991517 20.0158 1.36959 19.9909 1.66501C19.7068 5.03684 18.4777 13.2194 17.8524 16.9959C17.5878 18.5939 17.063 18.9359 16.5587 18.9883C15.4625 19.1023 14.634 18.3637 13.5723 17.5775C11.9111 16.3473 11.3004 16.0159 9.6879 14.8154C7.82432 13.428 8.84105 12.7018 9.9031 11.4556C10.181 11.1295 15.0449 6.049 15.1384 5.5988C15.1501 5.5425 14.9901 4.97954 14.8797 4.86872C14.7693 4.7579 14.6064 4.79579 14.4889 4.82593C14.3223 4.86866 11.6684 6.85035 6.5272 10.771C5.7739 11.3554 5.09159 11.6401 4.48026 11.6252C3.80631 11.6088 2.50991 11.1947 1.54618 10.8408C0.364111 10.4067 -0.0722297 10.2023 0.00957799 9.46506C0.0521885 9.08107 0.352542 8.68 0.910639 8.26187Z" fill="white"/>
</svg>
