<svg width="49" height="49" viewBox="0 0 49 49" fill="none" xmlns="http://www.w3.org/2000/svg">
<path d="M24.4871 48.4047C37.6965 48.4047 48.4048 37.6963 48.4048 24.4869C48.4048 11.2776 37.6965 0.569229 24.4871 0.569229C11.2777 0.569229 0.569336 11.2776 0.569336 24.4869C0.569336 37.6963 11.2777 48.4047 24.4871 48.4047Z" fill="#6B7F91"/>
<path d="M24.4871 40.887C33.545 40.887 40.8879 33.5441 40.8879 24.4863C40.8879 15.4284 33.545 8.0856 24.4871 8.0856C15.4292 8.0856 8.08643 15.4284 8.08643 24.4863C8.08643 33.5441 15.4292 40.887 24.4871 40.887Z" fill="white"/>
<path d="M33.8268 8.76997L42.8245 37.4712L21.5263 48.4051L15.0344 40.3186L33.8268 8.76997Z" fill="url(#paint0_linear_5850_472)"/>
<path fill-rule="evenodd" clip-rule="evenodd" d="M20.9568 22.5507L15.0344 40.3181L15.6038 40.6598L27.9044 26.537L20.9568 22.5507Z" fill="#2B3A49"/>
<path fill-rule="evenodd" clip-rule="evenodd" d="M33.2561 8.54108L20.9556 22.55L27.9031 26.5363L33.8256 8.76886L33.2561 8.54108Z" fill="#F14555"/>
<defs>
<linearGradient id="paint0_linear_5850_472" x1="31.7475" y1="32.0894" x2="12.5187" y2="15.6239" gradientUnits="userSpaceOnUse">
<stop offset="0.0648882" stop-color="#2B3743" stop-opacity="0"/>
<stop offset="1" stop-color="#2B3743"/>
</linearGradient>
</defs>
</svg>
